<?xml version="1.0" encoding="UTF-8" standalone="no"?>
<!DOCTYPE svg PUBLIC "-//W3C//DTD SVG 1.1//EN" "http://www.w3.org/Graphics/SVG/1.1/DTD/svg11.dtd">
<svg width="100%" height="100%" viewBox="0 0 720 720" version="1.1" xmlns="http://www.w3.org/2000/svg" xmlns:xlink="http://www.w3.org/1999/xlink" xml:space="preserve" xmlns:serif="http://www.serif.com/" style="fill-rule:evenodd;clip-rule:evenodd;stroke-linecap:round;stroke-miterlimit:10;">
    <g transform="matrix(1.073894,0.012962,-0.013921,0.999916,2.845304,-25.346621)">
        <g transform="matrix(0.931034,-0.012069,0.012962,0.999916,-2.320536,25.378831)">
            <path d="M657.592,592L684.592,610L657.592,628" style="fill:none;stroke:black;stroke-width:6px;"/>
            <path d="M110,610L684.592,610" style="fill:none;stroke:black;stroke-width:6px;stroke-linejoin:round;stroke-miterlimit:1.5;"/>
        </g>
    </g>
    <g transform="matrix(0.012962,-1.073894,0.999916,0.013921,-525.346621,717.154696)">
        <g transform="matrix(0.012962,0.999916,-0.931034,0.012069,674.505228,516.647172)">
            <path d="M92,62.408L110,35.408L128,62.408" style="fill:none;stroke:black;stroke-width:6px;"/>
            <path d="M110,610L110,35.408" style="fill:none;stroke:black;stroke-width:6px;stroke-linejoin:round;stroke-miterlimit:1.5;"/>
        </g>
    </g>
    <g transform="matrix(0.891266,0,0,0.907441,35.13369,16.533575)">
        <rect x="84" y="103" width="561" height="551" style="fill:none;stroke:black;stroke-width:2.22px;stroke-linejoin:round;stroke-miterlimit:1.5;"/>
    </g>
    <g transform="matrix(0.92577,0.012962,-0.012001,0.999916,17.625262,-525.346621)">
        <path d="M108,634L648,627" style="fill:none;stroke:rgb(13,40,242);stroke-width:6.22px;stroke-linejoin:round;stroke-miterlimit:1.5;"/>
    </g>
    <g transform="matrix(0.92577,0.012962,-0.012001,0.999916,17.625262,-25.346621)">
        <path d="M108,634L648,627" style="fill:none;stroke:rgb(242,13,13);stroke-width:6.22px;stroke-linejoin:round;stroke-miterlimit:1.5;"/>
    </g>
    <g transform="matrix(3.333333,0,0,3.333333,168.910509,45.191506)">
        <g transform="matrix(1,0,0,1,-6,-8)">
            <g transform="matrix(0.007194,0,0,-0.007194,0,16)">
                <path d="M1388.3,1858.22C1399.39,1897.03 1399.39,1902.58 1399.39,1921.98C1399.39,1971.88 1360.58,1996.83 1319,1996.83C1291.27,1996.83 1246.92,1980.19 1221.97,1938.61C1216.42,1924.75 1194.25,1838.81 1183.16,1788.91C1163.75,1716.83 1144.34,1641.98 1127.72,1567.14L1002.97,1068.14C991.875,1026.55 872.672,832.5 689.703,832.5C548.313,832.5 517.828,954.469 517.828,1057.05C517.828,1184.56 564.953,1356.44 659.203,1600.41C703.563,1714.06 714.656,1744.56 714.656,1800C714.656,1924.75 625.938,2027.33 487.328,2027.33C223.969,2027.33 121.391,1625.34 121.391,1600.41C121.391,1572.67 149.109,1572.67 154.656,1572.67C182.391,1572.67 185.156,1578.22 199.016,1622.58C273.859,1883.17 384.75,1966.33 479.016,1966.33C501.188,1966.33 548.313,1966.33 548.313,1877.63C548.313,1808.31 520.594,1736.23 501.188,1683.56C390.297,1389.72 340.406,1231.69 340.406,1101.41C340.406,854.672 515.047,771.5 678.609,771.5C786.734,771.5 880.984,818.641 958.609,896.25C922.563,752.094 889.297,616.266 778.406,469.328C706.328,375.078 600.984,294.688 473.469,294.688C434.656,294.688 309.906,303 262.781,411.109C307.141,411.109 343.172,411.109 381.984,444.391C409.703,469.328 437.422,505.375 437.422,558.047C437.422,643.984 362.578,655.078 334.859,655.078C271.094,655.078 179.609,610.719 179.609,474.875C179.609,336.266 301.594,233.688 473.469,233.688C759,233.688 1044.55,485.969 1122.17,799.234L1388.3,1858.22" style="fill-rule:nonzero;"/>
            </g>
        </g>
    </g>
    <g transform="matrix(3.333333,0,0,3.333333,681.910509,554.191506)">
        <g transform="matrix(1,0,0,1,-6,-6)">
            <g transform="matrix(0.007194,0,0,-0.007194,0,12)">
                <path d="M966.25,1082.59C982.859,1154.63 1046.58,1409.48 1240.48,1409.48C1254.34,1409.48 1320.83,1409.48 1379,1373.47C1301.44,1359.61 1246.03,1290.36 1246.03,1223.88C1246.03,1179.55 1276.5,1126.92 1351.3,1126.92C1412.25,1126.92 1500.89,1176.78 1500.89,1287.59C1500.89,1431.64 1337.45,1470.42 1243.27,1470.42C1082.59,1470.42 985.641,1323.61 952.391,1259.89C883.141,1442.72 733.547,1470.42 653.219,1470.42C365.109,1470.42 207.219,1113.06 207.219,1043.81C207.219,1016.11 234.906,1016.11 240.453,1016.11C262.609,1016.11 270.922,1021.66 276.469,1046.58C370.656,1340.22 553.484,1409.48 647.672,1409.48C700.313,1409.48 797.266,1384.55 797.266,1223.88C797.266,1138 750.172,952.391 647.672,564.578C603.344,392.813 506.391,276.469 384.5,276.469C367.875,276.469 304.172,276.469 246,312.484C315.25,326.328 376.188,384.516 376.188,462.078C376.188,536.875 315.25,559.031 273.703,559.031C190.594,559.031 121.328,487 121.328,398.359C121.328,270.938 259.844,215.531 381.734,215.531C564.563,215.531 664.297,409.438 672.609,426.063C705.844,323.563 805.578,215.531 971.781,215.531C1257.11,215.531 1415.02,572.875 1415.02,642.141C1415.02,669.844 1390.08,669.844 1381.77,669.844C1356.84,669.844 1351.3,658.766 1345.77,639.359C1254.34,342.953 1065.97,276.469 977.328,276.469C869.281,276.469 824.969,365.125 824.969,459.297C824.969,520.25 841.578,581.188 872.063,703.078L966.25,1082.59" style="fill-rule:nonzero;"/>
            </g>
        </g>
    </g>
    <g transform="matrix(2.857143,0,0,2.857143,610,650)">
        <g transform="matrix(1,0,0,1,-7,-8)">
            <g transform="matrix(0.007194,0,0,-0.007194,0,16)">
                <path d="M1077.05,1921.97C1101.98,2021.69 1110.3,2052.16 1370.69,2052.16C1453.8,2052.16 1475.95,2052.16 1475.95,2104.8C1475.95,2138.03 1445.48,2138.03 1431.64,2138.03C1340.22,2138.03 1113.06,2129.73 1021.64,2129.73C938.547,2129.73 736.313,2138.03 653.219,2138.03C633.813,2138.03 600.578,2138.03 600.578,2082.64C600.578,2052.16 625.516,2052.16 678.141,2052.16C683.688,2052.16 736.313,2052.16 783.406,2046.63C833.281,2041.08 858.203,2038.31 858.203,2002.3C858.203,1991.22 855.438,1982.91 847.125,1949.67L475.922,462.078C448.219,354.031 442.672,331.875 223.828,331.875C176.734,331.875 149.031,331.875 149.031,276.469C149.031,246 173.969,246 223.828,246L1506.42,246C1572.91,246 1575.69,246 1592.31,293.094L1811.16,891.453C1822.23,921.922 1822.23,927.469 1822.23,930.234C1822.23,941.313 1813.92,960.703 1788.98,960.703C1764.06,960.703 1761.28,946.859 1741.89,902.531C1647.7,647.672 1525.83,331.875 1046.58,331.875L786.188,331.875C747.391,331.875 741.859,331.875 725.234,334.641C697.531,337.422 689.219,340.188 689.219,362.344C689.219,370.656 689.219,376.203 703.078,426.063L1077.05,1921.97" style="fill-rule:nonzero;"/>
            </g>
        </g>
    </g>
    <g transform="matrix(2.857143,0,0,2.857143,70,110)">
        <g transform="matrix(1,0,0,1,-7,-8)">
            <g transform="matrix(0.007194,0,0,-0.007194,0,16)">
                <path d="M1077.05,1921.97C1101.98,2021.69 1110.3,2052.16 1370.69,2052.16C1453.8,2052.16 1475.95,2052.16 1475.95,2104.8C1475.95,2138.03 1445.48,2138.03 1431.64,2138.03C1340.22,2138.03 1113.06,2129.73 1021.64,2129.73C938.547,2129.73 736.313,2138.03 653.219,2138.03C633.813,2138.03 600.578,2138.03 600.578,2082.64C600.578,2052.16 625.516,2052.16 678.141,2052.16C683.688,2052.16 736.313,2052.16 783.406,2046.63C833.281,2041.08 858.203,2038.31 858.203,2002.3C858.203,1991.22 855.438,1982.91 847.125,1949.67L475.922,462.078C448.219,354.031 442.672,331.875 223.828,331.875C176.734,331.875 149.031,331.875 149.031,276.469C149.031,246 173.969,246 223.828,246L1506.42,246C1572.91,246 1575.69,246 1592.31,293.094L1811.16,891.453C1822.23,921.922 1822.23,927.469 1822.23,930.234C1822.23,941.313 1813.92,960.703 1788.98,960.703C1764.06,960.703 1761.28,946.859 1741.89,902.531C1647.7,647.672 1525.83,331.875 1046.58,331.875L786.188,331.875C747.391,331.875 741.859,331.875 725.234,334.641C697.531,337.422 689.219,340.188 689.219,362.344C689.219,370.656 689.219,376.203 703.078,426.063L1077.05,1921.97" style="fill-rule:nonzero;"/>
            </g>
        </g>
    </g>
    <g transform="matrix(3,0,0,3,70,650)">
        <g transform="matrix(1,0,0,1,-5,-8)">
            <g transform="matrix(0.007194,0,0,-0.007194,0,16)">
                <path d="M1315.28,1132.45C1315.28,1354.08 1301.44,1575.69 1204.48,1780.69C1077.05,2046.63 849.891,2090.94 733.547,2090.94C567.328,2090.94 365.109,2018.92 251.531,1761.3C162.891,1570.16 149.031,1354.08 149.031,1132.45C149.031,924.703 160.125,675.375 273.703,464.844C392.813,240.453 595.031,185.063 730.781,185.063C880.359,185.063 1090.91,243.234 1212.8,506.391C1301.44,697.547 1315.28,913.609 1315.28,1132.45ZM730.781,246C622.734,246 459.297,315.25 409.438,581.188C378.969,747.406 378.969,1002.27 378.969,1165.7C378.969,1343 378.969,1525.83 401.125,1675.42C453.766,2005.06 661.516,2030 730.781,2030C822.188,2030 1005.03,1980.14 1057.66,1705.89C1085.36,1550.77 1085.36,1340.22 1085.36,1165.7C1085.36,957.938 1085.36,769.563 1054.89,592.281C1013.33,329.109 855.438,246 730.781,246" style="fill-rule:nonzero;"/>
            </g>
        </g>
    </g>
    <g transform="matrix(2,0,0,2,360,150)">
        <g transform="matrix(1,0,0,1,-18,-10)">
            <g transform="matrix(2,0,0,2,0,0)">
                <g transform="matrix(0.003597,0,0,-0.003597,0,10)">
                    <path d="M1224.73,2484.73C1244.14,2562.36 1255.23,2579 1288.5,2587.31C1313.45,2592.86 1404.94,2592.86 1463.16,2592.86C1743.14,2592.86 1867.89,2581.77 1867.89,2365.53C1867.89,2323.95 1856.81,2215.83 1845.72,2143.75C1842.95,2132.67 1837.41,2099.41 1837.41,2091.08C1837.41,2074.45 1845.72,2055.05 1870.67,2055.05C1901.16,2055.05 1906.7,2077.22 1912.25,2118.81L1987.09,2601.17C1989.88,2612.27 1992.64,2639.98 1992.64,2648.3C1992.64,2678.8 1964.92,2678.8 1917.8,2678.8L379.219,2678.8C312.672,2678.8 309.906,2676.02 290.5,2623.34L124.172,2135.44C121.391,2129.89 107.531,2091.08 107.531,2085.55C107.531,2068.91 121.391,2055.05 140.797,2055.05C168.516,2055.05 171.297,2068.91 187.922,2113.27C337.625,2542.95 409.703,2592.86 820,2592.86L928.109,2592.86C1005.73,2592.86 1005.73,2581.77 1005.73,2559.59C1005.73,2542.95 997.422,2509.69 994.641,2501.38L623.172,1021C598.219,918.438 589.906,887.938 293.266,887.938C193.469,887.938 176.844,887.938 176.844,835.266C176.844,802 207.328,802 223.969,802C298.813,802 376.438,807.547 451.297,807.547C528.906,807.547 609.313,810.313 686.922,810.313C764.547,810.313 842.172,807.547 917.016,807.547C997.422,807.547 1080.58,802 1158.2,802C1185.92,802 1219.19,802 1219.19,857.438C1219.19,887.938 1197.02,887.938 1124.94,887.938C1055.64,887.938 1019.59,887.938 947.516,893.484C867.125,901.797 844.938,910.109 844.938,954.469C844.938,957.25 844.938,971.109 856.031,1012.69L1224.73,2484.73" style="fill:rgb(0,0,255);fill-rule:nonzero;"/>
                </g>
                <g transform="matrix(0.003597,0,0,-0.003597,0,10)">
                    <path d="M2049.63,1152.69L2352.02,1152.69L2352.02,1222.47L2049.63,1222.47L2049.63,1579.14L1983.72,1579.14C1981.78,1404.67 1902.3,1212.77 1716.22,1206.95L1716.22,1152.69L1896.48,1152.69L1896.48,629.297C1896.48,412.203 2059.31,367.609 2167.88,367.609C2297.75,367.609 2386.91,478.109 2386.91,631.25L2386.91,737.859L2321,737.859L2321,633.188C2321,501.375 2258.97,429.641 2183.38,429.641C2049.63,429.641 2049.63,592.469 2049.63,627.359L2049.63,1152.69" style="fill:rgb(0,0,255);fill-rule:nonzero;"/>
                </g>
                <g transform="matrix(0.003597,0,0,-0.003597,0,10)">
                    <path d="M3550.44,799.891C3550.44,1042.19 3343.02,1251.55 3075.52,1251.55C2808.02,1251.55 2600.59,1042.19 2600.59,799.891C2600.59,559.516 2813.83,367.609 3075.52,367.609C3337.2,367.609 3550.44,559.516 3550.44,799.891ZM3075.52,429.641C3003.8,429.641 2899.13,452.906 2835.16,547.891C2782.81,627.359 2777,728.172 2777,817.328C2777,900.688 2778.94,1015.05 2846.78,1098.41C2895.23,1154.63 2976.66,1197.27 3075.52,1197.27C3189.88,1197.27 3271.3,1142.98 3313.94,1082.89C3368.22,1007.3 3374.03,910.375 3374.03,817.328C3374.03,724.281 3368.22,621.547 3312,542.078C3259.67,468.422 3170.5,429.641 3075.52,429.641" style="fill:rgb(0,0,255);fill-rule:nonzero;"/>
                </g>
                <g transform="matrix(0.003597,0,0,-0.003597,0,10)">
                    <path d="M4167.89,80.734C4041.89,80.734 4022.5,80.734 4022.5,164.078L4022.5,480.047C4032.19,470.359 4123.3,367.609 4286.13,367.609C4542,367.609 4761.05,559.516 4761.05,805.703C4761.05,1044.13 4563.33,1241.84 4317.14,1241.84C4206.66,1241.84 4094.22,1201.14 4014.75,1123.61L4014.75,1241.84L3723.98,1220.53L3723.98,1150.75C3859.67,1150.75 3869.36,1141.05 3869.36,1059.64L3869.36,164.078C3869.36,80.734 3849.98,80.734 3723.98,80.734L3723.98,10.938C3727.86,10.938 3863.55,18.703 3944.97,18.703C4016.69,18.703 4150.44,12.875 4167.89,10.938L4167.89,80.734ZM4022.5,1032.5C4080.66,1129.42 4193.08,1179.81 4295.83,1179.81C4458.66,1179.81 4584.64,1009.23 4584.64,805.703C4584.64,584.719 4439.27,421.891 4274.5,421.891C4103.92,421.891 4028.31,571.156 4022.5,582.781L4022.5,1032.5" style="fill:rgb(0,0,255);fill-rule:nonzero;"/>
                </g>
            </g>
        </g>
    </g>
    <g transform="matrix(2.222222,0,0,2.222222,360,570)">
        <g transform="matrix(1,0,0,1,-31,-9)">
            <g transform="matrix(2,0,0,2,0,0)">
                <g transform="matrix(0.003597,0,0,-0.003597,0,9)">
                    <path d="M1224.73,2206.73C1244.14,2284.36 1255.23,2301 1288.5,2309.31C1313.45,2314.86 1404.94,2314.86 1463.16,2314.86C1743.14,2314.86 1867.89,2303.77 1867.89,2087.53C1867.89,2045.95 1856.81,1937.83 1845.72,1865.75C1842.95,1854.67 1837.41,1821.41 1837.41,1813.08C1837.41,1796.45 1845.72,1777.05 1870.67,1777.05C1901.16,1777.05 1906.7,1799.22 1912.25,1840.81L1987.09,2323.17C1989.88,2334.27 1992.64,2361.98 1992.64,2370.3C1992.64,2400.8 1964.92,2400.8 1917.8,2400.8L379.219,2400.8C312.672,2400.8 309.906,2398.02 290.5,2345.34L124.172,1857.44C121.391,1851.89 107.531,1813.08 107.531,1807.55C107.531,1790.91 121.391,1777.05 140.797,1777.05C168.516,1777.05 171.297,1790.91 187.922,1835.27C337.625,2264.95 409.703,2314.86 820,2314.86L928.109,2314.86C1005.73,2314.86 1005.73,2303.77 1005.73,2281.59C1005.73,2264.95 997.422,2231.69 994.641,2223.38L623.172,743C598.219,640.438 589.906,609.938 293.266,609.938C193.469,609.938 176.844,609.938 176.844,557.266C176.844,524 207.328,524 223.969,524C298.813,524 376.438,529.547 451.297,529.547C528.906,529.547 609.313,532.313 686.922,532.313C764.547,532.313 842.172,529.547 917.016,529.547C997.422,529.547 1080.58,524 1158.2,524C1185.92,524 1219.19,524 1219.19,579.438C1219.19,609.938 1197.02,609.938 1124.94,609.938C1055.64,609.938 1019.59,609.938 947.516,615.484C867.125,623.797 844.938,632.109 844.938,676.469C844.938,679.25 844.938,693.109 856.031,734.688L1224.73,2206.73" style="fill:rgb(255,0,0);fill-rule:nonzero;"/>
                </g>
                <g transform="matrix(0.003597,0,0,-0.003597,0,9)">
                    <path d="M2045.75,1454.27L1754.98,1432.95L1754.98,1363.17C1886.8,1363.17 1900.36,1347.66 1900.36,1250.73L1900.36,109L1966.27,109L2034.13,227.25C2107.78,130.328 2214.39,89.609 2317.13,89.609C2573,89.609 2792.05,281.516 2792.05,527.703C2792.05,764.188 2592.39,963.844 2338.45,963.844C2222.14,963.844 2115.53,917.328 2045.75,847.547L2045.75,1454.27ZM2053.5,758.375C2107.78,847.547 2212.45,909.578 2328.77,909.578C2437.31,909.578 2514.84,847.547 2553.63,789.391C2592.39,733.172 2615.64,657.578 2615.64,529.641C2615.64,485.063 2615.64,339.672 2536.17,248.563C2458.64,161.344 2363.66,143.891 2307.44,143.891C2152.36,143.891 2074.83,266.016 2053.5,306.719L2053.5,758.375" style="fill:rgb(255,0,0);fill-rule:nonzero;"/>
                </g>
                <g transform="matrix(0.003597,0,0,-0.003597,0,9)">
                    <path d="M3966.44,521.891C3966.44,764.188 3759.02,973.547 3491.52,973.547C3224.02,973.547 3016.59,764.188 3016.59,521.891C3016.59,281.516 3229.83,89.609 3491.52,89.609C3753.2,89.609 3966.44,281.516 3966.44,521.891ZM3491.52,151.641C3419.8,151.641 3315.13,174.906 3251.16,269.891C3198.81,349.359 3193,450.172 3193,539.328C3193,622.688 3194.94,737.047 3262.78,820.406C3311.23,876.625 3392.66,919.266 3491.52,919.266C3605.88,919.266 3687.3,864.984 3729.94,804.891C3784.22,729.297 3790.03,632.375 3790.03,539.328C3790.03,446.281 3784.22,343.547 3728,264.078C3675.67,190.422 3586.5,151.641 3491.52,151.641" style="fill:rgb(255,0,0);fill-rule:nonzero;"/>
                </g>
                <g transform="matrix(0.003597,0,0,-0.003597,0,9)">
                    <path d="M4433.63,874.688L4736.02,874.688L4736.02,944.469L4433.63,944.469L4433.63,1301.14L4367.72,1301.14C4365.78,1126.67 4286.3,934.766 4100.22,928.953L4100.22,874.688L4280.48,874.688L4280.48,351.297C4280.48,134.203 4443.31,89.609 4551.88,89.609C4681.75,89.609 4770.91,200.109 4770.91,353.25L4770.91,459.859L4705,459.859L4705,355.188C4705,223.375 4642.97,151.641 4567.38,151.641C4433.63,151.641 4433.63,314.469 4433.63,349.359L4433.63,874.688" style="fill:rgb(255,0,0);fill-rule:nonzero;"/>
                </g>
                <g transform="matrix(0.003597,0,0,-0.003597,0,9)">
                    <path d="M5298.63,874.688L5601.02,874.688L5601.02,944.469L5298.63,944.469L5298.63,1301.14L5232.72,1301.14C5230.78,1126.67 5151.3,934.766 4965.22,928.953L4965.22,874.688L5145.48,874.688L5145.48,351.297C5145.48,134.203 5308.31,89.609 5416.88,89.609C5546.75,89.609 5635.91,200.109 5635.91,353.25L5635.91,459.859L5570,459.859L5570,355.188C5570,223.375 5507.97,151.641 5432.38,151.641C5298.63,151.641 5298.63,314.469 5298.63,349.359L5298.63,874.688" style="fill:rgb(255,0,0);fill-rule:nonzero;"/>
                </g>
                <g transform="matrix(0.003597,0,0,-0.003597,0,9)">
                    <path d="M6799.44,521.891C6799.44,764.188 6592.02,973.547 6324.52,973.547C6057.02,973.547 5849.59,764.188 5849.59,521.891C5849.59,281.516 6062.83,89.609 6324.52,89.609C6586.2,89.609 6799.44,281.516 6799.44,521.891ZM6324.52,151.641C6252.8,151.641 6148.13,174.906 6084.16,269.891C6031.81,349.359 6026,450.172 6026,539.328C6026,622.688 6027.94,737.047 6095.78,820.406C6144.23,876.625 6225.66,919.266 6324.52,919.266C6438.88,919.266 6520.3,864.984 6562.94,804.891C6617.22,729.297 6623.03,632.375 6623.03,539.328C6623.03,446.281 6617.22,343.547 6561,264.078C6508.67,190.422 6419.5,151.641 6324.52,151.641" style="fill:rgb(255,0,0);fill-rule:nonzero;"/>
                </g>
                <g transform="matrix(0.003597,0,0,-0.003597,0,9)">
                    <path d="M8470.39,696.344C8470.39,864.984 8387.03,963.844 8179.63,963.844C8026.48,963.844 7921.81,880.5 7869.48,783.578C7830.7,921.203 7726.03,963.844 7584.53,963.844C7425.58,963.844 7322.84,876.625 7268.56,775.828L7266.63,775.828L7266.63,963.844L6981.67,942.531L6981.67,872.75C7111.55,872.75 7127.06,859.172 7127.06,764.188L7127.06,262.141C7127.06,178.781 7107.67,178.781 6981.67,178.781L6981.67,109C6985.55,109 7121.25,116.75 7202.66,116.75C7274.38,116.75 7408.13,110.938 7425.58,109L7425.58,178.781C7299.58,178.781 7280.19,178.781 7280.19,262.141L7280.19,611.047C7280.19,814.594 7441.08,909.578 7569.02,909.578C7704.7,909.578 7722.16,802.953 7722.16,704.094L7722.16,262.141C7722.16,178.781 7702.77,178.781 7576.78,178.781L7576.78,109C7580.66,109 7716.34,116.75 7797.75,116.75C7869.48,116.75 8003.23,110.938 8020.67,109L8020.67,178.781C7894.67,178.781 7875.3,178.781 7875.3,262.141L7875.3,611.047C7875.3,814.594 8036.19,909.578 8164.13,909.578C8299.81,909.578 8317.25,802.953 8317.25,704.094L8317.25,262.141C8317.25,178.781 8297.88,178.781 8171.88,178.781L8171.88,109C8175.75,109 8311.44,116.75 8392.86,116.75C8464.58,116.75 8598.33,110.938 8615.78,109L8615.78,178.781C8489.78,178.781 8470.39,178.781 8470.39,262.141L8470.39,696.344" style="fill:rgb(255,0,0);fill-rule:nonzero;"/>
                </g>
            </g>
        </g>
    </g>
    <g transform="matrix(0.966172,-0.004667,0.004667,0.966172,-3.712995,21.895355)">
        <g transform="matrix(1.034988,0.005,-0.005,1.034988,3.952381,-22.642863)">
            <path d="M182,422.406L200,395.406L218,422.406" style="fill:none;stroke:rgb(242,13,13);stroke-width:6px;"/>
            <path d="M200,590L200,395.406" style="fill:none;stroke:rgb(242,13,13);stroke-width:6px;stroke-linejoin:round;stroke-miterlimit:1.5;"/>
        </g>
    </g>
    <g transform="matrix(0.966172,0.004667,0.004667,-0.966172,316.287005,698.104645)">
        <g transform="matrix(1.034988,0.005,0.005,-1.034988,-330.843712,720.94846)">
            <path d="M538,297.594L520,324.594L502,297.594" style="fill:none;stroke:rgb(13,40,242);stroke-width:6px;"/>
            <path d="M520,130L520,324.594" style="fill:none;stroke:rgb(13,40,242);stroke-width:6px;stroke-linejoin:round;stroke-miterlimit:1.5;"/>
        </g>
    </g>
    <g transform="matrix(1,0,0,1,-28.618175,39.536759)">
        <g transform="matrix(48,0,0,48,276.354175,327.671241)">
        </g>
        <text x="180.354px" y="327.671px" style="font-family:'YuKyo-Bold', 'YuKyokasho';font-weight:700;font-size:48px;fill:rgb(242,13,13);">上昇</text>
    </g>
    <g transform="matrix(1,0,0,1,290.157825,59.800759)">
        <g transform="matrix(48,0,0,48,276.354175,327.671241)">
        </g>
        <text x="180.354px" y="327.671px" style="font-family:'YuKyo-Bold', 'YuKyokasho';font-weight:700;font-size:48px;fill:rgb(13,40,242);">下降</text>
    </g>
</svg>
