<?xml version="1.0" encoding="UTF-8" standalone="no"?>
<!DOCTYPE svg PUBLIC "-//W3C//DTD SVG 1.1//EN" "http://www.w3.org/Graphics/SVG/1.1/DTD/svg11.dtd">
<svg width="100%" height="100%" viewBox="0 0 400 320" version="1.1" xmlns="http://www.w3.org/2000/svg" xmlns:xlink="http://www.w3.org/1999/xlink" xml:space="preserve" xmlns:serif="http://www.serif.com/" style="fill-rule:evenodd;clip-rule:evenodd;stroke-linecap:round;stroke-linejoin:round;stroke-miterlimit:1.5;">
    <g transform="matrix(1,0,0,1,-75.7981,-53.6471)">
        <g transform="matrix(1.1757,0,0,1.27855,-238.996,-450.743)">
            <path d="M458.445,430.756C364.496,430.756 288.335,500.791 288.335,587.183L458.445,587.183L458.445,430.756Z" style="stroke:black;stroke-width:0.81px;"/>
        </g>
        <g transform="matrix(1.01535,0,0,1.55763,-14.8158,-176.5)">
            <path d="M456.891,293.076C419.522,288.99 366.118,286.654 310.058,286.654C201.343,286.654 113.081,295.284 113.081,305.914C113.081,310.651 130.933,315.222 163.225,318.753L310.058,305.914L456.891,293.076Z" style="stroke:black;stroke-width:0.76px;"/>
        </g>
        <g transform="matrix(0.761509,0,0,10.3842,63.8881,-2876.66)">
            <path d="M506.05,303.99C495.944,294.148 411.226,286.654 310.058,286.654C201.343,286.654 113.081,295.284 113.081,305.914C113.081,306.557 113.409,307.199 114.066,307.838L310.058,305.914L506.05,303.99Z" style="fill:rgb(166,166,166);stroke:black;stroke-width:0.14px;"/>
        </g>
    </g>
    <g transform="matrix(0.685358,0,0,9.34575,11.7012,-2612.64)">
        <path d="M506.05,303.99C495.944,294.148 411.226,286.654 310.058,286.654C201.343,286.654 113.081,295.284 113.081,305.914C113.081,306.557 113.409,307.199 114.066,307.838L310.058,305.914L506.05,303.99Z" style="fill:white;stroke:black;stroke-width:0.15px;"/>
    </g>
    <g transform="matrix(1.01535,0,0,1.55763,-90.6139,-230.147)">
        <path d="M456.891,293.076C419.522,288.99 366.118,286.654 310.058,286.654C201.343,286.654 113.081,295.284 113.081,305.914C113.081,310.651 130.933,315.222 163.225,318.753L310.058,305.914L456.891,293.076Z" style="fill:none;stroke:black;stroke-width:0.76px;"/>
    </g>
    <g transform="matrix(0.3425,0,0,0.3425,121.452,143.603)">
        <g transform="matrix(1.1757,0,0,1.27855,-238.996,-450.743)">
            <path d="M458.445,430.756C364.496,430.756 288.335,500.791 288.335,587.183L458.445,587.183L458.445,430.756Z" style="stroke:black;stroke-width:2.38px;"/>
        </g>
        <g transform="matrix(1.01535,0,0,1.55763,-14.8158,-176.5)">
            <path d="M456.891,293.076C419.522,288.99 366.118,286.654 310.058,286.654C201.343,286.654 113.081,295.284 113.081,305.914C113.081,310.651 130.933,315.222 163.225,318.753L310.058,305.914L456.891,293.076Z" style="stroke:black;stroke-width:2.22px;"/>
        </g>
        <g transform="matrix(0.761509,0,0,10.3842,63.8881,-2876.66)">
            <path d="M506.05,303.99C495.944,294.148 411.226,286.654 310.058,286.654C201.343,286.654 113.081,295.284 113.081,305.914C113.081,306.557 113.409,307.199 114.066,307.838L310.058,305.914L506.05,303.99Z" style="fill:white;stroke:black;stroke-width:0.4px;"/>
        </g>
    </g>
    <g transform="matrix(1,0,0,1,-101,-165.419)">
        <g transform="matrix(36,0,0,36,361.716,398.626)">
        </g>
        <text x="289.716px" y="398.626px" style="font-family:'YuKyo_Yoko-Bold', 'YuKyokasho Yoko';font-weight:700;font-size:36px;">内核</text>
    </g>
    <g transform="matrix(1,0,0,1,-16.1362,-208.232)">
        <g transform="matrix(36,0,0,36,361.716,398.626)">
        </g>
        <text x="289.716px" y="398.626px" style="font-family:'YuKyo_Yoko-Bold', 'YuKyokasho Yoko';font-weight:700;font-size:36px;">外核</text>
    </g>
    <g transform="matrix(1,0,0,0.75129,-440.89,74.609)">
        <g transform="matrix(0.685994,0,0,2.13882,478.885,-251.829)">
            <path d="M128.028,220.567L155.687,221.97L155.333,156.833L155.263,154.617L98.924,178.253L98.092,217.748L103.219,218.021L128.028,220.567Z" style="fill:rgb(230,230,230);stroke:black;stroke-width:0.81px;"/>
        </g>
        <g transform="matrix(1,0,0,1,431.13,-3.12413)">
            <g transform="matrix(0.731584,0.170869,-0.259923,1.11288,102.728,-55.5367)">
                <ellipse cx="125.429" cy="229.746" rx="27.011" ry="4.375" style="fill:rgb(230,230,230);stroke:black;stroke-width:1.32px;stroke-dasharray:2.63,5.27,0,0,0,0;"/>
            </g>
            <g transform="matrix(0.731584,0.170869,-0.259923,1.11288,102.728,-55.5367)">
                <path d="M152.44,229.746C152.44,232.161 140.337,234.121 125.429,234.121C110.521,234.121 98.417,232.161 98.417,229.746" style="fill:rgb(230,230,230);stroke:black;stroke-width:1.32px;"/>
            </g>
        </g>
        <g transform="matrix(1,0,0,1,431.13,-3.12413)">
            <g transform="matrix(0.702899,-0.958896,0.921276,0.675323,-164.806,72.8755)">
                <ellipse cx="125.429" cy="229.746" rx="27.011" ry="4.375" style="fill:rgb(230,230,230);stroke:black;stroke-width:0.86px;stroke-dasharray:1.73,3.45,0,0,0,0;"/>
            </g>
            <g transform="matrix(0.702899,-0.958896,0.921276,0.675323,-164.806,72.8755)">
                <path d="M98.417,229.746C98.417,227.331 110.521,225.371 125.429,225.371C140.337,225.371 152.44,227.331 152.44,229.746" style="fill:rgb(230,230,230);stroke:black;stroke-width:0.86px;"/>
            </g>
        </g>
        <g transform="matrix(0.999347,-0.0361452,0.0579255,1.60153,420.717,-119.854)">
            <g transform="matrix(1.18007,0,0,1,-26.0121,-8.27505)">
                <path d="M134.248,222.088C130.965,220.43 125.543,217.691 126.575,214.161C127.758,210.115 133.877,208.947 138.093,208.937C141.031,208.931 146.666,211.561 145.222,214.119C143.563,217.059 137.739,214.857 135.699,214.196C134.509,213.81 132.901,212.823 131.399,212.008" style="fill:none;stroke:black;stroke-width:0.33px;"/>
            </g>
            <g transform="matrix(1.18007,0,0,1,-25.6983,-16.7029)">
                <path d="M134.248,222.088C130.965,220.43 125.543,217.691 126.575,214.161C127.758,210.115 133.877,208.947 138.093,208.937C141.031,208.931 146.666,211.561 145.222,214.119C143.563,217.059 137.739,214.857 135.699,214.196C134.509,213.81 132.901,212.823 131.399,212.008" style="fill:none;stroke:black;stroke-width:0.33px;"/>
            </g>
            <g transform="matrix(1.18007,0,0,1,-24.8212,-24.9073)">
                <path d="M134.248,222.088C130.965,220.43 125.543,217.691 126.575,214.161C127.758,210.115 133.877,208.947 138.093,208.937C141.031,208.931 146.666,211.561 145.222,214.119C143.563,217.059 137.739,214.857 135.699,214.196C134.509,213.81 132.901,212.823 131.399,212.008" style="fill:none;stroke:black;stroke-width:0.33px;"/>
            </g>
            <g transform="matrix(1.18007,0,0,1,-24.5075,-33.3352)">
                <path d="M134.248,222.088C130.965,220.43 125.543,217.691 126.575,214.161C127.758,210.115 133.877,208.947 138.093,208.937C141.031,208.931 146.666,211.561 145.222,214.119C143.563,217.059 137.739,214.857 135.699,214.196C134.509,213.81 132.901,212.823 131.399,212.008" style="fill:none;stroke:black;stroke-width:0.33px;"/>
            </g>
            <g transform="matrix(1.18007,0,0,1,-24.2159,-41.7357)">
                <path d="M134.248,222.088C130.965,220.43 125.543,217.691 126.575,214.161C127.758,210.115 133.877,208.947 138.093,208.937C141.031,208.931 146.666,211.561 145.222,214.119C143.563,217.059 137.739,214.857 135.699,214.196C134.509,213.81 132.901,212.823 131.399,212.008" style="fill:none;stroke:black;stroke-width:0.33px;"/>
            </g>
            <g transform="matrix(1.18007,0,0,1,-23.9022,-50.1636)">
                <path d="M134.248,222.088C130.965,220.43 125.543,217.691 126.575,214.161C127.758,210.115 133.877,208.947 138.093,208.937C141.031,208.931 146.666,211.561 145.222,214.119C143.563,217.059 137.739,214.857 135.699,214.196C134.509,213.81 132.901,212.823 131.399,212.008" style="fill:none;stroke:black;stroke-width:0.33px;"/>
            </g>
        </g>
    </g>
    <g transform="matrix(0.691179,0,0,1.13661,76.9179,4.88472)">
        <rect x="185.89" y="67.535" width="224.785" height="38.996" style="stroke:black;stroke-width:0.43px;"/>
    </g>
    <g transform="matrix(1,0,0,1,-78.2023,-281.205)">
        <g transform="matrix(36,0,0,36,433.716,398.626)">
        </g>
        <text x="289.716px" y="398.626px" style="font-family:'YuKyo_Yoko-Bold', 'YuKyokasho Yoko';font-weight:700;font-size:36px;fill:white;">安定成層</text>
    </g>
    <g transform="matrix(1,0,0,-1,10.5846,192.32)">
        <path d="M195.172,91.195L147.611,115.665L195.062,101.044L195.172,91.195Z" style="stroke:black;stroke-width:0.4px;"/>
    </g>
</svg>
