<?xml version="1.0" encoding="UTF-8" standalone="no"?>
<!DOCTYPE svg PUBLIC "-//W3C//DTD SVG 1.1//EN" "http://www.w3.org/Graphics/SVG/1.1/DTD/svg11.dtd">
<svg width="100%" height="100%" viewBox="0 0 1080 1080" version="1.1" xmlns="http://www.w3.org/2000/svg" xmlns:xlink="http://www.w3.org/1999/xlink" xml:space="preserve" xmlns:serif="http://www.serif.com/" style="fill-rule:evenodd;clip-rule:evenodd;stroke-linecap:round;stroke-miterlimit:10;">
    <g transform="matrix(1,0,0,1,90.796,405.284)">
        <g transform="matrix(72,0,0,72,367.458,112.035)">
        </g>
        <text x="79.458px" y="112.035px" style="font-family:'YuKyo-Bold', 'YuKyokasho';font-weight:700;font-size:72px;fill:rgb(228,13,242);">電磁誘導</text>
    </g>
    <g transform="matrix(0.942687,0,0,0.907856,42.2388,59.1505)">
        <path d="M396.297,146.658C308.591,172.748 200.492,230.133 147.994,293.563C65.082,393.743 53.078,558.578 92.762,683.826C180.377,960.351 613.717,974.664 794.235,895.121C882.384,856.279 926.99,792.927 971.145,719.814C1068.21,559.084 1097.5,339.581 965.992,177.181C818.856,-4.521 489.328,118.984 396.297,146.658Z" style="fill:rgb(191,191,191);"/>
    </g>
    <g transform="matrix(1.9035e-17,-0.310865,0.373037,2.2842e-17,438.369,688.261)">
        <circle cx="473.572" cy="493.625" r="201.052" style="fill:rgb(140,140,140);"/>
        <path d="M442.283,308.66C433.593,310.169 425.068,305.514 423.257,298.272C421.447,291.03 427.033,283.925 435.723,282.417C448.021,280.282 460.668,279.169 473.572,279.169C486.477,279.169 499.123,280.282 511.421,282.417C520.111,283.925 525.697,291.03 523.887,298.272C522.077,305.514 513.551,310.169 504.861,308.66C494.695,306.896 484.24,305.976 473.572,305.976C462.904,305.976 452.45,306.896 442.283,308.66ZM587.695,346.07C581.283,340.954 581.061,332.462 587.2,327.119C593.339,321.775 603.529,321.591 609.941,326.707C627.38,340.62 642.624,357.177 655.031,375.784C659.342,382.251 656.543,390.418 648.783,394.011C641.023,397.604 631.223,395.271 626.911,388.804C616.113,372.609 602.873,358.179 587.695,346.07ZM656.584,466.284C655.523,458.94 661.817,452.259 670.631,451.375C679.444,450.491 687.461,455.737 688.522,463.081C689.962,473.056 690.709,483.254 690.709,493.625C690.709,503.995 689.962,514.193 688.522,524.168C687.461,531.512 679.444,536.757 670.631,535.873C661.817,534.989 655.523,528.309 656.584,520.964C657.873,512.036 658.54,502.908 658.54,493.625C658.54,484.341 657.873,475.213 656.584,466.284ZM626.911,598.445C631.223,591.979 641.023,589.646 648.783,593.239C656.543,596.832 659.342,604.999 655.031,611.465C642.624,630.072 627.38,646.63 609.941,660.543C603.529,665.659 593.339,665.474 587.2,660.131C581.061,654.787 581.283,646.296 587.695,641.18C602.873,629.07 616.113,614.641 626.911,598.445ZM504.861,678.589C513.551,677.08 522.077,681.735 523.887,688.977C525.697,696.219 520.111,703.324 511.421,704.833C499.123,706.967 486.477,708.08 473.572,708.08C460.668,708.08 448.022,706.967 435.724,704.833C427.034,703.324 421.448,696.22 423.258,688.977C425.068,681.735 433.593,677.08 442.284,678.589C452.45,680.354 462.905,681.273 473.572,681.273C484.24,681.273 494.695,680.354 504.861,678.589ZM359.449,641.18C365.861,646.295 366.083,654.787 359.944,660.13C353.805,665.474 343.615,665.659 337.203,660.543C319.765,646.63 304.52,630.072 292.114,611.465C287.802,604.999 290.602,596.832 298.361,593.239C306.121,589.646 315.921,591.979 320.233,598.445C331.031,614.64 344.271,629.07 359.449,641.18ZM290.561,520.965C291.621,528.31 285.327,534.99 276.514,535.874C267.7,536.758 259.683,531.513 258.623,524.168C257.182,514.194 256.436,503.996 256.436,493.625C256.436,483.254 257.182,473.056 258.623,463.082C259.683,455.737 267.7,450.492 276.513,451.376C285.327,452.26 291.621,458.94 290.56,466.285C289.271,475.213 288.604,484.342 288.604,493.625C288.604,502.908 289.271,512.036 290.561,520.965ZM320.233,388.804C315.921,395.271 306.121,397.603 298.361,394.011C290.602,390.418 287.802,382.251 292.114,375.784C304.52,357.177 319.765,340.619 337.203,326.706C343.615,321.591 353.805,321.775 359.944,327.119C366.083,332.462 365.862,340.954 359.449,346.07C344.271,358.179 331.031,372.609 320.233,388.804Z"/>
    </g>
    <g transform="matrix(0.99973,0.0804479,-0.023247,3.45964,151.676,-2364.42)">
        <g transform="matrix(0.99973,-0.023247,0.00671766,0.288891,-135.752,686.585)">
            <path d="M517.5,178.629L540,144.879L562.5,178.629" style="fill:none;stroke:rgb(147,13,242);stroke-width:10px;"/>
            <path d="M540,926.25L540,653.075C540,653.075 541.174,602.068 581.999,601.364C622.215,600.67 628.343,573.923 628.265,542.291C628.183,509.199 622.517,483.819 583.425,482.122C544.43,480.43 540,425.367 540,425.367L540,144.879" style="fill:none;stroke:rgb(147,13,242);stroke-width:10px;stroke-linejoin:round;stroke-miterlimit:1.5;"/>
        </g>
    </g>
    <g transform="matrix(1,0,0,1,82.5093,1.04395)">
        <g transform="matrix(1.04829,0.149271,-0.161851,0.989004,553.862,-104.474)">
            <g transform="matrix(0.932213,-0.1407,0.152557,0.988092,-577.454,191.736)">
                <path d="M757.877,591.044L802.877,621.044L757.877,651.044" style="fill:none;stroke:rgb(13,40,242);stroke-width:10px;"/>
                <path d="M593.128,621.044L802.877,621.044" style="fill:none;stroke:rgb(13,40,242);stroke-width:10px;stroke-linejoin:round;stroke-miterlimit:1.5;"/>
            </g>
        </g>
        <g transform="matrix(1.04829,0.149271,-0.161851,0.989004,553.862,-264.474)">
            <g transform="matrix(0.932213,-0.1407,0.152557,0.988092,-553.045,349.831)">
                <path d="M757.877,431.044L802.877,461.044L757.877,491.044" style="fill:none;stroke:rgb(13,40,242);stroke-width:10px;"/>
                <path d="M593.128,461.044L802.877,461.044" style="fill:none;stroke:rgb(13,40,242);stroke-width:10px;stroke-linejoin:round;stroke-miterlimit:1.5;"/>
            </g>
        </g>
        <g transform="matrix(2.04322,0.149271,-0.315463,0.989004,521.09,-184.474)">
            <g transform="matrix(0.478279,-0.0721871,0.152557,0.988092,-260.705,224.818)">
                <path d="M891.69,511.044L936.69,541.044L891.69,571.044" style="fill:none;stroke:rgb(13,40,242);stroke-width:10px;"/>
                <path d="M519.314,541.044L936.69,541.044" style="fill:none;stroke:rgb(13,40,242);stroke-width:10px;stroke-linejoin:round;stroke-miterlimit:1.5;"/>
            </g>
        </g>
    </g>
    <g>
        <g transform="matrix(-0.36432,0.149271,0.0562493,0.989004,616.691,-235.37)">
            <g transform="matrix(-2.68233,0.404847,0.152557,0.988092,1690.08,-17.0983)">
                <path d="M588.099,507.105L561.099,489.105L588.099,471.105" style="fill:none;stroke:rgb(228,13,242);stroke-width:6px;"/>
                <path d="M631.719,489.105L561.099,489.105" style="fill:none;stroke:rgb(228,13,242);stroke-width:6px;stroke-linejoin:round;stroke-miterlimit:1.5;"/>
            </g>
        </g>
        <g transform="matrix(0.36432,0.149271,-0.0562493,0.989004,571.437,-134.175)">
            <g transform="matrix(2.68233,-0.404847,0.152557,0.988092,-1512.31,363.922)">
                <path d="M600.028,572.299L627.028,590.299L600.028,608.299" style="fill:none;stroke:rgb(228,13,242);stroke-width:6px;"/>
                <path d="M556.408,590.299L627.028,590.299" style="fill:none;stroke:rgb(228,13,242);stroke-width:6px;stroke-linejoin:round;stroke-miterlimit:1.5;"/>
            </g>
        </g>
    </g>
    <g transform="matrix(0.707107,-0.707107,0.707107,0.707107,-223.317,540.396)">
        <g transform="matrix(0.788495,0,0,0.788495,441.133,-204.953)">
            <circle cx="126.207" cy="944.482" r="31.706" style="fill:white;stroke:rgb(242,175,13);stroke-width:5.07px;stroke-linejoin:round;stroke-miterlimit:1.5;"/>
        </g>
        <path d="M540.646,514.766L540.646,564.766" style="fill:none;"/>
        <clipPath id="_clip1">
            <path d="M540.646,514.766L540.646,564.766"/>
        </clipPath>
        <g clip-path="url(#_clip1)">
            <path d="M516.12,539.938L565.72,539.87" style="fill:none;stroke:black;stroke-width:4px;stroke-linejoin:round;stroke-miterlimit:1.5;"/>
        </g>
        <path d="M540.646,514.766L540.646,564.766" style="fill:none;stroke:rgb(242,175,13);stroke-width:4px;stroke-linejoin:round;stroke-miterlimit:1.5;"/>
        <path d="M515.685,539.759L565.668,539.66" style="fill:none;stroke:rgb(242,175,13);stroke-width:4px;stroke-linejoin:round;stroke-miterlimit:1.5;"/>
    </g>
    <g transform="matrix(0.424264,-0.424264,0.424264,0.424264,81.8489,460.155)">
        <g transform="matrix(0.788495,0,0,0.788495,441.133,-204.953)">
            <circle cx="126.207" cy="944.482" r="31.706" style="fill:white;stroke:rgb(242,175,13);stroke-width:8.45px;stroke-linejoin:round;stroke-miterlimit:1.5;"/>
        </g>
        <path d="M540.646,514.766L540.646,564.766" style="fill:none;"/>
        <clipPath id="_clip2">
            <path d="M540.646,514.766L540.646,564.766"/>
        </clipPath>
        <g clip-path="url(#_clip2)">
            <path d="M516.12,539.938L565.72,539.87" style="fill:none;stroke:black;stroke-width:6.67px;stroke-linejoin:round;stroke-miterlimit:1.5;"/>
        </g>
        <path d="M540.646,514.766L540.646,564.766" style="fill:none;stroke:rgb(242,175,13);stroke-width:6.67px;stroke-linejoin:round;stroke-miterlimit:1.5;"/>
        <path d="M515.685,539.759L565.668,539.66" style="fill:none;stroke:rgb(242,175,13);stroke-width:6.67px;stroke-linejoin:round;stroke-miterlimit:1.5;"/>
    </g>
    <g transform="matrix(0.424264,-0.424264,0.424264,0.424264,81.3415,620.853)">
        <g transform="matrix(0.788495,0,0,0.788495,441.133,-204.953)">
            <circle cx="126.207" cy="944.482" r="31.706" style="fill:white;stroke:rgb(242,175,13);stroke-width:8.45px;stroke-linejoin:round;stroke-miterlimit:1.5;"/>
        </g>
        <path d="M540.646,514.766L540.646,564.766" style="fill:none;"/>
        <clipPath id="_clip3">
            <path d="M540.646,514.766L540.646,564.766"/>
        </clipPath>
        <g clip-path="url(#_clip3)">
            <path d="M516.12,539.938L565.72,539.87" style="fill:none;stroke:black;stroke-width:6.67px;stroke-linejoin:round;stroke-miterlimit:1.5;"/>
        </g>
        <path d="M540.646,514.766L540.646,564.766" style="fill:none;stroke:rgb(242,175,13);stroke-width:6.67px;stroke-linejoin:round;stroke-miterlimit:1.5;"/>
        <path d="M515.685,539.759L565.668,539.66" style="fill:none;stroke:rgb(242,175,13);stroke-width:6.67px;stroke-linejoin:round;stroke-miterlimit:1.5;"/>
    </g>
    <g transform="matrix(1.25555,0,0,1.25555,-149.929,-211.974)">
        <g transform="matrix(1,0,0,1.14535,12.0195,-109.511)">
            <rect x="226.17" y="773.445" width="624.235" height="125.17"/>
        </g>
        <g transform="matrix(1.01671,0.00358207,-0.00311915,0.999998,-3.11178,-40.8924)">
            <path d="M261.804,938.179L834.457,936.128" style="fill:none;stroke:rgb(229,242,13);stroke-width:3.16px;stroke-linejoin:round;stroke-miterlimit:1.5;stroke-dasharray:6.32,9.48,0,0,0,0;"/>
        </g>
        <g transform="matrix(1,0,0,1,184.572,763.905)">
            <g transform="matrix(96,0,0,96,655.458,112.035)">
            </g>
            <text x="79.458px" y="112.035px" style="font-family:'YuKyo-Bold', 'YuKyokasho';font-weight:700;font-size:96px;fill:rgb(229,242,13);">磁力線の凍結</text>
        </g>
    </g>
</svg>
