<?xml version="1.0" encoding="UTF-8" standalone="no"?>
<!DOCTYPE svg PUBLIC "-//W3C//DTD SVG 1.1//EN" "http://www.w3.org/Graphics/SVG/1.1/DTD/svg11.dtd">
<svg width="100%" height="100%" viewBox="0 0 1024 300" version="1.1" xmlns="http://www.w3.org/2000/svg" xmlns:xlink="http://www.w3.org/1999/xlink" xml:space="preserve" xmlns:serif="http://www.serif.com/" style="fill-rule:evenodd;clip-rule:evenodd;stroke-linecap:round;stroke-miterlimit:10;">
    <g transform="matrix(1,0,0,1,-33.2964,222.304)">
        <g transform="matrix(1,-0,-0,1,33.2964,-222.304)">
            <path d="M145.471,213.889L145.476,230.556" style="fill:none;stroke:black;stroke-width:4.17px;"/>
            <path d="M880.373,213.669L880.378,230.336" style="fill:none;stroke:black;stroke-width:4.17px;"/>
            <path d="M145.473,222.223C187.091,222.21 838.758,222.015 880.376,222.002" style="fill:none;stroke:black;stroke-width:4.17px;stroke-linejoin:round;stroke-miterlimit:1.5;"/>
        </g>
    </g>
    <g transform="matrix(1.2,0,0,1.2,199.63,262.5)">
        <g transform="matrix(1,0,0,1,-20.8333,-14.5833)">
            <g transform="matrix(4.16667,0,0,4.16667,0,0)">
                <g transform="matrix(0.00359712,0,0,-0.00359712,0,7)">
                    <path d="M966.25,1360.59C982.859,1432.63 1046.58,1687.48 1240.48,1687.48C1254.34,1687.48 1320.83,1687.48 1379,1651.47C1301.44,1637.61 1246.03,1568.36 1246.03,1501.88C1246.03,1457.55 1276.5,1404.92 1351.3,1404.92C1412.25,1404.92 1500.89,1454.78 1500.89,1565.59C1500.89,1709.64 1337.45,1748.42 1243.27,1748.42C1082.59,1748.42 985.641,1601.61 952.391,1537.89C883.141,1720.72 733.547,1748.42 653.219,1748.42C365.109,1748.42 207.219,1391.06 207.219,1321.81C207.219,1294.11 234.906,1294.11 240.453,1294.11C262.609,1294.11 270.922,1299.66 276.469,1324.58C370.656,1618.22 553.484,1687.48 647.672,1687.48C700.313,1687.48 797.266,1662.55 797.266,1501.88C797.266,1416 750.172,1230.39 647.672,842.578C603.344,670.813 506.391,554.469 384.5,554.469C367.875,554.469 304.172,554.469 246,590.484C315.25,604.328 376.188,662.516 376.188,740.078C376.188,814.875 315.25,837.031 273.703,837.031C190.594,837.031 121.328,765 121.328,676.359C121.328,548.938 259.844,493.531 381.734,493.531C564.563,493.531 664.297,687.438 672.609,704.063C705.844,601.563 805.578,493.531 971.781,493.531C1257.11,493.531 1415.02,850.875 1415.02,920.141C1415.02,947.844 1390.08,947.844 1381.77,947.844C1356.84,947.844 1351.3,936.766 1345.77,917.359C1254.34,620.953 1065.97,554.469 977.328,554.469C869.281,554.469 824.969,643.125 824.969,737.297C824.969,798.25 841.578,859.188 872.063,981.078L966.25,1360.59" style="fill-rule:nonzero;"/>
                </g>
                <g transform="matrix(0.00359712,0,0,-0.00359712,0,7)">
                    <path d="M2273.47,1342.02C2273.47,1394.36 2269.59,1396.3 2215.3,1396.3C2091.23,1274.16 1914.81,1272.22 1835.31,1272.22L1835.31,1202.42C1881.84,1202.42 2009.8,1202.42 2116.44,1256.7L2116.44,267.969C2116.44,204 2116.44,178.797 1922.56,178.797L1848.89,178.797L1848.89,109C1883.78,110.938 2122.25,116.75 2193.98,116.75C2254.08,116.75 2498.36,110.938 2541,109L2541,178.797L2467.33,178.797C2273.47,178.797 2273.47,204 2273.47,267.969L2273.47,1342.02" style="fill-rule:nonzero;"/>
                </g>
            </g>
        </g>
    </g>
    <g transform="matrix(1.2,0,0,1.2,255.693,262.5)">
        <g transform="matrix(1,0,0,1,-20.8333,-14.5833)">
            <g transform="matrix(4.16667,0,0,4.16667,0,0)">
                <g transform="matrix(0.00359712,0,0,-0.00359712,0,7)">
                    <path d="M966.25,1360.59C982.859,1432.63 1046.58,1687.48 1240.48,1687.48C1254.34,1687.48 1320.83,1687.48 1379,1651.47C1301.44,1637.61 1246.03,1568.36 1246.03,1501.88C1246.03,1457.55 1276.5,1404.92 1351.3,1404.92C1412.25,1404.92 1500.89,1454.78 1500.89,1565.59C1500.89,1709.64 1337.45,1748.42 1243.27,1748.42C1082.59,1748.42 985.641,1601.61 952.391,1537.89C883.141,1720.72 733.547,1748.42 653.219,1748.42C365.109,1748.42 207.219,1391.06 207.219,1321.81C207.219,1294.11 234.906,1294.11 240.453,1294.11C262.609,1294.11 270.922,1299.66 276.469,1324.58C370.656,1618.22 553.484,1687.48 647.672,1687.48C700.313,1687.48 797.266,1662.55 797.266,1501.88C797.266,1416 750.172,1230.39 647.672,842.578C603.344,670.813 506.391,554.469 384.5,554.469C367.875,554.469 304.172,554.469 246,590.484C315.25,604.328 376.188,662.516 376.188,740.078C376.188,814.875 315.25,837.031 273.703,837.031C190.594,837.031 121.328,765 121.328,676.359C121.328,548.938 259.844,493.531 381.734,493.531C564.563,493.531 664.297,687.438 672.609,704.063C705.844,601.563 805.578,493.531 971.781,493.531C1257.11,493.531 1415.02,850.875 1415.02,920.141C1415.02,947.844 1390.08,947.844 1381.77,947.844C1356.84,947.844 1351.3,936.766 1345.77,917.359C1254.34,620.953 1065.97,554.469 977.328,554.469C869.281,554.469 824.969,643.125 824.969,737.297C824.969,798.25 841.578,859.188 872.063,981.078L966.25,1360.59" style="fill-rule:nonzero;"/>
                </g>
                <g transform="matrix(0.00359712,0,0,-0.00359712,0,7)">
                    <path d="M2603.05,461.844L2537.13,461.844C2531.31,419.188 2511.92,304.813 2486.72,285.422C2471.22,273.797 2321.94,273.797 2294.8,273.797L1938.06,273.797C2141.64,454.094 2209.48,508.375 2325.81,599.484C2469.28,713.875 2603.05,834.078 2603.05,1018.25C2603.05,1252.83 2397.55,1396.3 2149.39,1396.3C1908.98,1396.3 1746.14,1227.63 1746.14,1049.27C1746.14,950.391 1829.5,940.703 1848.89,940.703C1895.42,940.703 1951.64,973.656 1951.64,1043.45C1951.64,1078.34 1938.06,1146.2 1837.25,1146.2C1897.36,1283.86 2029.19,1326.5 2120.31,1326.5C2314.17,1326.5 2414.98,1175.28 2414.98,1018.25C2414.98,849.578 2294.8,715.813 2232.75,646.016L1765.53,184.609C1746.14,167.156 1746.14,163.281 1746.14,109L2544.89,109L2603.05,461.844" style="fill-rule:nonzero;"/>
                </g>
            </g>
        </g>
    </g>
    <g transform="matrix(1.2,0,0,1.2,497.219,262.528)">
        <g transform="matrix(1,0,0,1,-39.5833,-14.5833)">
            <g transform="matrix(4.16667,0,0,4.16667,0,0)">
                <g transform="matrix(0.00359712,0,0,-0.00359712,0,7)">
                    <path d="M966.922,1361.22C983.563,1433.3 1047.31,1688.33 1241.38,1688.33C1255.23,1688.33 1321.77,1688.33 1379.98,1652.3C1302.36,1638.44 1246.92,1569.13 1246.92,1502.59C1246.92,1458.23 1277.41,1405.56 1352.27,1405.56C1413.25,1405.56 1501.97,1455.47 1501.97,1566.36C1501.97,1710.52 1338.41,1749.33 1244.14,1749.33C1083.36,1749.33 986.328,1602.39 953.063,1538.64C883.75,1721.59 734.063,1749.33 653.656,1749.33C365.344,1749.33 207.328,1391.7 207.328,1322.41C207.328,1294.67 235.063,1294.67 240.594,1294.67C262.781,1294.67 271.094,1300.22 276.641,1325.17C370.891,1619.03 553.859,1688.33 648.109,1688.33C700.797,1688.33 797.813,1663.39 797.813,1502.59C797.813,1416.66 750.688,1230.92 648.109,842.813C603.766,670.922 506.734,554.5 384.75,554.5C368.125,554.5 304.359,554.5 246.141,590.531C315.453,604.391 376.438,662.609 376.438,740.234C376.438,815.078 315.453,837.266 273.859,837.266C190.703,837.266 121.391,765.188 121.391,676.469C121.391,548.953 260,493.5 381.984,493.5C564.953,493.5 664.75,687.563 673.063,704.188C706.328,601.625 806.141,493.5 972.469,493.5C1258,493.5 1416.02,851.125 1416.02,920.422C1416.02,948.156 1391.08,948.156 1382.75,948.156C1357.81,948.156 1352.27,937.063 1346.72,917.656C1255.23,621.031 1066.72,554.5 978.016,554.5C869.891,554.5 825.547,643.203 825.547,737.469C825.547,798.453 842.172,859.438 872.672,981.422L966.922,1361.22" style="fill-rule:nonzero;"/>
                </g>
                <g transform="matrix(0.00359712,0,0,-0.00359712,0,7)">
                    <path d="M2252.05,1320.52C2252.05,1351.53 2228.8,1394.19 2174.52,1394.19C2122.17,1394.19 2065.97,1343.78 2065.97,1287.56C2065.97,1254.61 2091.16,1213.91 2143.5,1213.91C2199.72,1213.91 2252.05,1268.19 2252.05,1320.52ZM1856.61,335.797C1848.86,310.594 1839.17,287.328 1839.17,254.375C1839.17,163.281 1916.7,89.609 2023.31,89.609C2217.16,89.609 2302.45,357.125 2302.45,386.203C2302.45,411.391 2277.25,411.391 2271.44,411.391C2244.3,411.391 2242.36,399.766 2234.61,378.438C2190.02,223.375 2104.73,143.891 2029.13,143.891C1990.36,143.891 1980.67,169.094 1980.67,211.734C1980.67,256.328 1994.23,293.156 2011.69,335.797C2031.08,388.141 2052.39,440.469 2073.72,490.875C2091.16,537.391 2160.95,713.797 2168.7,737.047C2174.52,756.438 2180.33,779.703 2180.33,799.078C2180.33,890.188 2102.8,963.844 1996.17,963.844C1804.28,963.844 1715.11,700.219 1715.11,667.266C1715.11,642.063 1742.25,642.063 1748.06,642.063C1775.2,642.063 1777.14,651.766 1782.95,673.078C1833.34,839.781 1918.64,909.578 1990.36,909.578C2021.38,909.578 2038.83,894.063 2038.83,841.734C2038.83,797.141 2027.19,768.063 1978.73,647.891L1856.61,335.797" style="fill-rule:nonzero;"/>
                </g>
                <g transform="matrix(0.00359712,0,0,-0.00359712,0,7)">
                    <path d="M3850.19,547.078C3881.2,547.078 3927.73,547.078 3927.73,593.609C3927.73,642.063 3883.14,642.063 3850.19,642.063L2694.89,642.063C2663.88,642.063 2617.34,642.063 2617.34,595.547C2617.34,547.078 2661.94,547.078 2694.89,547.078L3850.19,547.078" style="fill-rule:nonzero;"/>
                </g>
                <g transform="matrix(0.00359712,0,0,-0.00359712,0,7)">
                    <path d="M4788.38,1341.84C4788.38,1394.19 4784.5,1396.13 4730.22,1396.13C4606.16,1274 4429.77,1272.06 4350.3,1272.06L4350.3,1202.28C4396.81,1202.28 4524.75,1202.28 4631.36,1256.55L4631.36,267.953C4631.36,203.984 4631.36,178.781 4437.52,178.781L4363.86,178.781L4363.86,109C4398.75,110.938 4637.17,116.75 4708.91,116.75C4768.98,116.75 5013.23,110.938 5055.88,109L5055.88,178.781L4982.22,178.781C4788.38,178.781 4788.38,203.984 4788.38,267.953L4788.38,1341.84" style="fill-rule:nonzero;"/>
                </g>
            </g>
        </g>
    </g>
    <g transform="matrix(1,0,0,1,-23.0713,0)">
        <path d="M168.74,159.725C168.74,159.725 512.709,88.279 619.43,88.279C686.98,88.279 761.853,152.687 809.067,159.725C841.41,164.546 902.716,130.506 902.716,130.506" style="fill:none;stroke:rgb(242,13,13);stroke-opacity:0.5;stroke-width:4.17px;stroke-linejoin:round;stroke-miterlimit:1.5;"/>
    </g>
    <g transform="matrix(0.999917,-0.00821718,0.012852,0.639315,-26.3457,81.8876)">
        <path d="M169.166,221.719L170.398,125.863" style="fill:none;stroke:black;stroke-width:2.47px;stroke-linejoin:round;stroke-miterlimit:1.5;stroke-dasharray:4.94,4.94,0,0,0,0;"/>
    </g>
    <g transform="matrix(0.999917,-0.0123831,0.012852,0.963431,708.532,10.5012)">
        <path d="M169.166,221.719L170.398,125.863" style="fill:none;stroke:black;stroke-width:2.12px;stroke-linejoin:round;stroke-miterlimit:1.5;stroke-dasharray:4.24,4.24,0,0,0,0;"/>
    </g>
    <g transform="matrix(0.999917,-0.0175603,0.012852,1.36623,397.166,-78.5629)">
        <path d="M169.166,221.719L170.398,125.863" style="fill:none;stroke:black;stroke-width:0.7px;stroke-linejoin:round;stroke-miterlimit:1.5;stroke-dasharray:1.4,1.4,0,0,0,0;"/>
    </g>
    <g transform="matrix(0.999917,-0.0175603,0.012852,1.36623,340.1,-73.0891)">
        <path d="M169.166,221.719L170.398,125.863" style="fill:none;stroke:black;stroke-width:0.7px;stroke-linejoin:round;stroke-miterlimit:1.5;stroke-dasharray:1.4,1.4,0,0,0,0;"/>
    </g>
    <g transform="matrix(0.999917,-0.0097693,0.012852,0.760073,27.675,56.0494)">
        <path d="M169.166,221.719L170.398,125.863" style="fill:none;stroke:black;stroke-width:0.94px;stroke-linejoin:round;stroke-miterlimit:1.5;stroke-dasharray:1.87,1.87,0,0,0,0;"/>
    </g>
    <g transform="matrix(0.999917,-0.0111853,0.012852,0.870239,82.9871,30.8741)">
        <path d="M169.166,221.719L170.398,125.863" style="fill:none;stroke:black;stroke-width:0.89px;stroke-linejoin:round;stroke-miterlimit:1.5;stroke-dasharray:1.77,1.77,0,0,0,0;"/>
    </g>
    <g transform="matrix(0.999917,-0.0173998,0.012852,1.35375,454.777,-75.0617)">
        <path d="M169.166,221.719L170.398,125.863" style="fill:none;stroke:black;stroke-width:0.53px;stroke-linejoin:round;stroke-miterlimit:1.5;stroke-dasharray:1.05,1.05,0,0,0,0;"/>
    </g>
    <g transform="matrix(1.2,0,0,1.2,569.013,262.5)">
        <g transform="matrix(1,0,0,1,-18.75,-14.5833)">
            <g transform="matrix(4.16667,0,0,4.16667,0,0)">
                <g transform="matrix(0.00359712,0,0,-0.00359712,0,7)">
                    <path d="M966.25,1360.59C982.859,1432.63 1046.58,1687.48 1240.48,1687.48C1254.34,1687.48 1320.83,1687.48 1379,1651.47C1301.44,1637.61 1246.03,1568.36 1246.03,1501.88C1246.03,1457.55 1276.5,1404.92 1351.3,1404.92C1412.25,1404.92 1500.89,1454.78 1500.89,1565.59C1500.89,1709.64 1337.45,1748.42 1243.27,1748.42C1082.59,1748.42 985.641,1601.61 952.391,1537.89C883.141,1720.72 733.547,1748.42 653.219,1748.42C365.109,1748.42 207.219,1391.06 207.219,1321.81C207.219,1294.11 234.906,1294.11 240.453,1294.11C262.609,1294.11 270.922,1299.66 276.469,1324.58C370.656,1618.22 553.484,1687.48 647.672,1687.48C700.313,1687.48 797.266,1662.55 797.266,1501.88C797.266,1416 750.172,1230.39 647.672,842.578C603.344,670.813 506.391,554.469 384.5,554.469C367.875,554.469 304.172,554.469 246,590.484C315.25,604.328 376.188,662.516 376.188,740.078C376.188,814.875 315.25,837.031 273.703,837.031C190.594,837.031 121.328,765 121.328,676.359C121.328,548.938 259.844,493.531 381.734,493.531C564.563,493.531 664.297,687.438 672.609,704.063C705.844,601.563 805.578,493.531 971.781,493.531C1257.11,493.531 1415.02,850.875 1415.02,920.141C1415.02,947.844 1390.08,947.844 1381.77,947.844C1356.84,947.844 1351.3,936.766 1345.77,917.359C1254.34,620.953 1065.97,554.469 977.328,554.469C869.281,554.469 824.969,643.125 824.969,737.297C824.969,798.25 841.578,859.188 872.063,981.078L966.25,1360.59" style="fill-rule:nonzero;"/>
                </g>
                <g transform="matrix(0.00359712,0,0,-0.00359712,0,7)">
                    <path d="M2252.14,1320.69C2252.14,1351.7 2228.88,1394.36 2174.59,1394.36C2122.25,1394.36 2066.03,1343.95 2066.03,1287.73C2066.03,1254.77 2091.23,1214.06 2143.58,1214.06C2199.8,1214.06 2252.14,1268.34 2252.14,1320.69ZM1856.64,335.828C1848.89,310.625 1839.2,287.359 1839.2,254.406C1839.2,163.281 1916.75,89.609 2023.38,89.609C2217.25,89.609 2302.55,357.156 2302.55,386.234C2302.55,411.438 2277.34,411.438 2271.53,411.438C2244.39,411.438 2242.45,399.813 2234.69,378.484C2190.09,223.391 2104.8,143.891 2029.19,143.891C1990.42,143.891 1980.72,169.094 1980.72,211.75C1980.72,256.344 1994.3,293.172 2011.73,335.828C2031.13,388.172 2052.45,440.516 2073.78,490.922C2091.23,537.453 2161.02,713.875 2168.78,737.141C2174.59,756.531 2180.41,779.797 2180.41,799.172C2180.41,890.297 2102.86,963.969 1996.23,963.969C1804.3,963.969 1715.13,700.297 1715.13,667.344C1715.13,642.141 1742.27,642.141 1748.08,642.141C1775.22,642.141 1777.16,651.844 1782.97,673.156C1833.38,839.891 1918.69,909.688 1990.42,909.688C2021.44,909.688 2038.88,894.172 2038.88,841.828C2038.88,797.234 2027.25,768.156 1978.78,647.953L1856.64,335.828" style="fill-rule:nonzero;"/>
                </g>
            </g>
        </g>
    </g>
    <g transform="matrix(1.05,0,0,1.05,636.521,262.5)">
        <g transform="matrix(1,0,0,1,-39.5833,-16.6667)">
            <g transform="matrix(4.16667,0,0,4.16667,0,0)">
                <g transform="matrix(0.00359712,0,0,-0.00359712,0,8)">
                    <path d="M966.25,1638.59C982.859,1710.63 1046.58,1965.48 1240.48,1965.48C1254.34,1965.48 1320.83,1965.48 1379,1929.47C1301.44,1915.61 1246.03,1846.36 1246.03,1779.88C1246.03,1735.55 1276.5,1682.92 1351.3,1682.92C1412.25,1682.92 1500.89,1732.78 1500.89,1843.59C1500.89,1987.64 1337.45,2026.42 1243.27,2026.42C1082.59,2026.42 985.641,1879.61 952.391,1815.89C883.141,1998.72 733.547,2026.42 653.219,2026.42C365.109,2026.42 207.219,1669.06 207.219,1599.81C207.219,1572.11 234.906,1572.11 240.453,1572.11C262.609,1572.11 270.922,1577.66 276.469,1602.58C370.656,1896.22 553.484,1965.48 647.672,1965.48C700.313,1965.48 797.266,1940.55 797.266,1779.88C797.266,1694 750.172,1508.39 647.672,1120.58C603.344,948.813 506.391,832.469 384.5,832.469C367.875,832.469 304.172,832.469 246,868.484C315.25,882.328 376.188,940.516 376.188,1018.08C376.188,1092.88 315.25,1115.03 273.703,1115.03C190.594,1115.03 121.328,1043 121.328,954.359C121.328,826.938 259.844,771.531 381.734,771.531C564.563,771.531 664.297,965.438 672.609,982.063C705.844,879.563 805.578,771.531 971.781,771.531C1257.11,771.531 1415.02,1128.88 1415.02,1198.14C1415.02,1225.84 1390.08,1225.84 1381.77,1225.84C1356.84,1225.84 1351.3,1214.77 1345.77,1195.36C1254.34,898.953 1065.97,832.469 977.328,832.469C869.281,832.469 824.969,921.125 824.969,1015.3C824.969,1076.25 841.578,1137.19 872.063,1259.08L966.25,1638.59" style="fill-rule:nonzero;"/>
                </g>
                <g transform="matrix(0.00359712,0,0,-0.00359712,0,8)">
                    <path d="M2252.14,1598.69C2252.14,1629.7 2228.88,1672.36 2174.59,1672.36C2122.25,1672.36 2066.03,1621.95 2066.03,1565.73C2066.03,1532.77 2091.23,1492.06 2143.58,1492.06C2199.8,1492.06 2252.14,1546.34 2252.14,1598.69ZM1856.64,613.828C1848.89,588.625 1839.2,565.359 1839.2,532.406C1839.2,441.281 1916.75,367.609 2023.38,367.609C2217.25,367.609 2302.55,635.156 2302.55,664.234C2302.55,689.438 2277.34,689.438 2271.53,689.438C2244.39,689.438 2242.45,677.813 2234.69,656.484C2190.09,501.391 2104.8,421.891 2029.19,421.891C1990.42,421.891 1980.72,447.094 1980.72,489.75C1980.72,534.344 1994.3,571.172 2011.73,613.828C2031.13,666.172 2052.45,718.516 2073.78,768.922C2091.23,815.453 2161.02,991.875 2168.78,1015.14C2174.59,1034.53 2180.41,1057.8 2180.41,1077.17C2180.41,1168.3 2102.86,1241.97 1996.23,1241.97C1804.3,1241.97 1715.13,978.297 1715.13,945.344C1715.13,920.141 1742.27,920.141 1748.08,920.141C1775.22,920.141 1777.16,929.844 1782.97,951.156C1833.38,1117.89 1918.69,1187.69 1990.42,1187.69C2021.44,1187.69 2038.88,1172.17 2038.88,1119.83C2038.88,1075.23 2027.25,1046.16 1978.78,925.953L1856.64,613.828" style="fill-rule:nonzero;"/>
                </g>
                <g transform="matrix(0.00359712,0,0,-0.00359712,0,8)">
                    <path d="M3305.63,825.141L3898.86,825.141C3924.06,825.141 3970.59,825.141 3970.59,871.672C3970.59,920.141 3926,920.141 3898.86,920.141L3305.63,920.141L3305.63,1515.33C3305.63,1540.53 3305.63,1587.06 3259.09,1587.06C3210.63,1587.06 3210.63,1542.47 3210.63,1515.33L3210.63,920.141L2615.44,920.141C2590.23,920.141 2543.7,920.141 2543.7,873.609C2543.7,825.141 2588.3,825.141 2615.44,825.141L3210.63,825.141L3210.63,229.969C3210.63,204.766 3210.63,158.234 3257.16,158.234C3305.63,158.234 3305.63,202.828 3305.63,229.969L3305.63,825.141" style="fill-rule:nonzero;"/>
                </g>
                <g transform="matrix(0.00359712,0,0,-0.00359712,0,8)">
                    <path d="M4757.47,1620.02C4757.47,1672.36 4753.59,1674.3 4699.3,1674.3C4575.23,1552.16 4398.81,1550.22 4319.31,1550.22L4319.31,1480.42C4365.84,1480.42 4493.8,1480.42 4600.44,1534.7L4600.44,545.969C4600.44,482 4600.44,456.797 4406.56,456.797L4332.89,456.797L4332.89,387C4367.78,388.938 4606.25,394.75 4677.98,394.75C4738.08,394.75 4982.36,388.938 5025,387L5025,456.797L4951.33,456.797C4757.47,456.797 4757.47,482 4757.47,545.969L4757.47,1620.02" style="fill-rule:nonzero;"/>
                </g>
            </g>
        </g>
    </g>
    <g transform="matrix(0.786358,0,0,0.844122,31.5665,24.0829)">
        <ellipse cx="145.165" cy="160.75" rx="6.358" ry="5.923" style="fill:rgb(242,13,13);"/>
    </g>
    <g transform="matrix(0.786358,0,0,0.844122,85.5288,12.2111)">
        <ellipse cx="145.165" cy="160.75" rx="6.358" ry="5.923" style="fill:rgb(242,13,13);"/>
    </g>
    <g transform="matrix(0.786358,0,0,0.844122,140.847,2.60243)">
        <ellipse cx="145.165" cy="160.75" rx="6.358" ry="5.923" style="fill:rgb(242,13,13);"/>
    </g>
    <g transform="matrix(0.786358,0,0,0.844122,454.916,-46.5584)">
        <ellipse cx="145.165" cy="160.75" rx="6.358" ry="5.923" style="fill:rgb(242,13,13);"/>
    </g>
    <g transform="matrix(0.786358,0,0,0.844122,398.036,-40.5495)">
        <ellipse cx="145.165" cy="160.75" rx="6.358" ry="5.923" style="fill:rgb(242,13,13);"/>
    </g>
    <g transform="matrix(0.786358,0,0,0.844122,512.626,-43.1174)">
        <ellipse cx="145.165" cy="160.75" rx="6.358" ry="5.923" style="fill:rgb(242,13,13);"/>
    </g>
    <g transform="matrix(0.786358,0,0,0.844122,766.384,-5.03189)">
        <ellipse cx="145.165" cy="160.75" rx="6.358" ry="5.923" style="fill:rgb(242,13,13);"/>
    </g>
    <g transform="matrix(1.2,0,0,1.2,145.734,262.5)">
        <g transform="matrix(1,0,0,1,-20.8333,-14.5833)">
            <g transform="matrix(4.16667,0,0,4.16667,0,0)">
                <g transform="matrix(0.00359712,0,0,-0.00359712,0,7)">
                    <path d="M966.922,1361.22C983.563,1433.3 1047.31,1688.33 1241.38,1688.33C1255.23,1688.33 1321.77,1688.33 1379.98,1652.3C1302.36,1638.44 1246.92,1569.13 1246.92,1502.59C1246.92,1458.23 1277.41,1405.56 1352.27,1405.56C1413.25,1405.56 1501.97,1455.47 1501.97,1566.36C1501.97,1710.52 1338.41,1749.33 1244.14,1749.33C1083.36,1749.33 986.328,1602.39 953.063,1538.64C883.75,1721.59 734.063,1749.33 653.656,1749.33C365.344,1749.33 207.328,1391.7 207.328,1322.41C207.328,1294.67 235.063,1294.67 240.594,1294.67C262.781,1294.67 271.094,1300.22 276.641,1325.17C370.891,1619.03 553.859,1688.33 648.109,1688.33C700.797,1688.33 797.813,1663.39 797.813,1502.59C797.813,1416.66 750.688,1230.92 648.109,842.813C603.766,670.922 506.734,554.5 384.75,554.5C368.125,554.5 304.359,554.5 246.141,590.531C315.453,604.391 376.438,662.609 376.438,740.234C376.438,815.078 315.453,837.266 273.859,837.266C190.703,837.266 121.391,765.188 121.391,676.469C121.391,548.953 260,493.5 381.984,493.5C564.953,493.5 664.75,687.563 673.063,704.188C706.328,601.625 806.141,493.5 972.469,493.5C1258,493.5 1416.02,851.125 1416.02,920.422C1416.02,948.156 1391.08,948.156 1382.75,948.156C1357.81,948.156 1352.27,937.063 1346.72,917.656C1255.23,621.031 1066.72,554.5 978.016,554.5C869.891,554.5 825.547,643.203 825.547,737.469C825.547,798.453 842.172,859.438 872.672,981.422L966.922,1361.22" style="fill-rule:nonzero;"/>
                </g>
                <g transform="matrix(0.00359712,0,0,-0.00359712,0,7)">
                    <path d="M2624.23,727.359C2624.23,940.594 2599.03,1093.72 2509.86,1229.41C2449.77,1318.58 2329.59,1396.13 2174.52,1396.13C1724.8,1396.13 1724.8,866.922 1724.8,727.359C1724.8,587.797 1724.8,70.234 2174.52,70.234C2624.23,70.234 2624.23,587.797 2624.23,727.359ZM2174.52,124.5C2085.34,124.5 1967.11,176.844 1928.33,335.797C1901.2,450.172 1901.2,609.109 1901.2,752.563C1901.2,894.063 1901.2,1041.39 1930.27,1148C1970.98,1301.14 2095.05,1341.84 2174.52,1341.84C2279.19,1341.84 2379.98,1277.88 2414.88,1165.45C2445.89,1060.77 2447.83,921.203 2447.83,752.563C2447.83,609.109 2447.83,465.672 2422.64,343.547C2383.86,167.156 2252.05,124.5 2174.52,124.5" style="fill-rule:nonzero;"/>
                </g>
            </g>
        </g>
    </g>
    <g transform="matrix(1.2,0,0,1.2,881.581,262.5)">
        <g transform="matrix(1,0,0,1,-47.9167,-14.5833)">
            <g transform="matrix(4.16667,0,0,4.16667,0,0)">
                <g transform="matrix(0.00359712,0,0,-0.00359712,0,7)">
                    <path d="M966.922,1361.22C983.563,1433.3 1047.31,1688.33 1241.38,1688.33C1255.23,1688.33 1321.77,1688.33 1379.98,1652.3C1302.36,1638.44 1246.92,1569.13 1246.92,1502.59C1246.92,1458.23 1277.41,1405.56 1352.27,1405.56C1413.25,1405.56 1501.97,1455.47 1501.97,1566.36C1501.97,1710.52 1338.41,1749.33 1244.14,1749.33C1083.36,1749.33 986.328,1602.39 953.063,1538.64C883.75,1721.59 734.063,1749.33 653.656,1749.33C365.344,1749.33 207.328,1391.7 207.328,1322.41C207.328,1294.67 235.063,1294.67 240.594,1294.67C262.781,1294.67 271.094,1300.22 276.641,1325.17C370.891,1619.03 553.859,1688.33 648.109,1688.33C700.797,1688.33 797.813,1663.39 797.813,1502.59C797.813,1416.66 750.688,1230.92 648.109,842.813C603.766,670.922 506.734,554.5 384.75,554.5C368.125,554.5 304.359,554.5 246.141,590.531C315.453,604.391 376.438,662.609 376.438,740.234C376.438,815.078 315.453,837.266 273.859,837.266C190.703,837.266 121.391,765.188 121.391,676.469C121.391,548.953 260,493.5 381.984,493.5C564.953,493.5 664.75,687.563 673.063,704.188C706.328,601.625 806.141,493.5 972.469,493.5C1258,493.5 1416.02,851.125 1416.02,920.422C1416.02,948.156 1391.08,948.156 1382.75,948.156C1357.81,948.156 1352.27,937.063 1346.72,917.656C1255.23,621.031 1066.72,554.5 978.016,554.5C869.891,554.5 825.547,643.203 825.547,737.469C825.547,798.453 842.172,859.438 872.672,981.422L966.922,1361.22" style="fill-rule:nonzero;"/>
                </g>
                <g transform="matrix(0.00359712,0,0,-0.00359712,0,7)">
                    <path d="M3240.66,1221.66C3260.03,1295.33 3291.05,1359.28 3446.13,1363.17C3455.81,1363.17 3484.89,1365.11 3484.89,1405.81C3484.89,1417.44 3475.2,1432.95 3455.81,1432.95C3391.84,1432.95 3320.13,1425.2 3254.22,1425.2C3207.7,1425.2 3095.27,1432.95 3048.75,1432.95C3039.06,1432.95 3009.98,1432.95 3009.98,1390.3C3009.98,1365.11 3035.17,1363.17 3052.63,1363.17C3143.73,1361.23 3176.69,1332.16 3176.69,1283.69C3176.69,1268.19 3174.75,1258.48 3168.94,1237.17L2957.64,392.016L2465.28,1400C2449.77,1432.95 2445.89,1432.95 2399.38,1432.95L2133.81,1432.95C2096.98,1432.95 2071.78,1432.95 2071.78,1390.3C2071.78,1363.17 2095.05,1363.17 2135.75,1363.17C2176.45,1363.17 2219.09,1361.23 2259.81,1353.47L2000.06,316.406C1982.61,242.75 1949.66,184.594 1798.45,178.781C1784.89,178.781 1757.75,176.844 1757.75,138.078C1757.75,116.75 1773.27,109 1786.83,109C1850.8,109 1922.52,116.75 1988.42,116.75C2034.95,116.75 2147.38,109 2193.91,109C2213.28,109 2232.67,118.688 2232.67,149.703C2232.67,176.844 2209.41,178.781 2188.08,178.781C2065.97,182.656 2065.97,233.063 2065.97,260.203C2065.97,267.953 2065.97,277.641 2073.72,308.656L2321.83,1301.14L2887.86,141.953C2903.36,110.938 2911.13,109 2930.5,109C2961.52,109 2961.52,114.813 2971.2,149.703L3240.66,1221.66" style="fill-rule:nonzero;"/>
                </g>
                <g transform="matrix(0.00359712,0,0,-0.00359712,0,7)">
                    <path d="M5028.19,547.078C5059.2,547.078 5105.73,547.078 5105.73,593.609C5105.73,642.063 5061.14,642.063 5028.19,642.063L3872.89,642.063C3841.88,642.063 3795.34,642.063 3795.34,595.547C3795.34,547.078 3839.94,547.078 3872.89,547.078L5028.19,547.078" style="fill-rule:nonzero;"/>
                </g>
                <g transform="matrix(0.00359712,0,0,-0.00359712,0,7)">
                    <path d="M5966.38,1341.84C5966.38,1394.19 5962.5,1396.13 5908.22,1396.13C5784.16,1274 5607.77,1272.06 5528.3,1272.06L5528.3,1202.28C5574.81,1202.28 5702.75,1202.28 5809.36,1256.55L5809.36,267.953C5809.36,203.984 5809.36,178.781 5615.52,178.781L5541.86,178.781L5541.86,109C5576.75,110.938 5815.17,116.75 5886.91,116.75C5946.98,116.75 6191.23,110.938 6233.88,109L6233.88,178.781L6160.22,178.781C5966.38,178.781 5966.38,203.984 5966.38,267.953L5966.38,1341.84" style="fill-rule:nonzero;"/>
                </g>
            </g>
        </g>
    </g>
    <g transform="matrix(1.2,0,0,1.2,910.382,222.178)">
        <g transform="matrix(1,0,0,1,-14.5833,-16.6667)">
            <g transform="matrix(0.014988,0,0,-0.014988,0,33.3333)">
                <path d="M1077.81,1923.2C1102.77,2023 1111.08,2053.48 1371.67,2053.48C1454.83,2053.48 1477.02,2053.48 1477.02,2106.16C1477.02,2139.42 1446.52,2139.42 1432.66,2139.42C1341.17,2139.42 1113.84,2131.11 1022.38,2131.11C939.203,2131.11 736.828,2139.42 653.656,2139.42C634.25,2139.42 600.984,2139.42 600.984,2083.98C600.984,2053.48 625.938,2053.48 678.609,2053.48C684.156,2053.48 736.828,2053.48 783.953,2047.95C833.859,2042.41 858.813,2039.63 858.813,2003.59C858.813,1992.5 856.031,1984.19 847.719,1950.92L476.234,462.234C448.516,354.109 442.969,331.938 223.969,331.938C176.844,331.938 149.109,331.938 149.109,276.5C149.109,246 174.063,246 223.969,246L1507.5,246C1574.05,246 1576.81,246 1593.45,293.125L1812.45,891.922C1823.55,922.422 1823.55,927.969 1823.55,930.734C1823.55,941.828 1815.22,961.234 1790.27,961.234C1765.33,961.234 1762.55,947.375 1743.14,903.016C1648.89,647.969 1526.91,331.938 1047.31,331.938L786.734,331.938C747.922,331.938 742.375,331.938 725.734,334.719C698.016,337.484 689.703,340.25 689.703,362.438C689.703,370.75 689.703,376.297 703.563,426.188L1077.81,1923.2" style="fill-rule:nonzero;"/>
            </g>
        </g>
    </g>
    <g transform="matrix(1.2,0,0,1.2,115.851,221.915)">
        <g transform="matrix(1,0,0,1,-10.4167,-16.6667)">
            <g transform="matrix(0.014988,0,0,-0.014988,0,33.3333)">
                <path d="M1316.22,1133.11C1316.22,1354.89 1302.36,1576.67 1205.33,1781.81C1077.81,2047.95 850.484,2092.3 734.063,2092.3C567.719,2092.3 365.344,2020.22 251.688,1762.41C162.984,1571.13 149.109,1354.89 149.109,1133.11C149.109,925.188 160.203,675.688 273.859,465C393.078,240.453 595.438,185.016 731.281,185.016C880.984,185.016 1091.67,243.234 1213.66,506.594C1302.36,697.875 1316.22,914.109 1316.22,1133.11ZM731.281,246C623.172,246 459.609,315.313 409.703,581.438C379.219,747.766 379.219,1002.81 379.219,1166.38C379.219,1343.8 379.219,1526.77 401.391,1676.47C454.063,2006.36 661.984,2031.31 731.281,2031.31C822.766,2031.31 1005.73,1981.41 1058.41,1706.97C1086.13,1551.72 1086.13,1341.03 1086.13,1166.38C1086.13,958.469 1086.13,769.953 1055.64,592.531C1014.05,329.172 856.031,246 731.281,246" style="fill-rule:nonzero;"/>
            </g>
        </g>
    </g>
    <g transform="matrix(1.2,0,0,1.2,881.156,96.1774)">
        <g transform="matrix(1,0,0,1,-45.8333,-14.5833)">
            <g transform="matrix(4.16667,0,0,4.16667,0,0)">
                <g transform="matrix(0.00359712,0,0,-0.00359712,0,7)">
                    <path d="M1138.8,1577.44C1094.44,1577.44 1055.64,1577.44 1016.83,1538.64C972.469,1497.05 966.922,1449.92 966.922,1430.52C966.922,1363.98 1016.83,1333.48 1069.5,1333.48C1149.89,1333.48 1224.73,1400.02 1224.73,1510.91C1224.73,1646.75 1094.44,1749.33 897.625,1749.33C523.359,1749.33 154.656,1352.89 154.656,962.016C154.656,712.516 315.453,493.5 603.766,493.5C1000.19,493.5 1233.06,787.359 1233.06,820.625C1233.06,837.266 1216.42,856.672 1199.8,856.672C1185.92,856.672 1180.39,851.125 1163.75,828.938C944.75,554.5 642.578,554.5 609.313,554.5C434.656,554.5 359.813,690.328 359.813,856.672C359.813,970.328 415.25,1239.23 509.5,1411.11C595.438,1569.13 747.922,1688.33 900.391,1688.33C994.641,1688.33 1099.98,1652.3 1138.8,1577.44" style="fill:rgb(255,0,0);fill-rule:nonzero;"/>
                </g>
                <g transform="matrix(0.00359712,0,0,-0.00359712,0,7)">
                    <path d="M2856.66,1221.66C2876.03,1295.33 2907.05,1359.28 3062.13,1363.17C3071.81,1363.17 3100.89,1365.11 3100.89,1405.81C3100.89,1417.44 3091.2,1432.95 3071.81,1432.95C3007.84,1432.95 2936.13,1425.2 2870.22,1425.2C2823.7,1425.2 2711.27,1432.95 2664.75,1432.95C2655.06,1432.95 2625.98,1432.95 2625.98,1390.3C2625.98,1365.11 2651.17,1363.17 2668.63,1363.17C2759.73,1361.23 2792.69,1332.16 2792.69,1283.69C2792.69,1268.19 2790.75,1258.48 2784.94,1237.17L2573.64,392.016L2081.28,1400C2065.77,1432.95 2061.89,1432.95 2015.38,1432.95L1749.81,1432.95C1712.98,1432.95 1687.78,1432.95 1687.78,1390.3C1687.78,1363.17 1711.05,1363.17 1751.75,1363.17C1792.45,1363.17 1835.09,1361.23 1875.81,1353.47L1616.06,316.406C1598.61,242.75 1565.66,184.594 1414.45,178.781C1400.89,178.781 1373.75,176.844 1373.75,138.078C1373.75,116.75 1389.27,109 1402.83,109C1466.8,109 1538.52,116.75 1604.42,116.75C1650.95,116.75 1763.38,109 1809.91,109C1829.28,109 1848.67,118.688 1848.67,149.703C1848.67,176.844 1825.41,178.781 1804.08,178.781C1681.97,182.656 1681.97,233.063 1681.97,260.203C1681.97,267.953 1681.97,277.641 1689.72,308.656L1937.83,1301.14L2503.86,141.953C2519.36,110.938 2527.13,109 2546.5,109C2577.52,109 2577.52,114.813 2587.2,149.703L2856.66,1221.66" style="fill:rgb(255,0,0);fill-rule:nonzero;"/>
                </g>
                <g transform="matrix(0.00359712,0,0,-0.00359712,0,7)">
                    <path d="M4644.19,547.078C4675.2,547.078 4721.73,547.078 4721.73,593.609C4721.73,642.063 4677.14,642.063 4644.19,642.063L3488.89,642.063C3457.88,642.063 3411.34,642.063 3411.34,595.547C3411.34,547.078 3455.94,547.078 3488.89,547.078L4644.19,547.078" style="fill:rgb(255,0,0);fill-rule:nonzero;"/>
                </g>
                <g transform="matrix(0.00359712,0,0,-0.00359712,0,7)">
                    <path d="M5582.38,1341.84C5582.38,1394.19 5578.5,1396.13 5524.22,1396.13C5400.16,1274 5223.77,1272.06 5144.3,1272.06L5144.3,1202.28C5190.81,1202.28 5318.75,1202.28 5425.36,1256.55L5425.36,267.953C5425.36,203.984 5425.36,178.781 5231.52,178.781L5157.86,178.781L5157.86,109C5192.75,110.938 5431.17,116.75 5502.91,116.75C5562.98,116.75 5807.23,110.938 5849.88,109L5849.88,178.781L5776.22,178.781C5582.38,178.781 5582.38,203.984 5582.38,267.953L5582.38,1341.84" style="fill:rgb(255,0,0);fill-rule:nonzero;"/>
                </g>
            </g>
        </g>
    </g>
    <g transform="matrix(1.2,0,0,1.2,653.547,59.2809)">
        <g transform="matrix(1,0,0,1,-35.4167,-16.6667)">
            <g transform="matrix(4.16667,0,0,4.16667,0,0)">
                <g transform="matrix(0.00359712,0,0,-0.00359712,0,8)">
                    <path d="M1138.8,1855.44C1094.44,1855.44 1055.64,1855.44 1016.83,1816.64C972.469,1775.05 966.922,1727.92 966.922,1708.52C966.922,1641.98 1016.83,1611.48 1069.5,1611.48C1149.89,1611.48 1224.73,1678.02 1224.73,1788.91C1224.73,1924.75 1094.44,2027.33 897.625,2027.33C523.359,2027.33 154.656,1630.89 154.656,1240.02C154.656,990.516 315.453,771.5 603.766,771.5C1000.19,771.5 1233.06,1065.36 1233.06,1098.63C1233.06,1115.27 1216.42,1134.67 1199.8,1134.67C1185.92,1134.67 1180.39,1129.13 1163.75,1106.94C944.75,832.5 642.578,832.5 609.313,832.5C434.656,832.5 359.813,968.328 359.813,1134.67C359.813,1248.33 415.25,1517.23 509.5,1689.11C595.438,1847.13 747.922,1966.33 900.391,1966.33C994.641,1966.33 1099.98,1930.3 1138.8,1855.44" style="fill:rgb(255,0,0);fill-rule:nonzero;"/>
                </g>
                <g transform="matrix(0.00359712,0,0,-0.00359712,0,8)">
                    <path d="M1868.05,1598.52C1868.05,1629.53 1844.8,1672.19 1790.52,1672.19C1738.17,1672.19 1681.97,1621.78 1681.97,1565.56C1681.97,1532.61 1707.16,1491.91 1759.5,1491.91C1815.72,1491.91 1868.05,1546.19 1868.05,1598.52ZM1472.61,613.797C1464.86,588.594 1455.17,565.328 1455.17,532.375C1455.17,441.281 1532.7,367.609 1639.31,367.609C1833.16,367.609 1918.45,635.125 1918.45,664.203C1918.45,689.391 1893.25,689.391 1887.44,689.391C1860.3,689.391 1858.36,677.766 1850.61,656.438C1806.02,501.375 1720.73,421.891 1645.13,421.891C1606.36,421.891 1596.67,447.094 1596.67,489.734C1596.67,534.328 1610.23,571.156 1627.69,613.797C1647.08,666.141 1668.39,718.469 1689.72,768.875C1707.16,815.391 1776.95,991.797 1784.7,1015.05C1790.52,1034.44 1796.33,1057.7 1796.33,1077.08C1796.33,1168.19 1718.8,1241.84 1612.17,1241.84C1420.28,1241.84 1331.11,978.219 1331.11,945.266C1331.11,920.063 1358.25,920.063 1364.06,920.063C1391.2,920.063 1393.14,929.766 1398.95,951.078C1449.34,1117.78 1534.64,1187.58 1606.36,1187.58C1637.38,1187.58 1654.83,1172.06 1654.83,1119.73C1654.83,1075.14 1643.19,1046.06 1594.73,925.891L1472.61,613.797" style="fill:rgb(255,0,0);fill-rule:nonzero;"/>
                </g>
                <g transform="matrix(0.00359712,0,0,-0.00359712,0,8)">
                    <path d="M2920.5,825.078L3513.66,825.078C3538.86,825.078 3585.38,825.078 3585.38,871.609C3585.38,920.063 3540.8,920.063 3513.66,920.063L2920.5,920.063L2920.5,1515.17C2920.5,1540.38 2920.5,1586.89 2873.97,1586.89C2825.52,1586.89 2825.52,1542.31 2825.52,1515.17L2825.52,920.063L2230.41,920.063C2205.22,920.063 2158.69,920.063 2158.69,873.547C2158.69,825.078 2203.28,825.078 2230.41,825.078L2825.52,825.078L2825.52,229.984C2825.52,204.781 2825.52,158.266 2872.03,158.266C2920.5,158.266 2920.5,202.844 2920.5,229.984L2920.5,825.078" style="fill:rgb(255,0,0);fill-rule:nonzero;"/>
                </g>
                <g transform="matrix(0.00359712,0,0,-0.00359712,0,8)">
                    <path d="M4373.38,1619.84C4373.38,1672.19 4369.5,1674.13 4315.22,1674.13C4191.16,1552 4014.77,1550.06 3935.3,1550.06L3935.3,1480.28C3981.81,1480.28 4109.75,1480.28 4216.36,1534.55L4216.36,545.953C4216.36,481.984 4216.36,456.781 4022.52,456.781L3948.86,456.781L3948.86,387C3983.75,388.938 4222.17,394.75 4293.91,394.75C4353.98,394.75 4598.23,388.938 4640.88,387L4640.88,456.781L4567.22,456.781C4373.38,456.781 4373.38,481.984 4373.38,545.953L4373.38,1619.84" style="fill:rgb(255,0,0);fill-rule:nonzero;"/>
                </g>
            </g>
        </g>
    </g>
    <g transform="matrix(1.2,0,0,1.2,569.669,45.3533)">
        <g transform="matrix(1,0,0,1,-14.5833,-14.5833)">
            <g transform="matrix(4.16667,0,0,4.16667,0,0)">
                <g transform="matrix(0.00359712,0,0,-0.00359712,0,7)">
                    <path d="M1138.8,1577.44C1094.44,1577.44 1055.64,1577.44 1016.83,1538.64C972.469,1497.05 966.922,1449.92 966.922,1430.52C966.922,1363.98 1016.83,1333.48 1069.5,1333.48C1149.89,1333.48 1224.73,1400.02 1224.73,1510.91C1224.73,1646.75 1094.44,1749.33 897.625,1749.33C523.359,1749.33 154.656,1352.89 154.656,962.016C154.656,712.516 315.453,493.5 603.766,493.5C1000.19,493.5 1233.06,787.359 1233.06,820.625C1233.06,837.266 1216.42,856.672 1199.8,856.672C1185.92,856.672 1180.39,851.125 1163.75,828.938C944.75,554.5 642.578,554.5 609.313,554.5C434.656,554.5 359.813,690.328 359.813,856.672C359.813,970.328 415.25,1239.23 509.5,1411.11C595.438,1569.13 747.922,1688.33 900.391,1688.33C994.641,1688.33 1099.98,1652.3 1138.8,1577.44" style="fill:rgb(255,0,0);fill-rule:nonzero;"/>
                </g>
                <g transform="matrix(0.00359712,0,0,-0.00359712,0,7)">
                    <path d="M1868.05,1320.52C1868.05,1351.53 1844.8,1394.19 1790.52,1394.19C1738.17,1394.19 1681.97,1343.78 1681.97,1287.56C1681.97,1254.61 1707.16,1213.91 1759.5,1213.91C1815.72,1213.91 1868.05,1268.19 1868.05,1320.52ZM1472.61,335.797C1464.86,310.594 1455.17,287.328 1455.17,254.375C1455.17,163.281 1532.7,89.609 1639.31,89.609C1833.16,89.609 1918.45,357.125 1918.45,386.203C1918.45,411.391 1893.25,411.391 1887.44,411.391C1860.3,411.391 1858.36,399.766 1850.61,378.438C1806.02,223.375 1720.73,143.891 1645.13,143.891C1606.36,143.891 1596.67,169.094 1596.67,211.734C1596.67,256.328 1610.23,293.156 1627.69,335.797C1647.08,388.141 1668.39,440.469 1689.72,490.875C1707.16,537.391 1776.95,713.797 1784.7,737.047C1790.52,756.438 1796.33,779.703 1796.33,799.078C1796.33,890.188 1718.8,963.844 1612.17,963.844C1420.28,963.844 1331.11,700.219 1331.11,667.266C1331.11,642.063 1358.25,642.063 1364.06,642.063C1391.2,642.063 1393.14,651.766 1398.95,673.078C1449.34,839.781 1534.64,909.578 1606.36,909.578C1637.38,909.578 1654.83,894.063 1654.83,841.734C1654.83,797.141 1643.19,768.063 1594.73,647.891L1472.61,335.797" style="fill:rgb(255,0,0);fill-rule:nonzero;"/>
                </g>
            </g>
        </g>
    </g>
    <g transform="matrix(1.2,0,0,1.2,484.264,55.9866)">
        <g transform="matrix(1,0,0,1,-35.4167,-14.5833)">
            <g transform="matrix(4.16667,0,0,4.16667,0,0)">
                <g transform="matrix(0.00359712,0,0,-0.00359712,0,7)">
                    <path d="M1138.8,1577.44C1094.44,1577.44 1055.64,1577.44 1016.83,1538.64C972.469,1497.05 966.922,1449.92 966.922,1430.52C966.922,1363.98 1016.83,1333.48 1069.5,1333.48C1149.89,1333.48 1224.73,1400.02 1224.73,1510.91C1224.73,1646.75 1094.44,1749.33 897.625,1749.33C523.359,1749.33 154.656,1352.89 154.656,962.016C154.656,712.516 315.453,493.5 603.766,493.5C1000.19,493.5 1233.06,787.359 1233.06,820.625C1233.06,837.266 1216.42,856.672 1199.8,856.672C1185.92,856.672 1180.39,851.125 1163.75,828.938C944.75,554.5 642.578,554.5 609.313,554.5C434.656,554.5 359.813,690.328 359.813,856.672C359.813,970.328 415.25,1239.23 509.5,1411.11C595.438,1569.13 747.922,1688.33 900.391,1688.33C994.641,1688.33 1099.98,1652.3 1138.8,1577.44" style="fill:rgb(255,0,0);fill-rule:nonzero;"/>
                </g>
                <g transform="matrix(0.00359712,0,0,-0.00359712,0,7)">
                    <path d="M1868.05,1320.52C1868.05,1351.53 1844.8,1394.19 1790.52,1394.19C1738.17,1394.19 1681.97,1343.78 1681.97,1287.56C1681.97,1254.61 1707.16,1213.91 1759.5,1213.91C1815.72,1213.91 1868.05,1268.19 1868.05,1320.52ZM1472.61,335.797C1464.86,310.594 1455.17,287.328 1455.17,254.375C1455.17,163.281 1532.7,89.609 1639.31,89.609C1833.16,89.609 1918.45,357.125 1918.45,386.203C1918.45,411.391 1893.25,411.391 1887.44,411.391C1860.3,411.391 1858.36,399.766 1850.61,378.438C1806.02,223.375 1720.73,143.891 1645.13,143.891C1606.36,143.891 1596.67,169.094 1596.67,211.734C1596.67,256.328 1610.23,293.156 1627.69,335.797C1647.08,388.141 1668.39,440.469 1689.72,490.875C1707.16,537.391 1776.95,713.797 1784.7,737.047C1790.52,756.438 1796.33,779.703 1796.33,799.078C1796.33,890.188 1718.8,963.844 1612.17,963.844C1420.28,963.844 1331.11,700.219 1331.11,667.266C1331.11,642.063 1358.25,642.063 1364.06,642.063C1391.2,642.063 1393.14,651.766 1398.95,673.078C1449.34,839.781 1534.64,909.578 1606.36,909.578C1637.38,909.578 1654.83,894.063 1654.83,841.734C1654.83,797.141 1643.19,768.063 1594.73,647.891L1472.61,335.797" style="fill:rgb(255,0,0);fill-rule:nonzero;"/>
                </g>
                <g transform="matrix(0.00359712,0,0,-0.00359712,0,7)">
                    <path d="M3465.19,547.078C3496.2,547.078 3542.73,547.078 3542.73,593.609C3542.73,642.063 3498.14,642.063 3465.19,642.063L2309.89,642.063C2278.88,642.063 2232.34,642.063 2232.34,595.547C2232.34,547.078 2276.94,547.078 2309.89,547.078L3465.19,547.078" style="fill:rgb(255,0,0);fill-rule:nonzero;"/>
                </g>
                <g transform="matrix(0.00359712,0,0,-0.00359712,0,7)">
                    <path d="M4403.38,1341.84C4403.38,1394.19 4399.5,1396.13 4345.22,1396.13C4221.16,1274 4044.77,1272.06 3965.3,1272.06L3965.3,1202.28C4011.81,1202.28 4139.75,1202.28 4246.36,1256.55L4246.36,267.953C4246.36,203.984 4246.36,178.781 4052.52,178.781L3978.86,178.781L3978.86,109C4013.75,110.938 4252.17,116.75 4323.91,116.75C4383.98,116.75 4628.23,110.938 4670.88,109L4670.88,178.781L4597.22,178.781C4403.38,178.781 4403.38,203.984 4403.38,267.953L4403.38,1341.84" style="fill:rgb(255,0,0);fill-rule:nonzero;"/>
                </g>
            </g>
        </g>
    </g>
    <g transform="matrix(1.2,0,0,1.2,254.936,93.4372)">
        <g transform="matrix(1,0,0,1,-16.6667,-14.5833)">
            <g transform="matrix(4.16667,0,0,4.16667,0,0)">
                <g transform="matrix(0.00359712,0,0,-0.00359712,0,7)">
                    <path d="M1138.8,1577.44C1094.44,1577.44 1055.64,1577.44 1016.83,1538.64C972.469,1497.05 966.922,1449.92 966.922,1430.52C966.922,1363.98 1016.83,1333.48 1069.5,1333.48C1149.89,1333.48 1224.73,1400.02 1224.73,1510.91C1224.73,1646.75 1094.44,1749.33 897.625,1749.33C523.359,1749.33 154.656,1352.89 154.656,962.016C154.656,712.516 315.453,493.5 603.766,493.5C1000.19,493.5 1233.06,787.359 1233.06,820.625C1233.06,837.266 1216.42,856.672 1199.8,856.672C1185.92,856.672 1180.39,851.125 1163.75,828.938C944.75,554.5 642.578,554.5 609.313,554.5C434.656,554.5 359.813,690.328 359.813,856.672C359.813,970.328 415.25,1239.23 509.5,1411.11C595.438,1569.13 747.922,1688.33 900.391,1688.33C994.641,1688.33 1099.98,1652.3 1138.8,1577.44" style="fill:rgb(255,0,0);fill-rule:nonzero;"/>
                </g>
                <g transform="matrix(0.00359712,0,0,-0.00359712,0,7)">
                    <path d="M2218.91,461.797L2153,461.797C2147.19,419.156 2127.8,304.781 2102.61,285.391C2087.09,273.766 1937.83,273.766 1910.7,273.766L1554.03,273.766C1757.56,454.047 1825.41,508.313 1941.72,599.422C2085.16,713.797 2218.91,833.969 2218.91,1018.13C2218.91,1252.67 2013.44,1396.13 1765.31,1396.13C1524.95,1396.13 1362.13,1227.47 1362.13,1049.14C1362.13,950.281 1445.47,940.594 1464.86,940.594C1511.38,940.594 1567.59,973.547 1567.59,1043.33C1567.59,1078.22 1554.03,1146.06 1453.23,1146.06C1513.31,1283.69 1645.13,1326.33 1736.23,1326.33C1930.08,1326.33 2030.88,1175.14 2030.88,1018.13C2030.88,849.484 1910.7,715.734 1848.67,645.953L1381.5,184.594C1362.13,167.156 1362.13,163.281 1362.13,109L2160.75,109L2218.91,461.797" style="fill:rgb(255,0,0);fill-rule:nonzero;"/>
                </g>
            </g>
        </g>
    </g>
    <g transform="matrix(1.2,0,0,1.2,199.629,108.445)">
        <g transform="matrix(1,0,0,1,-16.6667,-14.5833)">
            <g transform="matrix(4.16667,0,0,4.16667,0,0)">
                <g transform="matrix(0.00359712,0,0,-0.00359712,0,7)">
                    <path d="M1138.8,1577.44C1094.44,1577.44 1055.64,1577.44 1016.83,1538.64C972.469,1497.05 966.922,1449.92 966.922,1430.52C966.922,1363.98 1016.83,1333.48 1069.5,1333.48C1149.89,1333.48 1224.73,1400.02 1224.73,1510.91C1224.73,1646.75 1094.44,1749.33 897.625,1749.33C523.359,1749.33 154.656,1352.89 154.656,962.016C154.656,712.516 315.453,493.5 603.766,493.5C1000.19,493.5 1233.06,787.359 1233.06,820.625C1233.06,837.266 1216.42,856.672 1199.8,856.672C1185.92,856.672 1180.39,851.125 1163.75,828.938C944.75,554.5 642.578,554.5 609.313,554.5C434.656,554.5 359.813,690.328 359.813,856.672C359.813,970.328 415.25,1239.23 509.5,1411.11C595.438,1569.13 747.922,1688.33 900.391,1688.33C994.641,1688.33 1099.98,1652.3 1138.8,1577.44" style="fill:rgb(255,0,0);fill-rule:nonzero;"/>
                </g>
                <g transform="matrix(0.00359712,0,0,-0.00359712,0,7)">
                    <path d="M1889.38,1341.84C1889.38,1394.19 1885.5,1396.13 1831.22,1396.13C1707.16,1274 1530.77,1272.06 1451.3,1272.06L1451.3,1202.28C1497.81,1202.28 1625.75,1202.28 1732.36,1256.55L1732.36,267.953C1732.36,203.984 1732.36,178.781 1538.52,178.781L1464.86,178.781L1464.86,109C1499.75,110.938 1738.17,116.75 1809.91,116.75C1869.98,116.75 2114.23,110.938 2156.88,109L2156.88,178.781L2083.22,178.781C1889.38,178.781 1889.38,203.984 1889.38,267.953L1889.38,1341.84" style="fill:rgb(255,0,0);fill-rule:nonzero;"/>
                </g>
            </g>
        </g>
    </g>
    <g transform="matrix(1.2,0,0,1.2,146.508,123.837)">
        <g transform="matrix(1,0,0,1,-18.75,-14.5833)">
            <g transform="matrix(4.16667,0,0,4.16667,0,0)">
                <g transform="matrix(0.00359712,0,0,-0.00359712,0,7)">
                    <path d="M1138.8,1577.44C1094.44,1577.44 1055.64,1577.44 1016.83,1538.64C972.469,1497.05 966.922,1449.92 966.922,1430.52C966.922,1363.98 1016.83,1333.48 1069.5,1333.48C1149.89,1333.48 1224.73,1400.02 1224.73,1510.91C1224.73,1646.75 1094.44,1749.33 897.625,1749.33C523.359,1749.33 154.656,1352.89 154.656,962.016C154.656,712.516 315.453,493.5 603.766,493.5C1000.19,493.5 1233.06,787.359 1233.06,820.625C1233.06,837.266 1216.42,856.672 1199.8,856.672C1185.92,856.672 1180.39,851.125 1163.75,828.938C944.75,554.5 642.578,554.5 609.313,554.5C434.656,554.5 359.813,690.328 359.813,856.672C359.813,970.328 415.25,1239.23 509.5,1411.11C595.438,1569.13 747.922,1688.33 900.391,1688.33C994.641,1688.33 1099.98,1652.3 1138.8,1577.44" style="fill:rgb(255,0,0);fill-rule:nonzero;"/>
                </g>
                <g transform="matrix(0.00359712,0,0,-0.00359712,0,7)">
                    <path d="M2240.23,727.359C2240.23,940.594 2215.03,1093.72 2125.86,1229.41C2065.77,1318.58 1945.59,1396.13 1790.52,1396.13C1340.8,1396.13 1340.8,866.922 1340.8,727.359C1340.8,587.797 1340.8,70.234 1790.52,70.234C2240.23,70.234 2240.23,587.797 2240.23,727.359ZM1790.52,124.5C1701.34,124.5 1583.11,176.844 1544.33,335.797C1517.2,450.172 1517.2,609.109 1517.2,752.563C1517.2,894.063 1517.2,1041.39 1546.27,1148C1586.98,1301.14 1711.05,1341.84 1790.52,1341.84C1895.19,1341.84 1995.98,1277.88 2030.88,1165.45C2061.89,1060.77 2063.83,921.203 2063.83,752.563C2063.83,609.109 2063.83,465.672 2038.64,343.547C1999.86,167.156 1868.05,124.5 1790.52,124.5" style="fill:rgb(255,0,0);fill-rule:nonzero;"/>
                </g>
            </g>
        </g>
    </g>
</svg>
