<?xml version="1.0" encoding="UTF-8" standalone="no"?>
<!DOCTYPE svg PUBLIC "-//W3C//DTD SVG 1.1//EN" "http://www.w3.org/Graphics/SVG/1.1/DTD/svg11.dtd">
<svg width="100%" height="100%" viewBox="0 0 768 824" version="1.1" xmlns="http://www.w3.org/2000/svg" xmlns:xlink="http://www.w3.org/1999/xlink" xml:space="preserve" xmlns:serif="http://www.serif.com/" style="fill-rule:evenodd;clip-rule:evenodd;stroke-linecap:round;stroke-miterlimit:10;">
    <g transform="matrix(1.08446,-7.68051e-17,-0.00667144,0.67413,-175.58,-339.03)">
        <g transform="matrix(0.922114,1.05058e-16,0.00912559,1.48339,164.999,502.915)">
            <path d="M132.916,95.27L144.916,77.27L156.916,95.27" style="fill:none;stroke:black;stroke-width:4px;"/>
            <path d="M144.916,267.128L144.916,77.27" style="fill:none;stroke:black;stroke-width:4px;stroke-linejoin:round;stroke-miterlimit:1.5;"/>
        </g>
    </g>
    <g transform="matrix(1.7524,0.00200079,-2.26053e-16,1.08446,-382.671,-708.593)">
        <g transform="matrix(0.570647,-0.00105282,1.18949e-16,0.922114,218.37,653.001)">
            <path d="M648.116,255.128L666.116,267.128L648.116,279.128" style="fill:none;stroke:black;stroke-width:4px;"/>
            <path d="M144.916,267.128L666.116,267.128" style="fill:none;stroke:black;stroke-width:4px;stroke-linejoin:round;stroke-miterlimit:1.5;"/>
        </g>
    </g>
    <g transform="matrix(1.7524,0.00200079,-2.26053e-16,1.08446,-446.727,-214.786)">
        <g transform="matrix(0.570647,-0.00105282,1.18949e-16,0.922114,254.923,197.586)">
            <path d="M584.06,748.935L602.06,760.935L584.06,772.935" style="fill:none;stroke:black;stroke-width:4px;"/>
            <path d="M80.86,760.935L602.06,760.935" style="fill:none;stroke:black;stroke-width:4px;stroke-linejoin:round;stroke-miterlimit:1.5;"/>
        </g>
    </g>
    <g transform="matrix(1,0,0,1,-34.2625,-111.187)">
        <path d="M381.578,731.157L428.485,761.48L621.183,741.104" style="fill:none;stroke:black;stroke-width:2px;stroke-linejoin:round;stroke-miterlimit:1.5;"/>
    </g>
    <g transform="matrix(1.7524,0.00200079,-2.26053e-16,1.08446,-446.727,-214.786)">
        <g transform="matrix(0.570647,-0.00105282,1.18949e-16,0.922114,254.923,197.586)">
            <path d="M320.159,558.408L341.729,556.764L334.951,577.308" style="fill:none;stroke:black;stroke-width:4px;"/>
            <path d="M80.86,760.935C80.86,760.935 313.294,579.019 341.729,556.764" style="fill:none;stroke:black;stroke-width:4px;stroke-linejoin:round;stroke-miterlimit:1.5;"/>
        </g>
    </g>
    <g transform="matrix(1.7524,0.00200079,-2.26053e-16,1.08446,-446.727,-214.786)">
        <g transform="matrix(0.570647,-0.00105282,1.18949e-16,0.922114,254.923,197.586)">
            <path d="M68.86,482.271L80.86,464.271L92.86,482.271" style="fill:none;stroke:black;stroke-width:4px;"/>
            <path d="M80.86,760.935L80.86,464.271" style="fill:none;stroke:black;stroke-width:4px;stroke-linejoin:round;stroke-miterlimit:1.5;"/>
        </g>
    </g>
    <g transform="matrix(5.63392,0,0,5.63392,220.898,300.732)">
        <g transform="matrix(1,0,0,1,-5,-3.5)">
            <g>
                <g transform="matrix(0.00359712,0,0,-0.00359712,0,7)">
                    <path d="M966.25,1360.59C982.859,1432.63 1046.58,1687.48 1240.48,1687.48C1254.34,1687.48 1320.83,1687.48 1379,1651.47C1301.44,1637.61 1246.03,1568.36 1246.03,1501.88C1246.03,1457.55 1276.5,1404.92 1351.3,1404.92C1412.25,1404.92 1500.89,1454.78 1500.89,1565.59C1500.89,1709.64 1337.45,1748.42 1243.27,1748.42C1082.59,1748.42 985.641,1601.61 952.391,1537.89C883.141,1720.72 733.547,1748.42 653.219,1748.42C365.109,1748.42 207.219,1391.06 207.219,1321.81C207.219,1294.11 234.906,1294.11 240.453,1294.11C262.609,1294.11 270.922,1299.66 276.469,1324.58C370.656,1618.22 553.484,1687.48 647.672,1687.48C700.313,1687.48 797.266,1662.55 797.266,1501.88C797.266,1416 750.172,1230.39 647.672,842.578C603.344,670.813 506.391,554.469 384.5,554.469C367.875,554.469 304.172,554.469 246,590.484C315.25,604.328 376.188,662.516 376.188,740.078C376.188,814.875 315.25,837.031 273.703,837.031C190.594,837.031 121.328,765 121.328,676.359C121.328,548.938 259.844,493.531 381.734,493.531C564.563,493.531 664.297,687.438 672.609,704.063C705.844,601.563 805.578,493.531 971.781,493.531C1257.11,493.531 1415.02,850.875 1415.02,920.141C1415.02,947.844 1390.08,947.844 1381.77,947.844C1356.84,947.844 1351.3,936.766 1345.77,917.359C1254.34,620.953 1065.97,554.469 977.328,554.469C869.281,554.469 824.969,643.125 824.969,737.297C824.969,798.25 841.578,859.188 872.063,981.078L966.25,1360.59" style="fill-rule:nonzero;"/>
                </g>
                <g transform="matrix(0.00359712,0,0,-0.00359712,0,7)">
                    <path d="M2273.47,1342.02C2273.47,1394.36 2269.59,1396.3 2215.3,1396.3C2091.23,1274.16 1914.81,1272.22 1835.31,1272.22L1835.31,1202.42C1881.84,1202.42 2009.8,1202.42 2116.44,1256.7L2116.44,267.969C2116.44,204 2116.44,178.797 1922.56,178.797L1848.89,178.797L1848.89,109C1883.78,110.938 2122.25,116.75 2193.98,116.75C2254.08,116.75 2498.36,110.938 2541,109L2541,178.797L2467.33,178.797C2273.47,178.797 2273.47,204 2273.47,267.969L2273.47,1342.02" style="fill-rule:nonzero;"/>
                </g>
            </g>
        </g>
    </g>
    <g transform="matrix(5.63392,0,0,5.63392,332.585,300.732)">
        <g transform="matrix(1,0,0,1,-5,-3.5)">
            <g>
                <g transform="matrix(0.00359712,0,0,-0.00359712,0,7)">
                    <path d="M966.25,1360.59C982.859,1432.63 1046.58,1687.48 1240.48,1687.48C1254.34,1687.48 1320.83,1687.48 1379,1651.47C1301.44,1637.61 1246.03,1568.36 1246.03,1501.88C1246.03,1457.55 1276.5,1404.92 1351.3,1404.92C1412.25,1404.92 1500.89,1454.78 1500.89,1565.59C1500.89,1709.64 1337.45,1748.42 1243.27,1748.42C1082.59,1748.42 985.641,1601.61 952.391,1537.89C883.141,1720.72 733.547,1748.42 653.219,1748.42C365.109,1748.42 207.219,1391.06 207.219,1321.81C207.219,1294.11 234.906,1294.11 240.453,1294.11C262.609,1294.11 270.922,1299.66 276.469,1324.58C370.656,1618.22 553.484,1687.48 647.672,1687.48C700.313,1687.48 797.266,1662.55 797.266,1501.88C797.266,1416 750.172,1230.39 647.672,842.578C603.344,670.813 506.391,554.469 384.5,554.469C367.875,554.469 304.172,554.469 246,590.484C315.25,604.328 376.188,662.516 376.188,740.078C376.188,814.875 315.25,837.031 273.703,837.031C190.594,837.031 121.328,765 121.328,676.359C121.328,548.938 259.844,493.531 381.734,493.531C564.563,493.531 664.297,687.438 672.609,704.063C705.844,601.563 805.578,493.531 971.781,493.531C1257.11,493.531 1415.02,850.875 1415.02,920.141C1415.02,947.844 1390.08,947.844 1381.77,947.844C1356.84,947.844 1351.3,936.766 1345.77,917.359C1254.34,620.953 1065.97,554.469 977.328,554.469C869.281,554.469 824.969,643.125 824.969,737.297C824.969,798.25 841.578,859.188 872.063,981.078L966.25,1360.59" style="fill-rule:nonzero;"/>
                </g>
                <g transform="matrix(0.00359712,0,0,-0.00359712,0,7)">
                    <path d="M2603.05,461.844L2537.13,461.844C2531.31,419.188 2511.92,304.813 2486.72,285.422C2471.22,273.797 2321.94,273.797 2294.8,273.797L1938.06,273.797C2141.64,454.094 2209.48,508.375 2325.81,599.484C2469.28,713.875 2603.05,834.078 2603.05,1018.25C2603.05,1252.83 2397.55,1396.3 2149.39,1396.3C1908.98,1396.3 1746.14,1227.63 1746.14,1049.27C1746.14,950.391 1829.5,940.703 1848.89,940.703C1895.42,940.703 1951.64,973.656 1951.64,1043.45C1951.64,1078.34 1938.06,1146.2 1837.25,1146.2C1897.36,1283.86 2029.19,1326.5 2120.31,1326.5C2314.17,1326.5 2414.98,1175.28 2414.98,1018.25C2414.98,849.578 2294.8,715.813 2232.75,646.016L1765.53,184.609C1746.14,167.156 1746.14,163.281 1746.14,109L2544.89,109L2603.05,461.844" style="fill-rule:nonzero;"/>
                </g>
            </g>
        </g>
    </g>
    <g transform="matrix(5.63392,0,0,5.63392,470.254,300.732)">
        <g transform="matrix(1,0,0,1,-5,-3.5)">
            <g>
                <g transform="matrix(0.00359712,0,0,-0.00359712,0,7)">
                    <path d="M966.25,1360.59C982.859,1432.63 1046.58,1687.48 1240.48,1687.48C1254.34,1687.48 1320.83,1687.48 1379,1651.47C1301.44,1637.61 1246.03,1568.36 1246.03,1501.88C1246.03,1457.55 1276.5,1404.92 1351.3,1404.92C1412.25,1404.92 1500.89,1454.78 1500.89,1565.59C1500.89,1709.64 1337.45,1748.42 1243.27,1748.42C1082.59,1748.42 985.641,1601.61 952.391,1537.89C883.141,1720.72 733.547,1748.42 653.219,1748.42C365.109,1748.42 207.219,1391.06 207.219,1321.81C207.219,1294.11 234.906,1294.11 240.453,1294.11C262.609,1294.11 270.922,1299.66 276.469,1324.58C370.656,1618.22 553.484,1687.48 647.672,1687.48C700.313,1687.48 797.266,1662.55 797.266,1501.88C797.266,1416 750.172,1230.39 647.672,842.578C603.344,670.813 506.391,554.469 384.5,554.469C367.875,554.469 304.172,554.469 246,590.484C315.25,604.328 376.188,662.516 376.188,740.078C376.188,814.875 315.25,837.031 273.703,837.031C190.594,837.031 121.328,765 121.328,676.359C121.328,548.938 259.844,493.531 381.734,493.531C564.563,493.531 664.297,687.438 672.609,704.063C705.844,601.563 805.578,493.531 971.781,493.531C1257.11,493.531 1415.02,850.875 1415.02,920.141C1415.02,947.844 1390.08,947.844 1381.77,947.844C1356.84,947.844 1351.3,936.766 1345.77,917.359C1254.34,620.953 1065.97,554.469 977.328,554.469C869.281,554.469 824.969,643.125 824.969,737.297C824.969,798.25 841.578,859.188 872.063,981.078L966.25,1360.59" style="fill-rule:nonzero;"/>
                </g>
                <g transform="matrix(0.00359712,0,0,-0.00359712,0,7)">
                    <path d="M2153.27,756.531C2304.48,756.531 2413.05,651.844 2413.05,444.391C2413.05,204 2273.47,132.266 2161.02,132.266C2083.47,132.266 1912.86,153.594 1831.44,267.969C1922.56,271.844 1943.89,335.828 1943.89,376.547C1943.89,438.578 1897.36,483.172 1837.25,483.172C1782.97,483.172 1728.69,450.219 1728.69,370.719C1728.69,188.484 1930.31,70.219 2164.89,70.219C2434.38,70.219 2620.48,250.531 2620.48,444.391C2620.48,595.609 2496.42,746.828 2283.16,791.422C2486.72,865.094 2560.39,1010.5 2560.39,1128.75C2560.39,1281.91 2383.97,1396.3 2168.78,1396.3C1953.58,1396.3 1788.8,1291.61 1788.8,1136.52C1788.8,1070.59 1831.44,1033.77 1889.61,1033.77C1949.7,1033.77 1988.47,1078.34 1988.47,1132.64C1988.47,1188.86 1949.7,1229.56 1889.61,1233.45C1957.45,1318.75 2091.23,1340.08 2162.95,1340.08C2250.2,1340.08 2372.34,1297.42 2372.34,1128.75C2372.34,1047.33 2345.2,958.156 2294.8,898.047C2230.81,824.375 2176.53,820.5 2079.59,814.688C2031.13,810.813 2027.25,810.813 2017.56,808.875C2013.67,808.875 1998.17,805 1998.17,783.672C1998.17,756.531 2015.63,756.531 2048.58,756.531L2153.27,756.531" style="fill-rule:nonzero;"/>
                </g>
            </g>
        </g>
    </g>
    <g transform="matrix(5.63392,0,0,5.63392,580.52,300.732)">
        <g transform="matrix(1,0,0,1,-5,-3.5)">
            <g>
                <g transform="matrix(0.00359712,0,0,-0.00359712,0,7)">
                    <path d="M966.25,1360.59C982.859,1432.63 1046.58,1687.48 1240.48,1687.48C1254.34,1687.48 1320.83,1687.48 1379,1651.47C1301.44,1637.61 1246.03,1568.36 1246.03,1501.88C1246.03,1457.55 1276.5,1404.92 1351.3,1404.92C1412.25,1404.92 1500.89,1454.78 1500.89,1565.59C1500.89,1709.64 1337.45,1748.42 1243.27,1748.42C1082.59,1748.42 985.641,1601.61 952.391,1537.89C883.141,1720.72 733.547,1748.42 653.219,1748.42C365.109,1748.42 207.219,1391.06 207.219,1321.81C207.219,1294.11 234.906,1294.11 240.453,1294.11C262.609,1294.11 270.922,1299.66 276.469,1324.58C370.656,1618.22 553.484,1687.48 647.672,1687.48C700.313,1687.48 797.266,1662.55 797.266,1501.88C797.266,1416 750.172,1230.39 647.672,842.578C603.344,670.813 506.391,554.469 384.5,554.469C367.875,554.469 304.172,554.469 246,590.484C315.25,604.328 376.188,662.516 376.188,740.078C376.188,814.875 315.25,837.031 273.703,837.031C190.594,837.031 121.328,765 121.328,676.359C121.328,548.938 259.844,493.531 381.734,493.531C564.563,493.531 664.297,687.438 672.609,704.063C705.844,601.563 805.578,493.531 971.781,493.531C1257.11,493.531 1415.02,850.875 1415.02,920.141C1415.02,947.844 1390.08,947.844 1381.77,947.844C1356.84,947.844 1351.3,936.766 1345.77,917.359C1254.34,620.953 1065.97,554.469 977.328,554.469C869.281,554.469 824.969,643.125 824.969,737.297C824.969,798.25 841.578,859.188 872.063,981.078L966.25,1360.59" style="fill-rule:nonzero;"/>
                </g>
                <g transform="matrix(0.00359712,0,0,-0.00359712,0,7)">
                    <path d="M2649.58,426.953L2649.58,496.734L2434.38,496.734L2434.38,1361.41C2434.38,1402.11 2434.38,1415.69 2391.72,1415.69C2368.47,1415.69 2360.7,1415.69 2341.31,1388.55L1699.61,496.734L1699.61,426.953L2269.59,426.953L2269.59,267.969C2269.59,202.063 2269.59,178.797 2112.55,178.797L2060.2,178.797L2060.2,109C2157.14,112.875 2281.22,116.75 2351.02,116.75C2422.75,116.75 2546.83,112.875 2643.75,109L2643.75,178.797L2591.41,178.797C2434.38,178.797 2434.38,202.063 2434.38,267.969L2434.38,426.953L2649.58,426.953ZM2283.16,1206.3L2283.16,496.734L1771.34,496.734L2283.16,1206.3Z" style="fill-rule:nonzero;"/>
                </g>
            </g>
        </g>
    </g>
    <g transform="matrix(3.18182,0,0,3.18182,388.957,672.929)">
        <g transform="matrix(1,0,0,1,-15,-5.5)">
            <g>
                <g transform="matrix(0.00359712,0,0,-0.00359712,0,11)">
                    <path d="M679.938,137.156C679.938,145.469 679.938,151 632.844,198.094C286.563,547.141 197.922,1070.7 197.922,1494.55C197.922,1976.56 303.188,2458.58 643.922,2804.84C679.938,2838.09 679.938,2843.63 679.938,2851.94C679.938,2871.33 668.844,2879.64 652.234,2879.64C624.531,2879.64 375.219,2691.27 211.766,2339.45C70.484,2034.73 37.25,1727.25 37.25,1494.55C37.25,1278.47 67.719,943.281 220.078,630.25C386.297,289.516 624.531,109.453 652.234,109.453C668.844,109.453 679.938,117.766 679.938,137.156" style="fill-rule:nonzero;"/>
                </g>
                <g transform="matrix(0.00359712,0,0,-0.00359712,0,11)">
                    <path d="M1765.25,1638.59C1781.86,1710.63 1845.58,1965.48 2039.48,1965.48C2053.34,1965.48 2119.83,1965.48 2178,1929.47C2100.44,1915.61 2045.03,1846.36 2045.03,1779.88C2045.03,1735.55 2075.5,1682.92 2150.3,1682.92C2211.25,1682.92 2299.89,1732.78 2299.89,1843.59C2299.89,1987.64 2136.45,2026.42 2042.27,2026.42C1881.59,2026.42 1784.64,1879.61 1751.39,1815.89C1682.14,1998.72 1532.55,2026.42 1452.22,2026.42C1164.11,2026.42 1006.22,1669.06 1006.22,1599.81C1006.22,1572.11 1033.91,1572.11 1039.45,1572.11C1061.61,1572.11 1069.92,1577.66 1075.47,1602.58C1169.66,1896.22 1352.48,1965.48 1446.67,1965.48C1499.31,1965.48 1596.27,1940.55 1596.27,1779.88C1596.27,1694 1549.17,1508.39 1446.67,1120.58C1402.34,948.813 1305.39,832.469 1183.5,832.469C1166.88,832.469 1103.17,832.469 1045,868.484C1114.25,882.328 1175.19,940.516 1175.19,1018.08C1175.19,1092.88 1114.25,1115.03 1072.7,1115.03C989.594,1115.03 920.328,1043 920.328,954.359C920.328,826.938 1058.84,771.531 1180.73,771.531C1363.56,771.531 1463.3,965.438 1471.61,982.063C1504.84,879.563 1604.58,771.531 1770.78,771.531C2056.11,771.531 2214.02,1128.88 2214.02,1198.14C2214.02,1225.84 2189.08,1225.84 2180.77,1225.84C2155.84,1225.84 2150.3,1214.77 2144.77,1195.36C2053.34,898.953 1864.97,832.469 1776.33,832.469C1668.28,832.469 1623.97,921.125 1623.97,1015.3C1623.97,1076.25 1640.58,1137.19 1671.06,1259.08L1765.25,1638.59" style="fill-rule:nonzero;"/>
                </g>
                <g transform="matrix(0.00359712,0,0,-0.00359712,0,11)">
                    <path d="M3072.47,1620.02C3072.47,1672.36 3068.59,1674.3 3014.3,1674.3C2890.23,1552.16 2713.81,1550.22 2634.31,1550.22L2634.31,1480.42C2680.84,1480.42 2808.8,1480.42 2915.44,1534.7L2915.44,545.969C2915.44,482 2915.44,456.797 2721.56,456.797L2647.89,456.797L2647.89,387C2682.78,388.938 2921.25,394.75 2992.98,394.75C3053.08,394.75 3297.36,388.938 3340,387L3340,456.797L3266.33,456.797C3072.47,456.797 3072.47,482 3072.47,545.969L3072.47,1620.02" style="fill-rule:nonzero;"/>
                </g>
                <g transform="matrix(0.00359712,0,0,-0.00359712,0,11)">
                    <path d="M4228.34,804.766C4228.34,987.609 4159.09,1095.64 4051.06,1095.64C3959.64,1095.64 3904.23,1026.39 3904.23,948.813C3904.23,874.031 3959.64,802 4051.06,802C4084.3,802 4120.31,813.078 4148.02,838.016C4156.33,843.547 4159.09,846.328 4161.86,846.328C4164.64,846.328 4167.41,843.547 4167.41,804.766C4167.41,599.781 4070.45,433.563 3979.03,342.156C3948.56,311.672 3948.56,306.141 3948.56,297.828C3948.56,278.438 3962.41,267.359 3976.27,267.359C4006.73,267.359 4228.34,480.656 4228.34,804.766" style="fill-rule:nonzero;"/>
                </g>
                <g transform="matrix(0.00359712,0,0,-0.00359712,0,11)">
                    <path d="M6239.31,1857.44C6250.39,1896.22 6250.39,1901.77 6250.39,1921.16C6250.39,1971.02 6211.61,1995.95 6170.06,1995.95C6142.36,1995.95 6098.03,1979.33 6073.09,1937.78C6067.56,1923.92 6045.39,1838.05 6034.31,1788.19C6014.92,1716.16 5995.53,1641.36 5978.91,1566.58L5854.25,1067.94C5843.17,1026.39 5724.06,832.469 5541.22,832.469C5399.94,832.469 5369.47,954.359 5369.47,1056.86C5369.47,1184.28 5416.56,1356.03 5510.75,1599.81C5555.08,1713.39 5566.16,1743.86 5566.16,1799.27C5566.16,1923.92 5477.52,2026.42 5339,2026.42C5075.83,2026.42 4973.33,1624.75 4973.33,1599.81C4973.33,1572.11 5001.03,1572.11 5006.58,1572.11C5034.28,1572.11 5037.05,1577.66 5050.91,1621.97C5125.7,1882.38 5236.5,1965.48 5330.69,1965.48C5352.84,1965.48 5399.94,1965.48 5399.94,1876.83C5399.94,1807.58 5372.25,1735.55 5352.84,1682.92C5242.05,1389.28 5192.19,1231.38 5192.19,1101.19C5192.19,854.641 5366.7,771.531 5530.14,771.531C5638.19,771.531 5732.36,818.625 5809.94,896.188C5773.92,752.141 5740.67,616.391 5629.88,469.578C5557.84,375.391 5452.58,295.063 5325.16,295.063C5286.36,295.063 5161.7,303.359 5114.61,411.406C5158.94,411.406 5194.95,411.406 5233.73,444.641C5261.44,469.578 5289.14,505.594 5289.14,558.219C5289.14,644.094 5214.34,655.188 5186.64,655.188C5122.92,655.188 5031.52,610.859 5031.52,475.125C5031.52,336.609 5153.39,234.109 5325.16,234.109C5610.48,234.109 5895.81,486.203 5973.38,799.234L6239.31,1857.44" style="fill-rule:nonzero;"/>
                </g>
                <g transform="matrix(0.00359712,0,0,-0.00359712,0,11)">
                    <path d="M6903.47,1620.02C6903.47,1672.36 6899.59,1674.3 6845.3,1674.3C6721.23,1552.16 6544.81,1550.22 6465.31,1550.22L6465.31,1480.42C6511.84,1480.42 6639.8,1480.42 6746.44,1534.7L6746.44,545.969C6746.44,482 6746.44,456.797 6552.56,456.797L6478.89,456.797L6478.89,387C6513.78,388.938 6752.25,394.75 6823.98,394.75C6884.08,394.75 7128.36,388.938 7171,387L7171,456.797L7097.33,456.797C6903.47,456.797 6903.47,482 6903.47,545.969L6903.47,1620.02" style="fill-rule:nonzero;"/>
                </g>
                <g transform="matrix(0.00359712,0,0,-0.00359712,0,11)">
                    <path d="M8297.58,1494.55C8297.58,1710.63 8267.11,2045.81 8114.75,2358.84C7948.55,2699.58 7710.3,2879.64 7682.61,2879.64C7665.98,2879.64 7654.91,2868.56 7654.91,2851.94C7654.91,2843.63 7654.91,2838.09 7707.53,2788.22C7979.02,2513.97 8136.91,2073.52 8136.91,1494.55C8136.91,1020.84 8034.42,533.297 7690.91,184.25C7654.91,151 7654.91,145.469 7654.91,137.156C7654.91,120.531 7665.98,109.453 7682.61,109.453C7710.3,109.453 7959.63,297.828 8123.06,649.641C8264.34,954.359 8297.58,1261.84 8297.58,1494.55" style="fill-rule:nonzero;"/>
                </g>
            </g>
        </g>
    </g>
    <g transform="matrix(1,0,0,1,-34.2625,-111.187)">
        <path d="M260.887,803.079L531.912,814.961L621.831,741.351L381.371,730.988L260.887,803.079Z" style="fill:none;stroke:black;stroke-width:2px;stroke-linejoin:round;stroke-miterlimit:1.5;"/>
    </g>
    <g transform="matrix(3.18182,0,0,3.18182,200.367,718.842)">
        <g transform="matrix(1,0,0,1,-15,-5.5)">
            <g>
                <g transform="matrix(0.00359712,0,0,-0.00359712,0,11)">
                    <path d="M679.938,137.156C679.938,145.469 679.938,151 632.844,198.094C286.563,547.141 197.922,1070.7 197.922,1494.55C197.922,1976.56 303.188,2458.58 643.922,2804.84C679.938,2838.09 679.938,2843.63 679.938,2851.94C679.938,2871.33 668.844,2879.64 652.234,2879.64C624.531,2879.64 375.219,2691.27 211.766,2339.45C70.484,2034.73 37.25,1727.25 37.25,1494.55C37.25,1278.47 67.719,943.281 220.078,630.25C386.297,289.516 624.531,109.453 652.234,109.453C668.844,109.453 679.938,117.766 679.938,137.156" style="fill-rule:nonzero;"/>
                </g>
                <g transform="matrix(0.00359712,0,0,-0.00359712,0,11)">
                    <path d="M1765.25,1638.59C1781.86,1710.63 1845.58,1965.48 2039.48,1965.48C2053.34,1965.48 2119.83,1965.48 2178,1929.47C2100.44,1915.61 2045.03,1846.36 2045.03,1779.88C2045.03,1735.55 2075.5,1682.92 2150.3,1682.92C2211.25,1682.92 2299.89,1732.78 2299.89,1843.59C2299.89,1987.64 2136.45,2026.42 2042.27,2026.42C1881.59,2026.42 1784.64,1879.61 1751.39,1815.89C1682.14,1998.72 1532.55,2026.42 1452.22,2026.42C1164.11,2026.42 1006.22,1669.06 1006.22,1599.81C1006.22,1572.11 1033.91,1572.11 1039.45,1572.11C1061.61,1572.11 1069.92,1577.66 1075.47,1602.58C1169.66,1896.22 1352.48,1965.48 1446.67,1965.48C1499.31,1965.48 1596.27,1940.55 1596.27,1779.88C1596.27,1694 1549.17,1508.39 1446.67,1120.58C1402.34,948.813 1305.39,832.469 1183.5,832.469C1166.88,832.469 1103.17,832.469 1045,868.484C1114.25,882.328 1175.19,940.516 1175.19,1018.08C1175.19,1092.88 1114.25,1115.03 1072.7,1115.03C989.594,1115.03 920.328,1043 920.328,954.359C920.328,826.938 1058.84,771.531 1180.73,771.531C1363.56,771.531 1463.3,965.438 1471.61,982.063C1504.84,879.563 1604.58,771.531 1770.78,771.531C2056.11,771.531 2214.02,1128.88 2214.02,1198.14C2214.02,1225.84 2189.08,1225.84 2180.77,1225.84C2155.84,1225.84 2150.3,1214.77 2144.77,1195.36C2053.34,898.953 1864.97,832.469 1776.33,832.469C1668.28,832.469 1623.97,921.125 1623.97,1015.3C1623.97,1076.25 1640.58,1137.19 1671.06,1259.08L1765.25,1638.59" style="fill-rule:nonzero;"/>
                </g>
                <g transform="matrix(0.00359712,0,0,-0.00359712,0,11)">
                    <path d="M3402.05,739.844L3336.13,739.844C3330.31,697.188 3310.92,582.813 3285.72,563.422C3270.22,551.797 3120.94,551.797 3093.8,551.797L2737.06,551.797C2940.64,732.094 3008.48,786.375 3124.81,877.484C3268.28,991.875 3402.05,1112.08 3402.05,1296.25C3402.05,1530.83 3196.55,1674.3 2948.39,1674.3C2707.98,1674.3 2545.14,1505.63 2545.14,1327.27C2545.14,1228.39 2628.5,1218.7 2647.89,1218.7C2694.42,1218.7 2750.64,1251.66 2750.64,1321.45C2750.64,1356.34 2737.06,1424.2 2636.25,1424.2C2696.36,1561.86 2828.19,1604.5 2919.31,1604.5C3113.17,1604.5 3213.98,1453.28 3213.98,1296.25C3213.98,1127.58 3093.8,993.813 3031.75,924.016L2564.53,462.609C2545.14,445.156 2545.14,441.281 2545.14,387L3343.89,387L3402.05,739.844" style="fill-rule:nonzero;"/>
                </g>
                <g transform="matrix(0.00359712,0,0,-0.00359712,0,11)">
                    <path d="M4228.34,804.766C4228.34,987.609 4159.09,1095.64 4051.06,1095.64C3959.64,1095.64 3904.23,1026.39 3904.23,948.813C3904.23,874.031 3959.64,802 4051.06,802C4084.3,802 4120.31,813.078 4148.02,838.016C4156.33,843.547 4159.09,846.328 4161.86,846.328C4164.64,846.328 4167.41,843.547 4167.41,804.766C4167.41,599.781 4070.45,433.563 3979.03,342.156C3948.56,311.672 3948.56,306.141 3948.56,297.828C3948.56,278.438 3962.41,267.359 3976.27,267.359C4006.73,267.359 4228.34,480.656 4228.34,804.766" style="fill-rule:nonzero;"/>
                </g>
                <g transform="matrix(0.00359712,0,0,-0.00359712,0,11)">
                    <path d="M6239.31,1857.44C6250.39,1896.22 6250.39,1901.77 6250.39,1921.16C6250.39,1971.02 6211.61,1995.95 6170.06,1995.95C6142.36,1995.95 6098.03,1979.33 6073.09,1937.78C6067.56,1923.92 6045.39,1838.05 6034.31,1788.19C6014.92,1716.16 5995.53,1641.36 5978.91,1566.58L5854.25,1067.94C5843.17,1026.39 5724.06,832.469 5541.22,832.469C5399.94,832.469 5369.47,954.359 5369.47,1056.86C5369.47,1184.28 5416.56,1356.03 5510.75,1599.81C5555.08,1713.39 5566.16,1743.86 5566.16,1799.27C5566.16,1923.92 5477.52,2026.42 5339,2026.42C5075.83,2026.42 4973.33,1624.75 4973.33,1599.81C4973.33,1572.11 5001.03,1572.11 5006.58,1572.11C5034.28,1572.11 5037.05,1577.66 5050.91,1621.97C5125.7,1882.38 5236.5,1965.48 5330.69,1965.48C5352.84,1965.48 5399.94,1965.48 5399.94,1876.83C5399.94,1807.58 5372.25,1735.55 5352.84,1682.92C5242.05,1389.28 5192.19,1231.38 5192.19,1101.19C5192.19,854.641 5366.7,771.531 5530.14,771.531C5638.19,771.531 5732.36,818.625 5809.94,896.188C5773.92,752.141 5740.67,616.391 5629.88,469.578C5557.84,375.391 5452.58,295.063 5325.16,295.063C5286.36,295.063 5161.7,303.359 5114.61,411.406C5158.94,411.406 5194.95,411.406 5233.73,444.641C5261.44,469.578 5289.14,505.594 5289.14,558.219C5289.14,644.094 5214.34,655.188 5186.64,655.188C5122.92,655.188 5031.52,610.859 5031.52,475.125C5031.52,336.609 5153.39,234.109 5325.16,234.109C5610.48,234.109 5895.81,486.203 5973.38,799.234L6239.31,1857.44" style="fill-rule:nonzero;"/>
                </g>
                <g transform="matrix(0.00359712,0,0,-0.00359712,0,11)">
                    <path d="M7233.05,739.844L7167.13,739.844C7161.31,697.188 7141.92,582.813 7116.72,563.422C7101.22,551.797 6951.94,551.797 6924.8,551.797L6568.06,551.797C6771.64,732.094 6839.48,786.375 6955.81,877.484C7099.28,991.875 7233.05,1112.08 7233.05,1296.25C7233.05,1530.83 7027.55,1674.3 6779.39,1674.3C6538.98,1674.3 6376.14,1505.63 6376.14,1327.27C6376.14,1228.39 6459.5,1218.7 6478.89,1218.7C6525.42,1218.7 6581.64,1251.66 6581.64,1321.45C6581.64,1356.34 6568.06,1424.2 6467.25,1424.2C6527.36,1561.86 6659.19,1604.5 6750.31,1604.5C6944.17,1604.5 7044.98,1453.28 7044.98,1296.25C7044.98,1127.58 6924.8,993.813 6862.75,924.016L6395.53,462.609C6376.14,445.156 6376.14,441.281 6376.14,387L7174.89,387L7233.05,739.844" style="fill-rule:nonzero;"/>
                </g>
                <g transform="matrix(0.00359712,0,0,-0.00359712,0,11)">
                    <path d="M8297.58,1494.55C8297.58,1710.63 8267.11,2045.81 8114.75,2358.84C7948.55,2699.58 7710.3,2879.64 7682.61,2879.64C7665.98,2879.64 7654.91,2868.56 7654.91,2851.94C7654.91,2843.63 7654.91,2838.09 7707.53,2788.22C7979.02,2513.97 8136.91,2073.52 8136.91,1494.55C8136.91,1020.84 8034.42,533.297 7690.91,184.25C7654.91,151 7654.91,145.469 7654.91,137.156C7654.91,120.531 7665.98,109.453 7682.61,109.453C7710.3,109.453 7959.63,297.828 8123.06,649.641C8264.34,954.359 8297.58,1261.84 8297.58,1494.55" style="fill-rule:nonzero;"/>
                </g>
            </g>
        </g>
    </g>
    <g transform="matrix(3.18182,0,0,3.18182,529.033,725.775)">
        <g transform="matrix(1,0,0,1,-15,-5.5)">
            <g>
                <g transform="matrix(0.00359712,0,0,-0.00359712,0,11)">
                    <path d="M679.938,137.156C679.938,145.469 679.938,151 632.844,198.094C286.563,547.141 197.922,1070.7 197.922,1494.55C197.922,1976.56 303.188,2458.58 643.922,2804.84C679.938,2838.09 679.938,2843.63 679.938,2851.94C679.938,2871.33 668.844,2879.64 652.234,2879.64C624.531,2879.64 375.219,2691.27 211.766,2339.45C70.484,2034.73 37.25,1727.25 37.25,1494.55C37.25,1278.47 67.719,943.281 220.078,630.25C386.297,289.516 624.531,109.453 652.234,109.453C668.844,109.453 679.938,117.766 679.938,137.156" style="fill-rule:nonzero;"/>
                </g>
                <g transform="matrix(0.00359712,0,0,-0.00359712,0,11)">
                    <path d="M1765.25,1638.59C1781.86,1710.63 1845.58,1965.48 2039.48,1965.48C2053.34,1965.48 2119.83,1965.48 2178,1929.47C2100.44,1915.61 2045.03,1846.36 2045.03,1779.88C2045.03,1735.55 2075.5,1682.92 2150.3,1682.92C2211.25,1682.92 2299.89,1732.78 2299.89,1843.59C2299.89,1987.64 2136.45,2026.42 2042.27,2026.42C1881.59,2026.42 1784.64,1879.61 1751.39,1815.89C1682.14,1998.72 1532.55,2026.42 1452.22,2026.42C1164.11,2026.42 1006.22,1669.06 1006.22,1599.81C1006.22,1572.11 1033.91,1572.11 1039.45,1572.11C1061.61,1572.11 1069.92,1577.66 1075.47,1602.58C1169.66,1896.22 1352.48,1965.48 1446.67,1965.48C1499.31,1965.48 1596.27,1940.55 1596.27,1779.88C1596.27,1694 1549.17,1508.39 1446.67,1120.58C1402.34,948.813 1305.39,832.469 1183.5,832.469C1166.88,832.469 1103.17,832.469 1045,868.484C1114.25,882.328 1175.19,940.516 1175.19,1018.08C1175.19,1092.88 1114.25,1115.03 1072.7,1115.03C989.594,1115.03 920.328,1043 920.328,954.359C920.328,826.938 1058.84,771.531 1180.73,771.531C1363.56,771.531 1463.3,965.438 1471.61,982.063C1504.84,879.563 1604.58,771.531 1770.78,771.531C2056.11,771.531 2214.02,1128.88 2214.02,1198.14C2214.02,1225.84 2189.08,1225.84 2180.77,1225.84C2155.84,1225.84 2150.3,1214.77 2144.77,1195.36C2053.34,898.953 1864.97,832.469 1776.33,832.469C1668.28,832.469 1623.97,921.125 1623.97,1015.3C1623.97,1076.25 1640.58,1137.19 1671.06,1259.08L1765.25,1638.59" style="fill-rule:nonzero;"/>
                </g>
                <g transform="matrix(0.00359712,0,0,-0.00359712,0,11)">
                    <path d="M2952.27,1034.53C3103.48,1034.53 3212.05,929.844 3212.05,722.391C3212.05,482 3072.47,410.266 2960.02,410.266C2882.47,410.266 2711.86,431.594 2630.44,545.969C2721.56,549.844 2742.89,613.828 2742.89,654.547C2742.89,716.578 2696.36,761.172 2636.25,761.172C2581.97,761.172 2527.69,728.219 2527.69,648.719C2527.69,466.484 2729.31,348.219 2963.89,348.219C3233.38,348.219 3419.48,528.531 3419.48,722.391C3419.48,873.609 3295.42,1024.83 3082.16,1069.42C3285.72,1143.09 3359.39,1288.5 3359.39,1406.75C3359.39,1559.91 3182.97,1674.3 2967.78,1674.3C2752.58,1674.3 2587.8,1569.61 2587.8,1414.52C2587.8,1348.59 2630.44,1311.77 2688.61,1311.77C2748.7,1311.77 2787.47,1356.34 2787.47,1410.64C2787.47,1466.86 2748.7,1507.56 2688.61,1511.45C2756.45,1596.75 2890.23,1618.08 2961.95,1618.08C3049.2,1618.08 3171.34,1575.42 3171.34,1406.75C3171.34,1325.33 3144.2,1236.16 3093.8,1176.05C3029.81,1102.38 2975.53,1098.5 2878.59,1092.69C2830.13,1088.81 2826.25,1088.81 2816.56,1086.88C2812.67,1086.88 2797.17,1083 2797.17,1061.67C2797.17,1034.53 2814.63,1034.53 2847.58,1034.53L2952.27,1034.53" style="fill-rule:nonzero;"/>
                </g>
                <g transform="matrix(0.00359712,0,0,-0.00359712,0,11)">
                    <path d="M4228.34,804.766C4228.34,987.609 4159.09,1095.64 4051.06,1095.64C3959.64,1095.64 3904.23,1026.39 3904.23,948.813C3904.23,874.031 3959.64,802 4051.06,802C4084.3,802 4120.31,813.078 4148.02,838.016C4156.33,843.547 4159.09,846.328 4161.86,846.328C4164.64,846.328 4167.41,843.547 4167.41,804.766C4167.41,599.781 4070.45,433.563 3979.03,342.156C3948.56,311.672 3948.56,306.141 3948.56,297.828C3948.56,278.438 3962.41,267.359 3976.27,267.359C4006.73,267.359 4228.34,480.656 4228.34,804.766" style="fill-rule:nonzero;"/>
                </g>
                <g transform="matrix(0.00359712,0,0,-0.00359712,0,11)">
                    <path d="M6239.31,1857.44C6250.39,1896.22 6250.39,1901.77 6250.39,1921.16C6250.39,1971.02 6211.61,1995.95 6170.06,1995.95C6142.36,1995.95 6098.03,1979.33 6073.09,1937.78C6067.56,1923.92 6045.39,1838.05 6034.31,1788.19C6014.92,1716.16 5995.53,1641.36 5978.91,1566.58L5854.25,1067.94C5843.17,1026.39 5724.06,832.469 5541.22,832.469C5399.94,832.469 5369.47,954.359 5369.47,1056.86C5369.47,1184.28 5416.56,1356.03 5510.75,1599.81C5555.08,1713.39 5566.16,1743.86 5566.16,1799.27C5566.16,1923.92 5477.52,2026.42 5339,2026.42C5075.83,2026.42 4973.33,1624.75 4973.33,1599.81C4973.33,1572.11 5001.03,1572.11 5006.58,1572.11C5034.28,1572.11 5037.05,1577.66 5050.91,1621.97C5125.7,1882.38 5236.5,1965.48 5330.69,1965.48C5352.84,1965.48 5399.94,1965.48 5399.94,1876.83C5399.94,1807.58 5372.25,1735.55 5352.84,1682.92C5242.05,1389.28 5192.19,1231.38 5192.19,1101.19C5192.19,854.641 5366.7,771.531 5530.14,771.531C5638.19,771.531 5732.36,818.625 5809.94,896.188C5773.92,752.141 5740.67,616.391 5629.88,469.578C5557.84,375.391 5452.58,295.063 5325.16,295.063C5286.36,295.063 5161.7,303.359 5114.61,411.406C5158.94,411.406 5194.95,411.406 5233.73,444.641C5261.44,469.578 5289.14,505.594 5289.14,558.219C5289.14,644.094 5214.34,655.188 5186.64,655.188C5122.92,655.188 5031.52,610.859 5031.52,475.125C5031.52,336.609 5153.39,234.109 5325.16,234.109C5610.48,234.109 5895.81,486.203 5973.38,799.234L6239.31,1857.44" style="fill-rule:nonzero;"/>
                </g>
                <g transform="matrix(0.00359712,0,0,-0.00359712,0,11)">
                    <path d="M6783.27,1034.53C6934.48,1034.53 7043.05,929.844 7043.05,722.391C7043.05,482 6903.47,410.266 6791.02,410.266C6713.47,410.266 6542.86,431.594 6461.44,545.969C6552.56,549.844 6573.89,613.828 6573.89,654.547C6573.89,716.578 6527.36,761.172 6467.25,761.172C6412.97,761.172 6358.69,728.219 6358.69,648.719C6358.69,466.484 6560.31,348.219 6794.89,348.219C7064.38,348.219 7250.48,528.531 7250.48,722.391C7250.48,873.609 7126.42,1024.83 6913.16,1069.42C7116.72,1143.09 7190.39,1288.5 7190.39,1406.75C7190.39,1559.91 7013.97,1674.3 6798.78,1674.3C6583.58,1674.3 6418.8,1569.61 6418.8,1414.52C6418.8,1348.59 6461.44,1311.77 6519.61,1311.77C6579.7,1311.77 6618.47,1356.34 6618.47,1410.64C6618.47,1466.86 6579.7,1507.56 6519.61,1511.45C6587.45,1596.75 6721.23,1618.08 6792.95,1618.08C6880.2,1618.08 7002.34,1575.42 7002.34,1406.75C7002.34,1325.33 6975.2,1236.16 6924.8,1176.05C6860.81,1102.38 6806.53,1098.5 6709.59,1092.69C6661.13,1088.81 6657.25,1088.81 6647.56,1086.88C6643.67,1086.88 6628.17,1083 6628.17,1061.67C6628.17,1034.53 6645.63,1034.53 6678.58,1034.53L6783.27,1034.53" style="fill-rule:nonzero;"/>
                </g>
                <g transform="matrix(0.00359712,0,0,-0.00359712,0,11)">
                    <path d="M8297.58,1494.55C8297.58,1710.63 8267.11,2045.81 8114.75,2358.84C7948.55,2699.58 7710.3,2879.64 7682.61,2879.64C7665.98,2879.64 7654.91,2868.56 7654.91,2851.94C7654.91,2843.63 7654.91,2838.09 7707.53,2788.22C7979.02,2513.97 8136.91,2073.52 8136.91,1494.55C8136.91,1020.84 8034.42,533.297 7690.91,184.25C7654.91,151 7654.91,145.469 7654.91,137.156C7654.91,120.531 7665.98,109.453 7682.61,109.453C7710.3,109.453 7959.63,297.828 8123.06,649.641C8264.34,954.359 8297.58,1261.84 8297.58,1494.55" style="fill-rule:nonzero;"/>
                </g>
            </g>
        </g>
    </g>
    <g transform="matrix(3.18182,0,0,3.18182,641.306,615.564)">
        <g transform="matrix(1,0,0,1,-15,-5.5)">
            <g>
                <g transform="matrix(0.00359712,0,0,-0.00359712,0,11)">
                    <path d="M679.938,137.156C679.938,145.469 679.938,151 632.844,198.094C286.563,547.141 197.922,1070.7 197.922,1494.55C197.922,1976.56 303.188,2458.58 643.922,2804.84C679.938,2838.09 679.938,2843.63 679.938,2851.94C679.938,2871.33 668.844,2879.64 652.234,2879.64C624.531,2879.64 375.219,2691.27 211.766,2339.45C70.484,2034.73 37.25,1727.25 37.25,1494.55C37.25,1278.47 67.719,943.281 220.078,630.25C386.297,289.516 624.531,109.453 652.234,109.453C668.844,109.453 679.938,117.766 679.938,137.156" style="fill-rule:nonzero;"/>
                </g>
                <g transform="matrix(0.00359712,0,0,-0.00359712,0,11)">
                    <path d="M1765.25,1638.59C1781.86,1710.63 1845.58,1965.48 2039.48,1965.48C2053.34,1965.48 2119.83,1965.48 2178,1929.47C2100.44,1915.61 2045.03,1846.36 2045.03,1779.88C2045.03,1735.55 2075.5,1682.92 2150.3,1682.92C2211.25,1682.92 2299.89,1732.78 2299.89,1843.59C2299.89,1987.64 2136.45,2026.42 2042.27,2026.42C1881.59,2026.42 1784.64,1879.61 1751.39,1815.89C1682.14,1998.72 1532.55,2026.42 1452.22,2026.42C1164.11,2026.42 1006.22,1669.06 1006.22,1599.81C1006.22,1572.11 1033.91,1572.11 1039.45,1572.11C1061.61,1572.11 1069.92,1577.66 1075.47,1602.58C1169.66,1896.22 1352.48,1965.48 1446.67,1965.48C1499.31,1965.48 1596.27,1940.55 1596.27,1779.88C1596.27,1694 1549.17,1508.39 1446.67,1120.58C1402.34,948.813 1305.39,832.469 1183.5,832.469C1166.88,832.469 1103.17,832.469 1045,868.484C1114.25,882.328 1175.19,940.516 1175.19,1018.08C1175.19,1092.88 1114.25,1115.03 1072.7,1115.03C989.594,1115.03 920.328,1043 920.328,954.359C920.328,826.938 1058.84,771.531 1180.73,771.531C1363.56,771.531 1463.3,965.438 1471.61,982.063C1504.84,879.563 1604.58,771.531 1770.78,771.531C2056.11,771.531 2214.02,1128.88 2214.02,1198.14C2214.02,1225.84 2189.08,1225.84 2180.77,1225.84C2155.84,1225.84 2150.3,1214.77 2144.77,1195.36C2053.34,898.953 1864.97,832.469 1776.33,832.469C1668.28,832.469 1623.97,921.125 1623.97,1015.3C1623.97,1076.25 1640.58,1137.19 1671.06,1259.08L1765.25,1638.59" style="fill-rule:nonzero;"/>
                </g>
                <g transform="matrix(0.00359712,0,0,-0.00359712,0,11)">
                    <path d="M3448.58,704.953L3448.58,774.734L3233.38,774.734L3233.38,1639.41C3233.38,1680.11 3233.38,1693.69 3190.72,1693.69C3167.47,1693.69 3159.7,1693.69 3140.31,1666.55L2498.61,774.734L2498.61,704.953L3068.59,704.953L3068.59,545.969C3068.59,480.063 3068.59,456.797 2911.55,456.797L2859.2,456.797L2859.2,387C2956.14,390.875 3080.22,394.75 3150.02,394.75C3221.75,394.75 3345.83,390.875 3442.75,387L3442.75,456.797L3390.41,456.797C3233.38,456.797 3233.38,480.063 3233.38,545.969L3233.38,704.953L3448.58,704.953ZM3082.16,1484.3L3082.16,774.734L2570.34,774.734L3082.16,1484.3Z" style="fill-rule:nonzero;"/>
                </g>
                <g transform="matrix(0.00359712,0,0,-0.00359712,0,11)">
                    <path d="M4228.34,804.766C4228.34,987.609 4159.09,1095.64 4051.06,1095.64C3959.64,1095.64 3904.23,1026.39 3904.23,948.813C3904.23,874.031 3959.64,802 4051.06,802C4084.3,802 4120.31,813.078 4148.02,838.016C4156.33,843.547 4159.09,846.328 4161.86,846.328C4164.64,846.328 4167.41,843.547 4167.41,804.766C4167.41,599.781 4070.45,433.563 3979.03,342.156C3948.56,311.672 3948.56,306.141 3948.56,297.828C3948.56,278.438 3962.41,267.359 3976.27,267.359C4006.73,267.359 4228.34,480.656 4228.34,804.766" style="fill-rule:nonzero;"/>
                </g>
                <g transform="matrix(0.00359712,0,0,-0.00359712,0,11)">
                    <path d="M6239.31,1857.44C6250.39,1896.22 6250.39,1901.77 6250.39,1921.16C6250.39,1971.02 6211.61,1995.95 6170.06,1995.95C6142.36,1995.95 6098.03,1979.33 6073.09,1937.78C6067.56,1923.92 6045.39,1838.05 6034.31,1788.19C6014.92,1716.16 5995.53,1641.36 5978.91,1566.58L5854.25,1067.94C5843.17,1026.39 5724.06,832.469 5541.22,832.469C5399.94,832.469 5369.47,954.359 5369.47,1056.86C5369.47,1184.28 5416.56,1356.03 5510.75,1599.81C5555.08,1713.39 5566.16,1743.86 5566.16,1799.27C5566.16,1923.92 5477.52,2026.42 5339,2026.42C5075.83,2026.42 4973.33,1624.75 4973.33,1599.81C4973.33,1572.11 5001.03,1572.11 5006.58,1572.11C5034.28,1572.11 5037.05,1577.66 5050.91,1621.97C5125.7,1882.38 5236.5,1965.48 5330.69,1965.48C5352.84,1965.48 5399.94,1965.48 5399.94,1876.83C5399.94,1807.58 5372.25,1735.55 5352.84,1682.92C5242.05,1389.28 5192.19,1231.38 5192.19,1101.19C5192.19,854.641 5366.7,771.531 5530.14,771.531C5638.19,771.531 5732.36,818.625 5809.94,896.188C5773.92,752.141 5740.67,616.391 5629.88,469.578C5557.84,375.391 5452.58,295.063 5325.16,295.063C5286.36,295.063 5161.7,303.359 5114.61,411.406C5158.94,411.406 5194.95,411.406 5233.73,444.641C5261.44,469.578 5289.14,505.594 5289.14,558.219C5289.14,644.094 5214.34,655.188 5186.64,655.188C5122.92,655.188 5031.52,610.859 5031.52,475.125C5031.52,336.609 5153.39,234.109 5325.16,234.109C5610.48,234.109 5895.81,486.203 5973.38,799.234L6239.31,1857.44" style="fill-rule:nonzero;"/>
                </g>
                <g transform="matrix(0.00359712,0,0,-0.00359712,0,11)">
                    <path d="M7279.58,704.953L7279.58,774.734L7064.38,774.734L7064.38,1639.41C7064.38,1680.11 7064.38,1693.69 7021.72,1693.69C6998.47,1693.69 6990.7,1693.69 6971.31,1666.55L6329.61,774.734L6329.61,704.953L6899.59,704.953L6899.59,545.969C6899.59,480.063 6899.59,456.797 6742.55,456.797L6690.2,456.797L6690.2,387C6787.14,390.875 6911.22,394.75 6981.02,394.75C7052.75,394.75 7176.83,390.875 7273.75,387L7273.75,456.797L7221.41,456.797C7064.38,456.797 7064.38,480.063 7064.38,545.969L7064.38,704.953L7279.58,704.953ZM6913.16,1484.3L6913.16,774.734L6401.34,774.734L6913.16,1484.3Z" style="fill-rule:nonzero;"/>
                </g>
                <g transform="matrix(0.00359712,0,0,-0.00359712,0,11)">
                    <path d="M8297.58,1494.55C8297.58,1710.63 8267.11,2045.81 8114.75,2358.84C7948.55,2699.58 7710.3,2879.64 7682.61,2879.64C7665.98,2879.64 7654.91,2868.56 7654.91,2851.94C7654.91,2843.63 7654.91,2838.09 7707.53,2788.22C7979.02,2513.97 8136.91,2073.52 8136.91,1494.55C8136.91,1020.84 8034.42,533.297 7690.91,184.25C7654.91,151 7654.91,145.469 7654.91,137.156C7654.91,120.531 7665.98,109.453 7682.61,109.453C7710.3,109.453 7959.63,297.828 8123.06,649.641C8264.34,954.359 8297.58,1261.84 8297.58,1494.55" style="fill-rule:nonzero;"/>
                </g>
            </g>
        </g>
    </g>
    <g transform="matrix(3.75,0,0,3.75,121.163,145.861)">
        <g transform="matrix(1,0,0,1,-2,-4)">
            <g transform="matrix(0.00359712,0,0,-0.00359712,0,8)">
                <path d="M577.438,2018.92C577.438,2085.41 577.438,2090.94 513.719,2090.94C341.969,1913.66 98.188,1913.66 9.547,1913.66L9.547,1827.78C64.953,1827.78 228.391,1827.78 372.438,1899.8L372.438,464.844C372.438,365.125 364.125,331.875 114.813,331.875L26.172,331.875L26.172,246C123.125,254.313 364.125,254.313 474.938,254.313C585.75,254.313 826.75,254.313 923.703,246L923.703,331.875L835.063,331.875C585.75,331.875 577.438,362.344 577.438,464.844L577.438,2018.92" style="fill-rule:nonzero;"/>
            </g>
        </g>
    </g>
    <g transform="matrix(3.75,0,0,3.75,57.1701,587.334)">
        <g transform="matrix(1,0,0,1,-2,-4)">
            <g transform="matrix(0.00359712,0,0,-0.00359712,0,8)">
                <path d="M577.438,2018.92C577.438,2085.41 577.438,2090.94 513.719,2090.94C341.969,1913.66 98.188,1913.66 9.547,1913.66L9.547,1827.78C64.953,1827.78 228.391,1827.78 372.438,1899.8L372.438,464.844C372.438,365.125 364.125,331.875 114.813,331.875L26.172,331.875L26.172,246C123.125,254.313 364.125,254.313 474.938,254.313C585.75,254.313 826.75,254.313 923.703,246L923.703,331.875L835.063,331.875C585.75,331.875 577.438,362.344 577.438,464.844L577.438,2018.92" style="fill-rule:nonzero;"/>
            </g>
        </g>
    </g>
    <g transform="matrix(4.54545,0,0,4.54545,453.377,161.678)">
        <g transform="matrix(1,0,0,1,-12.5,-5.5)">
            <g>
                <g transform="matrix(0.00359712,0,0,-0.00359712,0,11)">
                    <path d="M1320.83,1741.09C1334.67,1802.03 1362.38,1904.53 1362.38,1921.16C1362.38,1971.02 1323.59,1995.95 1282.05,1995.95C1248.8,1995.95 1198.94,1973.8 1179.55,1918.39C1171.23,1899 1041.03,1369.89 1021.64,1297.86C1002.25,1214.77 996.719,1164.89 996.719,1115.03C996.719,1084.56 996.719,1079.02 999.484,1065.17C935.766,918.344 852.672,832.469 744.625,832.469C523.016,832.469 523.016,1037.47 523.016,1084.56C523.016,1173.2 536.859,1281.25 667.063,1621.97C697.531,1705.08 714.156,1743.86 714.156,1799.27C714.156,1923.92 622.734,2026.42 487,2026.42C223.828,2026.42 121.328,1624.75 121.328,1599.81C121.328,1572.11 149.031,1572.11 154.578,1572.11C182.281,1572.11 185.047,1577.66 198.906,1621.97C273.703,1879.61 381.734,1965.48 478.688,1965.48C503.625,1965.48 547.938,1962.7 547.938,1874.06C547.938,1804.81 517.469,1727.25 498.078,1680.16C376.188,1353.27 342.953,1225.84 342.953,1120.58C342.953,868.484 528.547,771.531 736.313,771.531C783.406,771.531 913.609,771.531 1024.42,965.438C1096.44,788.156 1287.58,771.531 1370.69,771.531C1578.45,771.531 1700.34,946.047 1772.38,1112.27C1866.55,1328.33 1955.2,1699.55 1955.2,1832.52C1955.2,1984.88 1880.41,2026.42 1833.31,2026.42C1764.06,2026.42 1694.8,1954.39 1694.8,1893.45C1694.8,1857.44 1711.42,1840.83 1736.36,1818.66C1766.83,1788.19 1836.08,1716.16 1836.08,1583.19C1836.08,1489 1755.75,1217.53 1683.72,1076.25C1611.7,929.422 1514.73,832.469 1379,832.469C1248.8,832.469 1174,915.578 1174,1073.48C1174,1151.05 1193.39,1236.92 1204.48,1275.7L1320.83,1741.09" style="fill:rgb(0,0,255);fill-rule:nonzero;"/>
                </g>
                <g transform="matrix(0.00359712,0,0,-0.00359712,0,11)">
                    <path d="M3003.05,739.844L2937.13,739.844C2931.31,697.188 2911.92,582.813 2886.72,563.422C2871.22,551.797 2721.94,551.797 2694.8,551.797L2338.06,551.797C2541.64,732.094 2609.48,786.375 2725.81,877.484C2869.28,991.875 3003.05,1112.08 3003.05,1296.25C3003.05,1530.83 2797.55,1674.3 2549.39,1674.3C2308.98,1674.3 2146.14,1505.63 2146.14,1327.27C2146.14,1228.39 2229.5,1218.7 2248.89,1218.7C2295.42,1218.7 2351.64,1251.66 2351.64,1321.45C2351.64,1356.34 2338.06,1424.2 2237.25,1424.2C2297.36,1561.86 2429.19,1604.5 2520.31,1604.5C2714.17,1604.5 2814.98,1453.28 2814.98,1296.25C2814.98,1127.58 2694.8,993.813 2632.75,924.016L2165.53,462.609C2146.14,445.156 2146.14,441.281 2146.14,387L2944.89,387L3003.05,739.844" style="fill:rgb(0,0,255);fill-rule:nonzero;"/>
                </g>
                <g transform="matrix(0.00359712,0,0,-0.00359712,0,11)">
                    <path d="M4183.94,137.156C4183.94,145.469 4183.94,151 4136.84,198.094C3790.56,547.141 3701.92,1070.7 3701.92,1494.55C3701.92,1976.56 3807.19,2458.58 4147.92,2804.84C4183.94,2838.09 4183.94,2843.63 4183.94,2851.94C4183.94,2871.33 4172.84,2879.64 4156.23,2879.64C4128.53,2879.64 3879.22,2691.27 3715.77,2339.45C3574.48,2034.73 3541.25,1727.25 3541.25,1494.55C3541.25,1278.47 3571.72,943.281 3724.08,630.25C3890.3,289.516 4128.53,109.453 4156.23,109.453C4172.84,109.453 4183.94,117.766 4183.94,137.156" style="fill:rgb(0,0,255);fill-rule:nonzero;"/>
                </g>
                <g transform="matrix(0.00359712,0,0,-0.00359712,0,11)">
                    <path d="M5268.25,1638.59C5284.86,1710.63 5348.58,1965.48 5542.48,1965.48C5556.34,1965.48 5622.83,1965.48 5681,1929.47C5603.44,1915.61 5548.03,1846.36 5548.03,1779.88C5548.03,1735.55 5578.5,1682.92 5653.3,1682.92C5714.25,1682.92 5802.89,1732.78 5802.89,1843.59C5802.89,1987.64 5639.45,2026.42 5545.27,2026.42C5384.59,2026.42 5287.64,1879.61 5254.39,1815.89C5185.14,1998.72 5035.55,2026.42 4955.22,2026.42C4667.11,2026.42 4509.22,1669.06 4509.22,1599.81C4509.22,1572.11 4536.91,1572.11 4542.45,1572.11C4564.61,1572.11 4572.92,1577.66 4578.47,1602.58C4672.66,1896.22 4855.48,1965.48 4949.67,1965.48C5002.31,1965.48 5099.27,1940.55 5099.27,1779.88C5099.27,1694 5052.17,1508.39 4949.67,1120.58C4905.34,948.813 4808.39,832.469 4686.5,832.469C4669.88,832.469 4606.17,832.469 4548,868.484C4617.25,882.328 4678.19,940.516 4678.19,1018.08C4678.19,1092.88 4617.25,1115.03 4575.7,1115.03C4492.59,1115.03 4423.33,1043 4423.33,954.359C4423.33,826.938 4561.84,771.531 4683.73,771.531C4866.56,771.531 4966.3,965.438 4974.61,982.063C5007.84,879.563 5107.58,771.531 5273.78,771.531C5559.11,771.531 5717.02,1128.88 5717.02,1198.14C5717.02,1225.84 5692.08,1225.84 5683.77,1225.84C5658.84,1225.84 5653.3,1214.77 5647.77,1195.36C5556.34,898.953 5367.97,832.469 5279.33,832.469C5171.28,832.469 5126.97,921.125 5126.97,1015.3C5126.97,1076.25 5143.58,1137.19 5174.06,1259.08L5268.25,1638.59" style="fill:rgb(0,0,255);fill-rule:nonzero;"/>
                </g>
                <g transform="matrix(0.00359712,0,0,-0.00359712,0,11)">
                    <path d="M6726.58,1494.55C6726.58,1710.63 6696.11,2045.81 6543.75,2358.84C6377.55,2699.58 6139.3,2879.64 6111.61,2879.64C6094.98,2879.64 6083.91,2868.56 6083.91,2851.94C6083.91,2843.63 6083.91,2838.09 6136.53,2788.22C6408.02,2513.97 6565.91,2073.52 6565.91,1494.55C6565.91,1020.84 6463.42,533.297 6119.91,184.25C6083.91,151 6083.91,145.469 6083.91,137.156C6083.91,120.531 6094.98,109.453 6111.61,109.453C6139.3,109.453 6388.63,297.828 6552.06,649.641C6693.34,954.359 6726.58,1261.84 6726.58,1494.55" style="fill:rgb(0,0,255);fill-rule:nonzero;"/>
                </g>
            </g>
        </g>
    </g>
    <g transform="matrix(0.999979,-0.00641574,0.00641574,0.999979,-8.06642,-64.7953)">
        <path d="M339.947,334.582L340.721,213.819" style="fill:none;stroke:black;stroke-width:1px;stroke-linejoin:round;stroke-miterlimit:1.5;stroke-dasharray:2,4,0,0,0,0;"/>
    </g>
    <g transform="matrix(0.999866,-0.0163472,0.0163472,0.999866,-10.7256,-61.9266)">
        <path d="M341.116,212.247L151.905,209.153" style="fill:none;stroke:black;stroke-width:1px;stroke-linejoin:round;stroke-miterlimit:1.5;stroke-dasharray:2,4,0,0,0,0;"/>
    </g>
    <g transform="matrix(1,0,0,1,-6.31423,-66.9845)">
        <path d="M228.973,334.007L340.37,211.459L478.899,334.007" style="fill:none;stroke:rgb(26,50,230);stroke-width:5px;stroke-linejoin:round;stroke-miterlimit:1.5;"/>
    </g>
    <g transform="matrix(1,0,0,1,-34.2625,-111.187)">
        <path d="M263.371,802.561L428.306,761.716L532.123,814.675" style="fill:none;stroke:black;stroke-width:2px;stroke-linejoin:round;stroke-miterlimit:1.5;"/>
    </g>
    <g transform="matrix(0.999235,0.0391112,-0.0391112,0.999235,26.1127,-124.312)">
        <path d="M398.551,759.889L392.92,616.023" style="fill:none;stroke:black;stroke-width:1px;stroke-linejoin:round;stroke-miterlimit:1.5;stroke-dasharray:2,4,0,0,0,0;"/>
    </g>
    <g transform="matrix(0.954185,0,0,0.85712,-1.68507,-162.282)">
        <path d="M87.159,869.559L562.359,870.397L746.963,697.59L306.393,697.59L87.159,869.559Z" style="fill:rgb(128,128,128);fill-opacity:0.1;stroke:black;stroke-width:1.1px;stroke-linejoin:round;stroke-miterlimit:1.5;stroke-dasharray:2.21,4.41,0,0,0,0;"/>
    </g>
    <g transform="matrix(4.54545,0,0,4.54545,518.585,505.503)">
        <g transform="matrix(1,0,0,1,-17,-5.5)">
            <g>
                <g transform="matrix(0.00359712,0,0,-0.00359712,0,11)">
                    <path d="M1320.83,1741.09C1334.67,1802.03 1362.38,1904.53 1362.38,1921.16C1362.38,1971.02 1323.59,1995.95 1282.05,1995.95C1248.8,1995.95 1198.94,1973.8 1179.55,1918.39C1171.23,1899 1041.03,1369.89 1021.64,1297.86C1002.25,1214.77 996.719,1164.89 996.719,1115.03C996.719,1084.56 996.719,1079.02 999.484,1065.17C935.766,918.344 852.672,832.469 744.625,832.469C523.016,832.469 523.016,1037.47 523.016,1084.56C523.016,1173.2 536.859,1281.25 667.063,1621.97C697.531,1705.08 714.156,1743.86 714.156,1799.27C714.156,1923.92 622.734,2026.42 487,2026.42C223.828,2026.42 121.328,1624.75 121.328,1599.81C121.328,1572.11 149.031,1572.11 154.578,1572.11C182.281,1572.11 185.047,1577.66 198.906,1621.97C273.703,1879.61 381.734,1965.48 478.688,1965.48C503.625,1965.48 547.938,1962.7 547.938,1874.06C547.938,1804.81 517.469,1727.25 498.078,1680.16C376.188,1353.27 342.953,1225.84 342.953,1120.58C342.953,868.484 528.547,771.531 736.313,771.531C783.406,771.531 913.609,771.531 1024.42,965.438C1096.44,788.156 1287.58,771.531 1370.69,771.531C1578.45,771.531 1700.34,946.047 1772.38,1112.27C1866.55,1328.33 1955.2,1699.55 1955.2,1832.52C1955.2,1984.88 1880.41,2026.42 1833.31,2026.42C1764.06,2026.42 1694.8,1954.39 1694.8,1893.45C1694.8,1857.44 1711.42,1840.83 1736.36,1818.66C1766.83,1788.19 1836.08,1716.16 1836.08,1583.19C1836.08,1489 1755.75,1217.53 1683.72,1076.25C1611.7,929.422 1514.73,832.469 1379,832.469C1248.8,832.469 1174,915.578 1174,1073.48C1174,1151.05 1193.39,1236.92 1204.48,1275.7L1320.83,1741.09" style="fill:rgb(0,0,255);fill-rule:nonzero;"/>
                </g>
                <g transform="matrix(0.00359712,0,0,-0.00359712,0,11)">
                    <path d="M2673.47,1620.02C2673.47,1672.36 2669.59,1674.3 2615.3,1674.3C2491.23,1552.16 2314.81,1550.22 2235.31,1550.22L2235.31,1480.42C2281.84,1480.42 2409.8,1480.42 2516.44,1534.7L2516.44,545.969C2516.44,482 2516.44,456.797 2322.56,456.797L2248.89,456.797L2248.89,387C2283.78,388.938 2522.25,394.75 2593.98,394.75C2654.08,394.75 2898.36,388.938 2941,387L2941,456.797L2867.33,456.797C2673.47,456.797 2673.47,482 2673.47,545.969L2673.47,1620.02" style="fill:rgb(0,0,255);fill-rule:nonzero;"/>
                </g>
                <g transform="matrix(0.00359712,0,0,-0.00359712,0,11)">
                    <path d="M4183.94,137.156C4183.94,145.469 4183.94,151 4136.84,198.094C3790.56,547.141 3701.92,1070.7 3701.92,1494.55C3701.92,1976.56 3807.19,2458.58 4147.92,2804.84C4183.94,2838.09 4183.94,2843.63 4183.94,2851.94C4183.94,2871.33 4172.84,2879.64 4156.23,2879.64C4128.53,2879.64 3879.22,2691.27 3715.77,2339.45C3574.48,2034.73 3541.25,1727.25 3541.25,1494.55C3541.25,1278.47 3571.72,943.281 3724.08,630.25C3890.3,289.516 4128.53,109.453 4156.23,109.453C4172.84,109.453 4183.94,117.766 4183.94,137.156" style="fill:rgb(0,0,255);fill-rule:nonzero;"/>
                </g>
                <g transform="matrix(0.00359712,0,0,-0.00359712,0,11)">
                    <path d="M5268.25,1638.59C5284.86,1710.63 5348.58,1965.48 5542.48,1965.48C5556.34,1965.48 5622.83,1965.48 5681,1929.47C5603.44,1915.61 5548.03,1846.36 5548.03,1779.88C5548.03,1735.55 5578.5,1682.92 5653.3,1682.92C5714.25,1682.92 5802.89,1732.78 5802.89,1843.59C5802.89,1987.64 5639.45,2026.42 5545.27,2026.42C5384.59,2026.42 5287.64,1879.61 5254.39,1815.89C5185.14,1998.72 5035.55,2026.42 4955.22,2026.42C4667.11,2026.42 4509.22,1669.06 4509.22,1599.81C4509.22,1572.11 4536.91,1572.11 4542.45,1572.11C4564.61,1572.11 4572.92,1577.66 4578.47,1602.58C4672.66,1896.22 4855.48,1965.48 4949.67,1965.48C5002.31,1965.48 5099.27,1940.55 5099.27,1779.88C5099.27,1694 5052.17,1508.39 4949.67,1120.58C4905.34,948.813 4808.39,832.469 4686.5,832.469C4669.88,832.469 4606.17,832.469 4548,868.484C4617.25,882.328 4678.19,940.516 4678.19,1018.08C4678.19,1092.88 4617.25,1115.03 4575.7,1115.03C4492.59,1115.03 4423.33,1043 4423.33,954.359C4423.33,826.938 4561.84,771.531 4683.73,771.531C4866.56,771.531 4966.3,965.438 4974.61,982.063C5007.84,879.563 5107.58,771.531 5273.78,771.531C5559.11,771.531 5717.02,1128.88 5717.02,1198.14C5717.02,1225.84 5692.08,1225.84 5683.77,1225.84C5658.84,1225.84 5653.3,1214.77 5647.77,1195.36C5556.34,898.953 5367.97,832.469 5279.33,832.469C5171.28,832.469 5126.97,921.125 5126.97,1015.3C5126.97,1076.25 5143.58,1137.19 5174.06,1259.08L5268.25,1638.59" style="fill:rgb(0,0,255);fill-rule:nonzero;"/>
                </g>
                <g transform="matrix(0.00359712,0,0,-0.00359712,0,11)">
                    <path d="M6487.34,804.766C6487.34,987.609 6418.09,1095.64 6310.06,1095.64C6218.64,1095.64 6163.23,1026.39 6163.23,948.813C6163.23,874.031 6218.64,802 6310.06,802C6343.3,802 6379.31,813.078 6407.02,838.016C6415.33,843.547 6418.09,846.328 6420.86,846.328C6423.64,846.328 6426.41,843.547 6426.41,804.766C6426.41,599.781 6329.45,433.563 6238.03,342.156C6207.56,311.672 6207.56,306.141 6207.56,297.828C6207.56,278.438 6221.41,267.359 6235.27,267.359C6265.73,267.359 6487.34,480.656 6487.34,804.766" style="fill:rgb(0,0,255);fill-rule:nonzero;"/>
                </g>
                <g transform="matrix(0.00359712,0,0,-0.00359712,0,11)">
                    <path d="M8498.31,1857.44C8509.39,1896.22 8509.39,1901.77 8509.39,1921.16C8509.39,1971.02 8470.61,1995.95 8429.06,1995.95C8401.36,1995.95 8357.03,1979.33 8332.09,1937.78C8326.56,1923.92 8304.39,1838.05 8293.31,1788.19C8273.92,1716.16 8254.53,1641.36 8237.91,1566.58L8113.25,1067.94C8102.17,1026.39 7983.06,832.469 7800.22,832.469C7658.94,832.469 7628.47,954.359 7628.47,1056.86C7628.47,1184.28 7675.56,1356.03 7769.75,1599.81C7814.08,1713.39 7825.16,1743.86 7825.16,1799.27C7825.16,1923.92 7736.52,2026.42 7598,2026.42C7334.83,2026.42 7232.33,1624.75 7232.33,1599.81C7232.33,1572.11 7260.03,1572.11 7265.58,1572.11C7293.28,1572.11 7296.05,1577.66 7309.91,1621.97C7384.7,1882.38 7495.5,1965.48 7589.69,1965.48C7611.84,1965.48 7658.94,1965.48 7658.94,1876.83C7658.94,1807.58 7631.25,1735.55 7611.84,1682.92C7501.05,1389.28 7451.19,1231.38 7451.19,1101.19C7451.19,854.641 7625.7,771.531 7789.14,771.531C7897.19,771.531 7991.36,818.625 8068.94,896.188C8032.92,752.141 7999.67,616.391 7888.88,469.578C7816.84,375.391 7711.58,295.063 7584.16,295.063C7545.36,295.063 7420.7,303.359 7373.61,411.406C7417.94,411.406 7453.95,411.406 7492.73,444.641C7520.44,469.578 7548.14,505.594 7548.14,558.219C7548.14,644.094 7473.34,655.188 7445.64,655.188C7381.92,655.188 7290.52,610.859 7290.52,475.125C7290.52,336.609 7412.39,234.109 7584.16,234.109C7869.48,234.109 8154.81,486.203 8232.38,799.234L8498.31,1857.44" style="fill:rgb(0,0,255);fill-rule:nonzero;"/>
                </g>
                <g transform="matrix(0.00359712,0,0,-0.00359712,0,11)">
                    <path d="M9415.58,1494.55C9415.58,1710.63 9385.11,2045.81 9232.75,2358.84C9066.55,2699.58 8828.3,2879.64 8800.61,2879.64C8783.98,2879.64 8772.91,2868.56 8772.91,2851.94C8772.91,2843.63 8772.91,2838.09 8825.53,2788.22C9097.02,2513.97 9254.91,2073.52 9254.91,1494.55C9254.91,1020.84 9152.42,533.297 8808.91,184.25C8772.91,151 8772.91,145.469 8772.91,137.156C8772.91,120.531 8783.98,109.453 8800.61,109.453C8828.3,109.453 9077.63,297.828 9241.06,649.641C9382.34,954.359 9415.58,1261.84 9415.58,1494.55" style="fill:rgb(0,0,255);fill-rule:nonzero;"/>
                </g>
            </g>
        </g>
    </g>
    <g transform="matrix(3.18182,0,0,3.18182,341.717,597.66)">
        <g transform="matrix(1,0,0,1,-15,-5.5)">
            <g>
                <g transform="matrix(0.00359712,0,0,-0.00359712,0,11)">
                    <path d="M679.938,137.156C679.938,145.469 679.938,151 632.844,198.094C286.563,547.141 197.922,1070.7 197.922,1494.55C197.922,1976.56 303.188,2458.58 643.922,2804.84C679.938,2838.09 679.938,2843.63 679.938,2851.94C679.938,2871.33 668.844,2879.64 652.234,2879.64C624.531,2879.64 375.219,2691.27 211.766,2339.45C70.484,2034.73 37.25,1727.25 37.25,1494.55C37.25,1278.47 67.719,943.281 220.078,630.25C386.297,289.516 624.531,109.453 652.234,109.453C668.844,109.453 679.938,117.766 679.938,137.156" style="fill-rule:nonzero;"/>
                </g>
                <g transform="matrix(0.00359712,0,0,-0.00359712,0,11)">
                    <path d="M1765.25,1638.59C1781.86,1710.63 1845.58,1965.48 2039.48,1965.48C2053.34,1965.48 2119.83,1965.48 2178,1929.47C2100.44,1915.61 2045.03,1846.36 2045.03,1779.88C2045.03,1735.55 2075.5,1682.92 2150.3,1682.92C2211.25,1682.92 2299.89,1732.78 2299.89,1843.59C2299.89,1987.64 2136.45,2026.42 2042.27,2026.42C1881.59,2026.42 1784.64,1879.61 1751.39,1815.89C1682.14,1998.72 1532.55,2026.42 1452.22,2026.42C1164.11,2026.42 1006.22,1669.06 1006.22,1599.81C1006.22,1572.11 1033.91,1572.11 1039.45,1572.11C1061.61,1572.11 1069.92,1577.66 1075.47,1602.58C1169.66,1896.22 1352.48,1965.48 1446.67,1965.48C1499.31,1965.48 1596.27,1940.55 1596.27,1779.88C1596.27,1694 1549.17,1508.39 1446.67,1120.58C1402.34,948.813 1305.39,832.469 1183.5,832.469C1166.88,832.469 1103.17,832.469 1045,868.484C1114.25,882.328 1175.19,940.516 1175.19,1018.08C1175.19,1092.88 1114.25,1115.03 1072.7,1115.03C989.594,1115.03 920.328,1043 920.328,954.359C920.328,826.938 1058.84,771.531 1180.73,771.531C1363.56,771.531 1463.3,965.438 1471.61,982.063C1504.84,879.563 1604.58,771.531 1770.78,771.531C2056.11,771.531 2214.02,1128.88 2214.02,1198.14C2214.02,1225.84 2189.08,1225.84 2180.77,1225.84C2155.84,1225.84 2150.3,1214.77 2144.77,1195.36C2053.34,898.953 1864.97,832.469 1776.33,832.469C1668.28,832.469 1623.97,921.125 1623.97,1015.3C1623.97,1076.25 1640.58,1137.19 1671.06,1259.08L1765.25,1638.59" style="fill-rule:nonzero;"/>
                </g>
                <g transform="matrix(0.00359712,0,0,-0.00359712,0,11)">
                    <path d="M2723.5,1468.8C2822.38,1443.59 2880.53,1443.59 2911.55,1443.59C3167.47,1443.59 3318.69,1618.08 3318.69,1647.16C3318.69,1668.48 3305.11,1674.3 3295.42,1674.3C3291.53,1674.3 3287.66,1674.3 3279.91,1668.48C3233.38,1651.03 3130.63,1612.27 2987.16,1612.27C2932.88,1612.27 2830.13,1616.14 2704.11,1664.61C2684.72,1674.3 2680.84,1674.3 2678.91,1674.3C2653.7,1674.3 2653.7,1652.97 2653.7,1621.95L2653.7,1050.03C2653.7,1017.08 2653.7,993.813 2684.72,993.813C2702.17,993.813 2704.11,997.688 2723.5,1020.95C2806.86,1127.58 2925.13,1143.09 2992.98,1143.09C3109.3,1143.09 3161.64,1050.03 3171.34,1034.53C3206.23,970.547 3217.88,896.875 3217.88,784.438C3217.88,726.266 3217.88,611.891 3159.7,526.594C3111.23,456.797 3027.88,410.266 2932.88,410.266C2806.86,410.266 2676.97,480.063 2628.5,608.016C2702.17,602.203 2739.02,650.656 2739.02,703.016C2739.02,786.375 2667.28,801.875 2642.08,801.875C2638.2,801.875 2545.14,801.875 2545.14,697.188C2545.14,522.703 2704.11,348.219 2936.75,348.219C3184.91,348.219 3402.05,532.406 3402.05,776.672C3402.05,995.75 3235.31,1197.38 2994.92,1197.38C2909.61,1197.38 2808.8,1176.05 2723.5,1102.38L2723.5,1468.8" style="fill-rule:nonzero;"/>
                </g>
                <g transform="matrix(0.00359712,0,0,-0.00359712,0,11)">
                    <path d="M4228.34,804.766C4228.34,987.609 4159.09,1095.64 4051.06,1095.64C3959.64,1095.64 3904.23,1026.39 3904.23,948.813C3904.23,874.031 3959.64,802 4051.06,802C4084.3,802 4120.31,813.078 4148.02,838.016C4156.33,843.547 4159.09,846.328 4161.86,846.328C4164.64,846.328 4167.41,843.547 4167.41,804.766C4167.41,599.781 4070.45,433.563 3979.03,342.156C3948.56,311.672 3948.56,306.141 3948.56,297.828C3948.56,278.438 3962.41,267.359 3976.27,267.359C4006.73,267.359 4228.34,480.656 4228.34,804.766" style="fill-rule:nonzero;"/>
                </g>
                <g transform="matrix(0.00359712,0,0,-0.00359712,0,11)">
                    <path d="M6239.31,1857.44C6250.39,1896.22 6250.39,1901.77 6250.39,1921.16C6250.39,1971.02 6211.61,1995.95 6170.06,1995.95C6142.36,1995.95 6098.03,1979.33 6073.09,1937.78C6067.56,1923.92 6045.39,1838.05 6034.31,1788.19C6014.92,1716.16 5995.53,1641.36 5978.91,1566.58L5854.25,1067.94C5843.17,1026.39 5724.06,832.469 5541.22,832.469C5399.94,832.469 5369.47,954.359 5369.47,1056.86C5369.47,1184.28 5416.56,1356.03 5510.75,1599.81C5555.08,1713.39 5566.16,1743.86 5566.16,1799.27C5566.16,1923.92 5477.52,2026.42 5339,2026.42C5075.83,2026.42 4973.33,1624.75 4973.33,1599.81C4973.33,1572.11 5001.03,1572.11 5006.58,1572.11C5034.28,1572.11 5037.05,1577.66 5050.91,1621.97C5125.7,1882.38 5236.5,1965.48 5330.69,1965.48C5352.84,1965.48 5399.94,1965.48 5399.94,1876.83C5399.94,1807.58 5372.25,1735.55 5352.84,1682.92C5242.05,1389.28 5192.19,1231.38 5192.19,1101.19C5192.19,854.641 5366.7,771.531 5530.14,771.531C5638.19,771.531 5732.36,818.625 5809.94,896.188C5773.92,752.141 5740.67,616.391 5629.88,469.578C5557.84,375.391 5452.58,295.063 5325.16,295.063C5286.36,295.063 5161.7,303.359 5114.61,411.406C5158.94,411.406 5194.95,411.406 5233.73,444.641C5261.44,469.578 5289.14,505.594 5289.14,558.219C5289.14,644.094 5214.34,655.188 5186.64,655.188C5122.92,655.188 5031.52,610.859 5031.52,475.125C5031.52,336.609 5153.39,234.109 5325.16,234.109C5610.48,234.109 5895.81,486.203 5973.38,799.234L6239.31,1857.44" style="fill-rule:nonzero;"/>
                </g>
                <g transform="matrix(0.00359712,0,0,-0.00359712,0,11)">
                    <path d="M6554.5,1468.8C6653.38,1443.59 6711.53,1443.59 6742.55,1443.59C6998.47,1443.59 7149.69,1618.08 7149.69,1647.16C7149.69,1668.48 7136.11,1674.3 7126.42,1674.3C7122.53,1674.3 7118.66,1674.3 7110.91,1668.48C7064.38,1651.03 6961.63,1612.27 6818.16,1612.27C6763.88,1612.27 6661.13,1616.14 6535.11,1664.61C6515.72,1674.3 6511.84,1674.3 6509.91,1674.3C6484.7,1674.3 6484.7,1652.97 6484.7,1621.95L6484.7,1050.03C6484.7,1017.08 6484.7,993.813 6515.72,993.813C6533.17,993.813 6535.11,997.688 6554.5,1020.95C6637.86,1127.58 6756.13,1143.09 6823.98,1143.09C6940.3,1143.09 6992.64,1050.03 7002.34,1034.53C7037.23,970.547 7048.88,896.875 7048.88,784.438C7048.88,726.266 7048.88,611.891 6990.7,526.594C6942.23,456.797 6858.88,410.266 6763.88,410.266C6637.86,410.266 6507.97,480.063 6459.5,608.016C6533.17,602.203 6570.02,650.656 6570.02,703.016C6570.02,786.375 6498.28,801.875 6473.08,801.875C6469.2,801.875 6376.14,801.875 6376.14,697.188C6376.14,522.703 6535.11,348.219 6767.75,348.219C7015.91,348.219 7233.05,532.406 7233.05,776.672C7233.05,995.75 7066.31,1197.38 6825.92,1197.38C6740.61,1197.38 6639.8,1176.05 6554.5,1102.38L6554.5,1468.8" style="fill-rule:nonzero;"/>
                </g>
                <g transform="matrix(0.00359712,0,0,-0.00359712,0,11)">
                    <path d="M8297.58,1494.55C8297.58,1710.63 8267.11,2045.81 8114.75,2358.84C7948.55,2699.58 7710.3,2879.64 7682.61,2879.64C7665.98,2879.64 7654.91,2868.56 7654.91,2851.94C7654.91,2843.63 7654.91,2838.09 7707.53,2788.22C7979.02,2513.97 8136.91,2073.52 8136.91,1494.55C8136.91,1020.84 8034.42,533.297 7690.91,184.25C7654.91,151 7654.91,145.469 7654.91,137.156C7654.91,120.531 7665.98,109.453 7682.61,109.453C7710.3,109.453 7959.63,297.828 8123.06,649.641C8264.34,954.359 8297.58,1261.84 8297.58,1494.55" style="fill-rule:nonzero;"/>
                </g>
            </g>
        </g>
    </g>
    <g transform="matrix(1,0,0,1,-4.29034,-109.542)">
        <path d="M231.752,801.02L399.075,615.09L502.659,813.103L231.752,801.02Z" style="fill:rgb(13,202,242);fill-opacity:0.2;stroke:rgb(13,202,242);stroke-width:0.5px;stroke-linejoin:round;stroke-miterlimit:1.5;"/>
    </g>
    <g transform="matrix(1,0,0,1,-4.29034,-109.542)">
        <path d="M399.299,615.149L591.764,739.707L502.699,812.669L399.299,615.149Z" style="fill:rgb(13,202,242);fill-opacity:0.2;stroke:rgb(13,202,242);stroke-width:0.5px;stroke-linejoin:round;stroke-miterlimit:1.5;"/>
    </g>
    <g transform="matrix(1,0,0,1,-4.29034,-109.542)">
        <path d="M399.653,615.091L352.622,729.313L591.83,740.167L399.653,615.091Z" style="fill:rgb(13,202,242);fill-opacity:0.2;stroke:rgb(13,202,242);stroke-width:0.5px;stroke-linejoin:round;stroke-miterlimit:1.5;stroke-dasharray:1,2,0,0,0,0;"/>
    </g>
    <g transform="matrix(1,0,0,1,-4.29034,-109.542)">
        <path d="M399.376,614.996L352.508,729.613L232.123,801.098L399.376,614.996Z" style="fill:rgb(13,202,242);fill-opacity:0.2;stroke:rgb(13,202,242);stroke-width:0.5px;stroke-linejoin:round;stroke-miterlimit:1.5;stroke-dasharray:1,2,0,0,0,0;"/>
    </g>
    <g transform="matrix(4.375,0,0,4.375,330.939,522.499)">
        <g transform="matrix(1,0,0,1,-3,-4)">
            <g transform="matrix(0.00359712,0,0,-0.00359712,0,8)">
                <path d="M1388.3,1858.22C1399.39,1897.03 1399.39,1902.58 1399.39,1921.98C1399.39,1971.88 1360.58,1996.83 1319,1996.83C1291.27,1996.83 1246.92,1980.19 1221.97,1938.61C1216.42,1924.75 1194.25,1838.81 1183.16,1788.91C1163.75,1716.83 1144.34,1641.98 1127.72,1567.14L1002.97,1068.14C991.875,1026.55 872.672,832.5 689.703,832.5C548.313,832.5 517.828,954.469 517.828,1057.05C517.828,1184.56 564.953,1356.44 659.203,1600.41C703.563,1714.06 714.656,1744.56 714.656,1800C714.656,1924.75 625.938,2027.33 487.328,2027.33C223.969,2027.33 121.391,1625.34 121.391,1600.41C121.391,1572.67 149.109,1572.67 154.656,1572.67C182.391,1572.67 185.156,1578.22 199.016,1622.58C273.859,1883.17 384.75,1966.33 479.016,1966.33C501.188,1966.33 548.313,1966.33 548.313,1877.63C548.313,1808.31 520.594,1736.23 501.188,1683.56C390.297,1389.72 340.406,1231.69 340.406,1101.41C340.406,854.672 515.047,771.5 678.609,771.5C786.734,771.5 880.984,818.641 958.609,896.25C922.563,752.094 889.297,616.266 778.406,469.328C706.328,375.078 600.984,294.688 473.469,294.688C434.656,294.688 309.906,303 262.781,411.109C307.141,411.109 343.172,411.109 381.984,444.391C409.703,469.328 437.422,505.375 437.422,558.047C437.422,643.984 362.578,655.078 334.859,655.078C271.094,655.078 179.609,610.719 179.609,474.875C179.609,336.266 301.594,233.688 473.469,233.688C759,233.688 1044.55,485.969 1122.17,799.234L1388.3,1858.22" style="fill-rule:nonzero;"/>
            </g>
        </g>
    </g>
    <g transform="matrix(5.83333,0,0,5.83333,633.328,761.329)">
        <g transform="matrix(1,0,0,1,-3,-3)">
            <g transform="matrix(0.00359712,0,0,-0.00359712,0,6)">
                <path d="M966.922,1083.22C983.563,1155.3 1047.31,1410.33 1241.38,1410.33C1255.23,1410.33 1321.77,1410.33 1379.98,1374.3C1302.36,1360.44 1246.92,1291.13 1246.92,1224.59C1246.92,1180.23 1277.41,1127.56 1352.27,1127.56C1413.25,1127.56 1501.97,1177.47 1501.97,1288.36C1501.97,1432.52 1338.41,1471.33 1244.14,1471.33C1083.36,1471.33 986.328,1324.39 953.063,1260.64C883.75,1443.59 734.063,1471.33 653.656,1471.33C365.344,1471.33 207.328,1113.7 207.328,1044.41C207.328,1016.67 235.063,1016.67 240.594,1016.67C262.781,1016.67 271.094,1022.22 276.641,1047.17C370.891,1341.03 553.859,1410.33 648.109,1410.33C700.797,1410.33 797.813,1385.39 797.813,1224.59C797.813,1138.66 750.688,952.922 648.109,564.813C603.766,392.922 506.734,276.5 384.75,276.5C368.125,276.5 304.359,276.5 246.141,312.531C315.453,326.391 376.438,384.609 376.438,462.234C376.438,537.078 315.453,559.266 273.859,559.266C190.703,559.266 121.391,487.188 121.391,398.469C121.391,270.953 260,215.5 381.984,215.5C564.953,215.5 664.75,409.563 673.063,426.188C706.328,323.625 806.141,215.5 972.469,215.5C1258,215.5 1416.02,573.125 1416.02,642.422C1416.02,670.156 1391.08,670.156 1382.75,670.156C1357.81,670.156 1352.27,659.063 1346.72,639.656C1255.23,343.031 1066.72,276.5 978.016,276.5C869.891,276.5 825.547,365.203 825.547,459.469C825.547,520.453 842.172,581.438 872.672,703.422L966.922,1083.22" style="fill-rule:nonzero;"/>
            </g>
        </g>
    </g>
</svg>
