<?xml version="1.0" encoding="UTF-8" standalone="no"?>
<!DOCTYPE svg PUBLIC "-//W3C//DTD SVG 1.1//EN" "http://www.w3.org/Graphics/SVG/1.1/DTD/svg11.dtd">
<svg width="100%" height="100%" viewBox="0 0 1024 300" version="1.1" xmlns="http://www.w3.org/2000/svg" xmlns:xlink="http://www.w3.org/1999/xlink" xml:space="preserve" xmlns:serif="http://www.serif.com/" style="fill-rule:evenodd;clip-rule:evenodd;stroke-linecap:round;stroke-miterlimit:10;">
    <g transform="matrix(1,0,0,1,-33.2964,222.304)">
        <g transform="matrix(1,-0,-0,1,33.2964,-222.304)">
            <path d="M145.471,213.889L145.476,230.556" style="fill:none;stroke:black;stroke-width:4.17px;"/>
            <path d="M880.373,213.669L880.378,230.336" style="fill:none;stroke:black;stroke-width:4.17px;"/>
            <path d="M145.473,222.223C187.091,222.21 838.758,222.015 880.376,222.002" style="fill:none;stroke:black;stroke-width:4.17px;stroke-linejoin:round;stroke-miterlimit:1.5;"/>
        </g>
    </g>
    <g transform="matrix(1.2,0,0,1.2,117.088,221.094)">
        <g transform="matrix(1,0,0,1,-12.5,-12.5)">
            <g transform="matrix(0.014988,0,0,-0.014988,0,25)">
                <path d="M1074.28,1293.13C1024.42,1395.63 944.078,1470.42 819.422,1470.42C495.313,1470.42 151.813,1063.2 151.813,658.766C151.813,398.359 304.172,215.531 520.25,215.531C575.641,215.531 714.156,226.609 880.359,423.297C902.531,306.938 999.484,215.531 1132.45,215.531C1229.41,215.531 1293.13,279.25 1337.45,367.891C1384.55,467.609 1420.55,636.594 1420.55,642.141C1420.55,669.844 1395.63,669.844 1387.31,669.844C1359.61,669.844 1356.84,658.766 1348.53,619.969C1301.44,439.906 1251.58,276.469 1138,276.469C1063.2,276.469 1054.89,348.5 1054.89,403.906C1054.89,464.844 1060.42,487 1090.91,608.891C1121.38,725.25 1126.91,752.938 1151.84,858.219L1251.58,1246.03C1270.97,1323.61 1270.97,1329.14 1270.97,1340.22C1270.97,1387.31 1237.72,1415.02 1190.63,1415.02C1124.14,1415.02 1082.59,1354.08 1074.28,1293.13ZM894.219,575.656C880.359,525.781 880.359,520.25 838.813,473.156C716.922,320.797 603.344,276.469 525.781,276.469C387.281,276.469 348.484,428.828 348.484,536.875C348.484,675.375 437.141,1016.11 500.844,1143.55C586.734,1306.98 711.391,1409.48 822.188,1409.48C1002.25,1409.48 1041.03,1182.33 1041.03,1165.7C1041.03,1149.08 1035.5,1132.45 1032.73,1118.61L894.219,575.656" style="fill-rule:nonzero;"/>
            </g>
        </g>
    </g>
    <g transform="matrix(1.2,0,0,1.2,912.679,221.598)">
        <g transform="matrix(1,0,0,1,-10.4167,-16.6667)">
            <g transform="matrix(0.014988,0,0,-0.014988,0,33.3333)">
                <path d="M703.078,2138.03C703.078,2140.81 703.078,2168.52 667.063,2168.52C603.344,2168.52 401.125,2146.34 329.094,2140.81C306.938,2138.03 276.469,2135.27 276.469,2085.41C276.469,2052.16 301.391,2052.16 342.953,2052.16C475.922,2052.16 481.453,2032.77 481.453,2005.06C481.453,1985.67 456.531,1891.48 442.672,1833.31L215.516,930.234C182.281,791.734 171.203,747.406 171.203,650.453C171.203,387.281 318.016,215.531 523.016,215.531C849.891,215.531 1190.63,628.281 1190.63,1027.19C1190.63,1279.28 1043.81,1470.42 822.188,1470.42C694.766,1470.42 581.188,1390.09 498.078,1304.22L703.078,2138.03ZM442.672,1090.91C459.297,1151.84 459.297,1157.39 484.234,1187.86C619.969,1367.92 744.625,1409.48 816.656,1409.48C916.375,1409.48 991.172,1326.38 991.172,1149.08C991.172,985.641 899.766,667.063 849.891,561.797C758.484,376.203 631.047,276.469 523.016,276.469C428.828,276.469 337.406,351.266 337.406,556.266C337.406,608.891 337.406,661.531 381.734,836.047L442.672,1090.91" style="fill-rule:nonzero;"/>
            </g>
        </g>
    </g>
    <g transform="matrix(1.2,0,0,1.2,195.982,262.5)">
        <g transform="matrix(1,0,0,1,-20.8333,-14.5833)">
            <g transform="matrix(4.16667,0,0,4.16667,0,0)">
                <g transform="matrix(0.00359712,0,0,-0.00359712,0,7)">
                    <path d="M966.25,1360.59C982.859,1432.63 1046.58,1687.48 1240.48,1687.48C1254.34,1687.48 1320.83,1687.48 1379,1651.47C1301.44,1637.61 1246.03,1568.36 1246.03,1501.88C1246.03,1457.55 1276.5,1404.92 1351.3,1404.92C1412.25,1404.92 1500.89,1454.78 1500.89,1565.59C1500.89,1709.64 1337.45,1748.42 1243.27,1748.42C1082.59,1748.42 985.641,1601.61 952.391,1537.89C883.141,1720.72 733.547,1748.42 653.219,1748.42C365.109,1748.42 207.219,1391.06 207.219,1321.81C207.219,1294.11 234.906,1294.11 240.453,1294.11C262.609,1294.11 270.922,1299.66 276.469,1324.58C370.656,1618.22 553.484,1687.48 647.672,1687.48C700.313,1687.48 797.266,1662.55 797.266,1501.88C797.266,1416 750.172,1230.39 647.672,842.578C603.344,670.813 506.391,554.469 384.5,554.469C367.875,554.469 304.172,554.469 246,590.484C315.25,604.328 376.188,662.516 376.188,740.078C376.188,814.875 315.25,837.031 273.703,837.031C190.594,837.031 121.328,765 121.328,676.359C121.328,548.938 259.844,493.531 381.734,493.531C564.563,493.531 664.297,687.438 672.609,704.063C705.844,601.563 805.578,493.531 971.781,493.531C1257.11,493.531 1415.02,850.875 1415.02,920.141C1415.02,947.844 1390.08,947.844 1381.77,947.844C1356.84,947.844 1351.3,936.766 1345.77,917.359C1254.34,620.953 1065.97,554.469 977.328,554.469C869.281,554.469 824.969,643.125 824.969,737.297C824.969,798.25 841.578,859.188 872.063,981.078L966.25,1360.59" style="fill-rule:nonzero;"/>
                </g>
                <g transform="matrix(0.00359712,0,0,-0.00359712,0,7)">
                    <path d="M2273.47,1342.02C2273.47,1394.36 2269.59,1396.3 2215.3,1396.3C2091.23,1274.16 1914.81,1272.22 1835.31,1272.22L1835.31,1202.42C1881.84,1202.42 2009.8,1202.42 2116.44,1256.7L2116.44,267.969C2116.44,204 2116.44,178.797 1922.56,178.797L1848.89,178.797L1848.89,109C1883.78,110.938 2122.25,116.75 2193.98,116.75C2254.08,116.75 2498.36,110.938 2541,109L2541,178.797L2467.33,178.797C2273.47,178.797 2273.47,204 2273.47,267.969L2273.47,1342.02" style="fill-rule:nonzero;"/>
                </g>
            </g>
        </g>
    </g>
    <g transform="matrix(1.2,0,0,1.2,255.693,262.5)">
        <g transform="matrix(1,0,0,1,-20.8333,-14.5833)">
            <g transform="matrix(4.16667,0,0,4.16667,0,0)">
                <g transform="matrix(0.00359712,0,0,-0.00359712,0,7)">
                    <path d="M966.25,1360.59C982.859,1432.63 1046.58,1687.48 1240.48,1687.48C1254.34,1687.48 1320.83,1687.48 1379,1651.47C1301.44,1637.61 1246.03,1568.36 1246.03,1501.88C1246.03,1457.55 1276.5,1404.92 1351.3,1404.92C1412.25,1404.92 1500.89,1454.78 1500.89,1565.59C1500.89,1709.64 1337.45,1748.42 1243.27,1748.42C1082.59,1748.42 985.641,1601.61 952.391,1537.89C883.141,1720.72 733.547,1748.42 653.219,1748.42C365.109,1748.42 207.219,1391.06 207.219,1321.81C207.219,1294.11 234.906,1294.11 240.453,1294.11C262.609,1294.11 270.922,1299.66 276.469,1324.58C370.656,1618.22 553.484,1687.48 647.672,1687.48C700.313,1687.48 797.266,1662.55 797.266,1501.88C797.266,1416 750.172,1230.39 647.672,842.578C603.344,670.813 506.391,554.469 384.5,554.469C367.875,554.469 304.172,554.469 246,590.484C315.25,604.328 376.188,662.516 376.188,740.078C376.188,814.875 315.25,837.031 273.703,837.031C190.594,837.031 121.328,765 121.328,676.359C121.328,548.938 259.844,493.531 381.734,493.531C564.563,493.531 664.297,687.438 672.609,704.063C705.844,601.563 805.578,493.531 971.781,493.531C1257.11,493.531 1415.02,850.875 1415.02,920.141C1415.02,947.844 1390.08,947.844 1381.77,947.844C1356.84,947.844 1351.3,936.766 1345.77,917.359C1254.34,620.953 1065.97,554.469 977.328,554.469C869.281,554.469 824.969,643.125 824.969,737.297C824.969,798.25 841.578,859.188 872.063,981.078L966.25,1360.59" style="fill-rule:nonzero;"/>
                </g>
                <g transform="matrix(0.00359712,0,0,-0.00359712,0,7)">
                    <path d="M2603.05,461.844L2537.13,461.844C2531.31,419.188 2511.92,304.813 2486.72,285.422C2471.22,273.797 2321.94,273.797 2294.8,273.797L1938.06,273.797C2141.64,454.094 2209.48,508.375 2325.81,599.484C2469.28,713.875 2603.05,834.078 2603.05,1018.25C2603.05,1252.83 2397.55,1396.3 2149.39,1396.3C1908.98,1396.3 1746.14,1227.63 1746.14,1049.27C1746.14,950.391 1829.5,940.703 1848.89,940.703C1895.42,940.703 1951.64,973.656 1951.64,1043.45C1951.64,1078.34 1938.06,1146.2 1837.25,1146.2C1897.36,1283.86 2029.19,1326.5 2120.31,1326.5C2314.17,1326.5 2414.98,1175.28 2414.98,1018.25C2414.98,849.578 2294.8,715.813 2232.75,646.016L1765.53,184.609C1746.14,167.156 1746.14,163.281 1746.14,109L2544.89,109L2603.05,461.844" style="fill-rule:nonzero;"/>
                </g>
            </g>
        </g>
    </g>
    <g transform="matrix(1,0,0,1,-23.0713,0)">
        <path d="M168.74,159.725C168.74,159.725 512.709,88.279 619.43,88.279C686.98,88.279 761.853,152.687 809.067,159.725C841.41,164.546 902.716,130.506 902.716,130.506" style="fill:none;stroke:rgb(242,13,13);stroke-opacity:0.5;stroke-width:4.17px;stroke-linejoin:round;stroke-miterlimit:1.5;"/>
    </g>
    <g transform="matrix(0.999917,-0.00821718,0.012852,0.639315,-26.3457,81.8876)">
        <path d="M169.166,221.719L170.398,125.863" style="fill:none;stroke:black;stroke-width:2.47px;stroke-linejoin:round;stroke-miterlimit:1.5;stroke-dasharray:4.94,4.94,0,0,0,0;"/>
    </g>
    <g transform="matrix(0.999917,-0.0123831,0.012852,0.963431,708.532,10.5012)">
        <path d="M169.166,221.719L170.398,125.863" style="fill:none;stroke:black;stroke-width:2.12px;stroke-linejoin:round;stroke-miterlimit:1.5;stroke-dasharray:4.24,4.24,0,0,0,0;"/>
    </g>
    <g transform="matrix(0.999917,-0.0175603,0.012852,1.36623,389.166,-78.5629)">
        <path d="M169.166,221.719L170.398,125.863" style="fill:none;stroke:black;stroke-width:0.7px;stroke-linejoin:round;stroke-miterlimit:1.5;stroke-dasharray:1.4,1.4,0,0,0,0;"/>
    </g>
    <g transform="matrix(0.999917,-0.0097693,0.012852,0.760073,23.675,56.0494)">
        <path d="M169.166,221.719L170.398,125.863" style="fill:none;stroke:black;stroke-width:0.94px;stroke-linejoin:round;stroke-miterlimit:1.5;stroke-dasharray:1.87,1.87,0,0,0,0;"/>
    </g>
    <g transform="matrix(0.999917,-0.0111853,0.012852,0.870239,82.9871,30.8741)">
        <path d="M169.166,221.719L170.398,125.863" style="fill:none;stroke:black;stroke-width:0.89px;stroke-linejoin:round;stroke-miterlimit:1.5;stroke-dasharray:1.77,1.77,0,0,0,0;"/>
    </g>
    <g transform="matrix(0.999917,-0.0173998,0.012852,1.35375,454.777,-75.0617)">
        <path d="M169.166,221.719L170.398,125.863" style="fill:none;stroke:black;stroke-width:0.53px;stroke-linejoin:round;stroke-miterlimit:1.5;stroke-dasharray:1.05,1.05,0,0,0,0;"/>
    </g>
    <g transform="matrix(1.2,0,0,1.2,560.838,262.5)">
        <g transform="matrix(1,0,0,1,-18.75,-14.5833)">
            <g transform="matrix(4.16667,0,0,4.16667,0,0)">
                <g transform="matrix(0.00359712,0,0,-0.00359712,0,7)">
                    <path d="M966.25,1360.59C982.859,1432.63 1046.58,1687.48 1240.48,1687.48C1254.34,1687.48 1320.83,1687.48 1379,1651.47C1301.44,1637.61 1246.03,1568.36 1246.03,1501.88C1246.03,1457.55 1276.5,1404.92 1351.3,1404.92C1412.25,1404.92 1500.89,1454.78 1500.89,1565.59C1500.89,1709.64 1337.45,1748.42 1243.27,1748.42C1082.59,1748.42 985.641,1601.61 952.391,1537.89C883.141,1720.72 733.547,1748.42 653.219,1748.42C365.109,1748.42 207.219,1391.06 207.219,1321.81C207.219,1294.11 234.906,1294.11 240.453,1294.11C262.609,1294.11 270.922,1299.66 276.469,1324.58C370.656,1618.22 553.484,1687.48 647.672,1687.48C700.313,1687.48 797.266,1662.55 797.266,1501.88C797.266,1416 750.172,1230.39 647.672,842.578C603.344,670.813 506.391,554.469 384.5,554.469C367.875,554.469 304.172,554.469 246,590.484C315.25,604.328 376.188,662.516 376.188,740.078C376.188,814.875 315.25,837.031 273.703,837.031C190.594,837.031 121.328,765 121.328,676.359C121.328,548.938 259.844,493.531 381.734,493.531C564.563,493.531 664.297,687.438 672.609,704.063C705.844,601.563 805.578,493.531 971.781,493.531C1257.11,493.531 1415.02,850.875 1415.02,920.141C1415.02,947.844 1390.08,947.844 1381.77,947.844C1356.84,947.844 1351.3,936.766 1345.77,917.359C1254.34,620.953 1065.97,554.469 977.328,554.469C869.281,554.469 824.969,643.125 824.969,737.297C824.969,798.25 841.578,859.188 872.063,981.078L966.25,1360.59" style="fill-rule:nonzero;"/>
                </g>
                <g transform="matrix(0.00359712,0,0,-0.00359712,0,7)">
                    <path d="M2252.14,1320.69C2252.14,1351.7 2228.88,1394.36 2174.59,1394.36C2122.25,1394.36 2066.03,1343.95 2066.03,1287.73C2066.03,1254.77 2091.23,1214.06 2143.58,1214.06C2199.8,1214.06 2252.14,1268.34 2252.14,1320.69ZM1856.64,335.828C1848.89,310.625 1839.2,287.359 1839.2,254.406C1839.2,163.281 1916.75,89.609 2023.38,89.609C2217.25,89.609 2302.55,357.156 2302.55,386.234C2302.55,411.438 2277.34,411.438 2271.53,411.438C2244.39,411.438 2242.45,399.813 2234.69,378.484C2190.09,223.391 2104.8,143.891 2029.19,143.891C1990.42,143.891 1980.72,169.094 1980.72,211.75C1980.72,256.344 1994.3,293.172 2011.73,335.828C2031.13,388.172 2052.45,440.516 2073.78,490.922C2091.23,537.453 2161.02,713.875 2168.78,737.141C2174.59,756.531 2180.41,779.797 2180.41,799.172C2180.41,890.297 2102.86,963.969 1996.23,963.969C1804.3,963.969 1715.13,700.297 1715.13,667.344C1715.13,642.141 1742.27,642.141 1748.08,642.141C1775.22,642.141 1777.16,651.844 1782.97,673.156C1833.38,839.891 1918.69,909.688 1990.42,909.688C2021.44,909.688 2038.88,894.172 2038.88,841.828C2038.88,797.234 2027.25,768.156 1978.78,647.953L1856.64,335.828" style="fill-rule:nonzero;"/>
                </g>
            </g>
        </g>
    </g>
    <g transform="matrix(1.05,0,0,1.05,629.839,262.5)">
        <g transform="matrix(1,0,0,1,-39.5833,-16.6667)">
            <g transform="matrix(4.16667,0,0,4.16667,0,0)">
                <g transform="matrix(0.00359712,0,0,-0.00359712,0,8)">
                    <path d="M966.25,1638.59C982.859,1710.63 1046.58,1965.48 1240.48,1965.48C1254.34,1965.48 1320.83,1965.48 1379,1929.47C1301.44,1915.61 1246.03,1846.36 1246.03,1779.88C1246.03,1735.55 1276.5,1682.92 1351.3,1682.92C1412.25,1682.92 1500.89,1732.78 1500.89,1843.59C1500.89,1987.64 1337.45,2026.42 1243.27,2026.42C1082.59,2026.42 985.641,1879.61 952.391,1815.89C883.141,1998.72 733.547,2026.42 653.219,2026.42C365.109,2026.42 207.219,1669.06 207.219,1599.81C207.219,1572.11 234.906,1572.11 240.453,1572.11C262.609,1572.11 270.922,1577.66 276.469,1602.58C370.656,1896.22 553.484,1965.48 647.672,1965.48C700.313,1965.48 797.266,1940.55 797.266,1779.88C797.266,1694 750.172,1508.39 647.672,1120.58C603.344,948.813 506.391,832.469 384.5,832.469C367.875,832.469 304.172,832.469 246,868.484C315.25,882.328 376.188,940.516 376.188,1018.08C376.188,1092.88 315.25,1115.03 273.703,1115.03C190.594,1115.03 121.328,1043 121.328,954.359C121.328,826.938 259.844,771.531 381.734,771.531C564.563,771.531 664.297,965.438 672.609,982.063C705.844,879.563 805.578,771.531 971.781,771.531C1257.11,771.531 1415.02,1128.88 1415.02,1198.14C1415.02,1225.84 1390.08,1225.84 1381.77,1225.84C1356.84,1225.84 1351.3,1214.77 1345.77,1195.36C1254.34,898.953 1065.97,832.469 977.328,832.469C869.281,832.469 824.969,921.125 824.969,1015.3C824.969,1076.25 841.578,1137.19 872.063,1259.08L966.25,1638.59" style="fill-rule:nonzero;"/>
                </g>
                <g transform="matrix(0.00359712,0,0,-0.00359712,0,8)">
                    <path d="M2252.14,1598.69C2252.14,1629.7 2228.88,1672.36 2174.59,1672.36C2122.25,1672.36 2066.03,1621.95 2066.03,1565.73C2066.03,1532.77 2091.23,1492.06 2143.58,1492.06C2199.8,1492.06 2252.14,1546.34 2252.14,1598.69ZM1856.64,613.828C1848.89,588.625 1839.2,565.359 1839.2,532.406C1839.2,441.281 1916.75,367.609 2023.38,367.609C2217.25,367.609 2302.55,635.156 2302.55,664.234C2302.55,689.438 2277.34,689.438 2271.53,689.438C2244.39,689.438 2242.45,677.813 2234.69,656.484C2190.09,501.391 2104.8,421.891 2029.19,421.891C1990.42,421.891 1980.72,447.094 1980.72,489.75C1980.72,534.344 1994.3,571.172 2011.73,613.828C2031.13,666.172 2052.45,718.516 2073.78,768.922C2091.23,815.453 2161.02,991.875 2168.78,1015.14C2174.59,1034.53 2180.41,1057.8 2180.41,1077.17C2180.41,1168.3 2102.86,1241.97 1996.23,1241.97C1804.3,1241.97 1715.13,978.297 1715.13,945.344C1715.13,920.141 1742.27,920.141 1748.08,920.141C1775.22,920.141 1777.16,929.844 1782.97,951.156C1833.38,1117.89 1918.69,1187.69 1990.42,1187.69C2021.44,1187.69 2038.88,1172.17 2038.88,1119.83C2038.88,1075.23 2027.25,1046.16 1978.78,925.953L1856.64,613.828" style="fill-rule:nonzero;"/>
                </g>
                <g transform="matrix(0.00359712,0,0,-0.00359712,0,8)">
                    <path d="M3305.63,825.141L3898.86,825.141C3924.06,825.141 3970.59,825.141 3970.59,871.672C3970.59,920.141 3926,920.141 3898.86,920.141L3305.63,920.141L3305.63,1515.33C3305.63,1540.53 3305.63,1587.06 3259.09,1587.06C3210.63,1587.06 3210.63,1542.47 3210.63,1515.33L3210.63,920.141L2615.44,920.141C2590.23,920.141 2543.7,920.141 2543.7,873.609C2543.7,825.141 2588.3,825.141 2615.44,825.141L3210.63,825.141L3210.63,229.969C3210.63,204.766 3210.63,158.234 3257.16,158.234C3305.63,158.234 3305.63,202.828 3305.63,229.969L3305.63,825.141" style="fill-rule:nonzero;"/>
                </g>
                <g transform="matrix(0.00359712,0,0,-0.00359712,0,8)">
                    <path d="M4757.47,1620.02C4757.47,1672.36 4753.59,1674.3 4699.3,1674.3C4575.23,1552.16 4398.81,1550.22 4319.31,1550.22L4319.31,1480.42C4365.84,1480.42 4493.8,1480.42 4600.44,1534.7L4600.44,545.969C4600.44,482 4600.44,456.797 4406.56,456.797L4332.89,456.797L4332.89,387C4367.78,388.938 4606.25,394.75 4677.98,394.75C4738.08,394.75 4982.36,388.938 5025,387L5025,456.797L4951.33,456.797C4757.47,456.797 4757.47,482 4757.47,545.969L4757.47,1620.02" style="fill-rule:nonzero;"/>
                </g>
            </g>
        </g>
    </g>
    <g transform="matrix(0.786358,0,0,0.844122,31.5665,24.0829)">
        <ellipse cx="145.165" cy="160.75" rx="6.358" ry="5.923" style="fill:rgb(242,13,13);"/>
    </g>
    <g transform="matrix(0.786358,0,0,0.844122,81.5436,13.3648)">
        <ellipse cx="145.165" cy="160.75" rx="6.358" ry="5.923" style="fill:rgb(242,13,13);"/>
    </g>
    <g transform="matrix(0.786358,0,0,0.844122,140.847,2.60243)">
        <ellipse cx="145.165" cy="160.75" rx="6.358" ry="5.923" style="fill:rgb(242,13,13);"/>
    </g>
    <g transform="matrix(0.786358,0,0,0.844122,447.022,-45.8753)">
        <ellipse cx="145.165" cy="160.75" rx="6.358" ry="5.923" style="fill:rgb(242,13,13);"/>
    </g>
    <g transform="matrix(0.786358,0,0,0.844122,512.626,-43.1174)">
        <ellipse cx="145.165" cy="160.75" rx="6.358" ry="5.923" style="fill:rgb(242,13,13);"/>
    </g>
    <g transform="matrix(0.786358,0,0,0.844122,766.384,-5.03189)">
        <ellipse cx="145.165" cy="160.75" rx="6.358" ry="5.923" style="fill:rgb(242,13,13);"/>
    </g>
    <g transform="matrix(0.96,0,0,0.96,146.041,121.604)">
        <g transform="matrix(1,0,0,1,-20.8333,-20.8333)">
            <g transform="matrix(4.16667,0,0,4.16667,0,0)">
                <g transform="matrix(0.00359712,0,0,-0.00359712,0,10)">
                    <path d="M1251.58,2658.03C1251.58,2663.56 1259.88,2694.03 1259.88,2696.81C1259.88,2699.58 1259.88,2724.52 1226.64,2724.52C1198.94,2724.52 1196.17,2716.2 1185.09,2669.11L1024.42,2029.19C583.953,2015.34 176.734,1646.91 176.734,1270.16C176.734,1007 370.656,788.156 708.609,768.75C686.453,682.875 667.063,594.234 644.906,508.359C611.656,378.156 583.953,272.891 583.953,264.578C583.953,236.875 603.344,234.109 617.203,234.109C631.047,234.109 636.594,236.875 644.906,245.188C650.438,250.734 667.063,317.219 675.375,356L780.641,768.75C1226.64,782.609 1628.31,1156.58 1628.31,1527.8C1628.31,1746.64 1481.5,2001.48 1096.44,2029.19L1251.58,2658.03ZM722.469,829.703C556.25,838.016 356.797,934.969 356.797,1211.98C356.797,1544.41 595.031,1932.23 1007.8,1968.25L722.469,829.703ZM1079.83,1968.25C1290.36,1957.17 1448.25,1829.73 1448.25,1585.97C1448.25,1259.08 1210.02,862.938 794.484,829.703L1079.83,1968.25" style="fill:rgb(255,0,0);fill-rule:nonzero;"/>
                </g>
                <g transform="matrix(0.00359712,0,0,-0.00359712,0,10)">
                    <path d="M2691.38,1005.45C2691.38,1218.7 2666.17,1371.86 2576.98,1507.56C2516.89,1596.75 2396.69,1674.3 2241.59,1674.3C1791.81,1674.3 1791.81,1145.03 1791.81,1005.45C1791.81,865.859 1791.81,348.219 2241.59,348.219C2691.38,348.219 2691.38,865.859 2691.38,1005.45ZM2241.59,402.516C2152.41,402.516 2034.16,454.859 1995.38,613.828C1968.23,728.219 1968.23,887.188 1968.23,1030.66C1968.23,1172.17 1968.23,1319.52 1997.31,1426.14C2038.03,1579.3 2162.11,1620.02 2241.59,1620.02C2346.28,1620.02 2447.09,1556.03 2481.98,1443.59C2513.02,1338.91 2514.95,1199.31 2514.95,1030.66C2514.95,887.188 2514.95,743.719 2489.75,621.578C2450.97,445.156 2319.14,402.516 2241.59,402.516" style="fill:rgb(255,0,0);fill-rule:nonzero;"/>
                </g>
            </g>
        </g>
    </g>
    <g transform="matrix(0.96,0,0,0.96,197.955,112.26)">
        <g transform="matrix(1,0,0,1,-20.8333,-20.8333)">
            <g transform="matrix(4.16667,0,0,4.16667,0,0)">
                <g transform="matrix(0.00359712,0,0,-0.00359712,0,10)">
                    <path d="M1251.58,2658.03C1251.58,2663.56 1259.88,2694.03 1259.88,2696.81C1259.88,2699.58 1259.88,2724.52 1226.64,2724.52C1198.94,2724.52 1196.17,2716.2 1185.09,2669.11L1024.42,2029.19C583.953,2015.34 176.734,1646.91 176.734,1270.16C176.734,1007 370.656,788.156 708.609,768.75C686.453,682.875 667.063,594.234 644.906,508.359C611.656,378.156 583.953,272.891 583.953,264.578C583.953,236.875 603.344,234.109 617.203,234.109C631.047,234.109 636.594,236.875 644.906,245.188C650.438,250.734 667.063,317.219 675.375,356L780.641,768.75C1226.64,782.609 1628.31,1156.58 1628.31,1527.8C1628.31,1746.64 1481.5,2001.48 1096.44,2029.19L1251.58,2658.03ZM722.469,829.703C556.25,838.016 356.797,934.969 356.797,1211.98C356.797,1544.41 595.031,1932.23 1007.8,1968.25L722.469,829.703ZM1079.83,1968.25C1290.36,1957.17 1448.25,1829.73 1448.25,1585.97C1448.25,1259.08 1210.02,862.938 794.484,829.703L1079.83,1968.25" style="fill:rgb(255,0,0);fill-rule:nonzero;"/>
                </g>
                <g transform="matrix(0.00359712,0,0,-0.00359712,0,10)">
                    <path d="M2340.47,1620.02C2340.47,1672.36 2336.59,1674.3 2282.3,1674.3C2158.23,1552.16 1981.81,1550.22 1902.31,1550.22L1902.31,1480.42C1948.84,1480.42 2076.8,1480.42 2183.44,1534.7L2183.44,545.969C2183.44,482 2183.44,456.797 1989.56,456.797L1915.89,456.797L1915.89,387C1950.78,388.938 2189.25,394.75 2260.98,394.75C2321.08,394.75 2565.36,388.938 2608,387L2608,456.797L2534.33,456.797C2340.47,456.797 2340.47,482 2340.47,545.969L2340.47,1620.02" style="fill:rgb(255,0,0);fill-rule:nonzero;"/>
                </g>
            </g>
        </g>
    </g>
    <g transform="matrix(0.96,0,0,0.96,252.382,103.607)">
        <g transform="matrix(1,0,0,1,-20.8333,-20.8333)">
            <g transform="matrix(4.16667,0,0,4.16667,0,0)">
                <g transform="matrix(0.00359712,0,0,-0.00359712,0,10)">
                    <path d="M1251.58,2658.03C1251.58,2663.56 1259.88,2694.03 1259.88,2696.81C1259.88,2699.58 1259.88,2724.52 1226.64,2724.52C1198.94,2724.52 1196.17,2716.2 1185.09,2669.11L1024.42,2029.19C583.953,2015.34 176.734,1646.91 176.734,1270.16C176.734,1007 370.656,788.156 708.609,768.75C686.453,682.875 667.063,594.234 644.906,508.359C611.656,378.156 583.953,272.891 583.953,264.578C583.953,236.875 603.344,234.109 617.203,234.109C631.047,234.109 636.594,236.875 644.906,245.188C650.438,250.734 667.063,317.219 675.375,356L780.641,768.75C1226.64,782.609 1628.31,1156.58 1628.31,1527.8C1628.31,1746.64 1481.5,2001.48 1096.44,2029.19L1251.58,2658.03ZM722.469,829.703C556.25,838.016 356.797,934.969 356.797,1211.98C356.797,1544.41 595.031,1932.23 1007.8,1968.25L722.469,829.703ZM1079.83,1968.25C1290.36,1957.17 1448.25,1829.73 1448.25,1585.97C1448.25,1259.08 1210.02,862.938 794.484,829.703L1079.83,1968.25" style="fill:rgb(255,0,0);fill-rule:nonzero;"/>
                </g>
                <g transform="matrix(0.00359712,0,0,-0.00359712,0,10)">
                    <path d="M2670.05,739.844L2604.13,739.844C2598.31,697.188 2578.92,582.813 2553.72,563.422C2538.22,551.797 2388.94,551.797 2361.8,551.797L2005.06,551.797C2208.64,732.094 2276.48,786.375 2392.81,877.484C2536.28,991.875 2670.05,1112.08 2670.05,1296.25C2670.05,1530.83 2464.55,1674.3 2216.39,1674.3C1975.98,1674.3 1813.14,1505.63 1813.14,1327.27C1813.14,1228.39 1896.5,1218.7 1915.89,1218.7C1962.42,1218.7 2018.64,1251.66 2018.64,1321.45C2018.64,1356.34 2005.06,1424.2 1904.25,1424.2C1964.36,1561.86 2096.19,1604.5 2187.31,1604.5C2381.17,1604.5 2481.98,1453.28 2481.98,1296.25C2481.98,1127.58 2361.8,993.813 2299.75,924.016L1832.53,462.609C1813.14,445.156 1813.14,441.281 1813.14,387L2611.89,387L2670.05,739.844" style="fill:rgb(255,0,0);fill-rule:nonzero;"/>
                </g>
            </g>
        </g>
    </g>
    <g transform="matrix(0.96,0,0,0.96,559.884,54.1237)">
        <g transform="matrix(1,0,0,1,-18.75,-20.8333)">
            <g transform="matrix(4.16667,0,0,4.16667,0,0)">
                <g transform="matrix(0.00359712,0,0,-0.00359712,0,10)">
                    <path d="M1251.58,2658.03C1251.58,2663.56 1259.88,2694.03 1259.88,2696.81C1259.88,2699.58 1259.88,2724.52 1226.64,2724.52C1198.94,2724.52 1196.17,2716.2 1185.09,2669.11L1024.42,2029.19C583.953,2015.34 176.734,1646.91 176.734,1270.16C176.734,1007 370.656,788.156 708.609,768.75C686.453,682.875 667.063,594.234 644.906,508.359C611.656,378.156 583.953,272.891 583.953,264.578C583.953,236.875 603.344,234.109 617.203,234.109C631.047,234.109 636.594,236.875 644.906,245.188C650.438,250.734 667.063,317.219 675.375,356L780.641,768.75C1226.64,782.609 1628.31,1156.58 1628.31,1527.8C1628.31,1746.64 1481.5,2001.48 1096.44,2029.19L1251.58,2658.03ZM722.469,829.703C556.25,838.016 356.797,934.969 356.797,1211.98C356.797,1544.41 595.031,1932.23 1007.8,1968.25L722.469,829.703ZM1079.83,1968.25C1290.36,1957.17 1448.25,1829.73 1448.25,1585.97C1448.25,1259.08 1210.02,862.938 794.484,829.703L1079.83,1968.25" style="fill:rgb(255,0,0);fill-rule:nonzero;"/>
                </g>
                <g transform="matrix(0.00359712,0,0,-0.00359712,0,10)">
                    <path d="M2319.14,1598.69C2319.14,1629.7 2295.88,1672.36 2241.59,1672.36C2189.25,1672.36 2133.03,1621.95 2133.03,1565.73C2133.03,1532.77 2158.23,1492.06 2210.58,1492.06C2266.8,1492.06 2319.14,1546.34 2319.14,1598.69ZM1923.64,613.828C1915.89,588.625 1906.2,565.359 1906.2,532.406C1906.2,441.281 1983.75,367.609 2090.38,367.609C2284.25,367.609 2369.55,635.156 2369.55,664.234C2369.55,689.438 2344.34,689.438 2338.53,689.438C2311.39,689.438 2309.45,677.813 2301.69,656.484C2257.09,501.391 2171.8,421.891 2096.19,421.891C2057.42,421.891 2047.72,447.094 2047.72,489.75C2047.72,534.344 2061.3,571.172 2078.73,613.828C2098.13,666.172 2119.45,718.516 2140.78,768.922C2158.23,815.453 2228.02,991.875 2235.78,1015.14C2241.59,1034.53 2247.41,1057.8 2247.41,1077.17C2247.41,1168.3 2169.86,1241.97 2063.23,1241.97C1871.3,1241.97 1782.13,978.297 1782.13,945.344C1782.13,920.141 1809.27,920.141 1815.08,920.141C1842.22,920.141 1844.16,929.844 1849.97,951.156C1900.38,1117.89 1985.69,1187.69 2057.42,1187.69C2088.44,1187.69 2105.88,1172.17 2105.88,1119.83C2105.88,1075.23 2094.25,1046.16 2045.78,925.953L1923.64,613.828" style="fill:rgb(255,0,0);fill-rule:nonzero;"/>
                </g>
            </g>
        </g>
    </g>
    <g transform="matrix(0.96,0,0,0.96,632.75,58.0962)">
        <g transform="matrix(1,0,0,1,-39.5833,-20.8333)">
            <g transform="matrix(4.16667,0,0,4.16667,0,0)">
                <g transform="matrix(0.00359712,0,0,-0.00359712,0,10)">
                    <path d="M1251.58,2658.03C1251.58,2663.56 1259.88,2694.03 1259.88,2696.81C1259.88,2699.58 1259.88,2724.52 1226.64,2724.52C1198.94,2724.52 1196.17,2716.2 1185.09,2669.11L1024.42,2029.19C583.953,2015.34 176.734,1646.91 176.734,1270.16C176.734,1007 370.656,788.156 708.609,768.75C686.453,682.875 667.063,594.234 644.906,508.359C611.656,378.156 583.953,272.891 583.953,264.578C583.953,236.875 603.344,234.109 617.203,234.109C631.047,234.109 636.594,236.875 644.906,245.188C650.438,250.734 667.063,317.219 675.375,356L780.641,768.75C1226.64,782.609 1628.31,1156.58 1628.31,1527.8C1628.31,1746.64 1481.5,2001.48 1096.44,2029.19L1251.58,2658.03ZM722.469,829.703C556.25,838.016 356.797,934.969 356.797,1211.98C356.797,1544.41 595.031,1932.23 1007.8,1968.25L722.469,829.703ZM1079.83,1968.25C1290.36,1957.17 1448.25,1829.73 1448.25,1585.97C1448.25,1259.08 1210.02,862.938 794.484,829.703L1079.83,1968.25" style="fill:rgb(255,0,0);fill-rule:nonzero;"/>
                </g>
                <g transform="matrix(0.00359712,0,0,-0.00359712,0,10)">
                    <path d="M2319.14,1598.69C2319.14,1629.7 2295.88,1672.36 2241.59,1672.36C2189.25,1672.36 2133.03,1621.95 2133.03,1565.73C2133.03,1532.77 2158.23,1492.06 2210.58,1492.06C2266.8,1492.06 2319.14,1546.34 2319.14,1598.69ZM1923.64,613.828C1915.89,588.625 1906.2,565.359 1906.2,532.406C1906.2,441.281 1983.75,367.609 2090.38,367.609C2284.25,367.609 2369.55,635.156 2369.55,664.234C2369.55,689.438 2344.34,689.438 2338.53,689.438C2311.39,689.438 2309.45,677.813 2301.69,656.484C2257.09,501.391 2171.8,421.891 2096.19,421.891C2057.42,421.891 2047.72,447.094 2047.72,489.75C2047.72,534.344 2061.3,571.172 2078.73,613.828C2098.13,666.172 2119.45,718.516 2140.78,768.922C2158.23,815.453 2228.02,991.875 2235.78,1015.14C2241.59,1034.53 2247.41,1057.8 2247.41,1077.17C2247.41,1168.3 2169.86,1241.97 2063.23,1241.97C1871.3,1241.97 1782.13,978.297 1782.13,945.344C1782.13,920.141 1809.27,920.141 1815.08,920.141C1842.22,920.141 1844.16,929.844 1849.97,951.156C1900.38,1117.89 1985.69,1187.69 2057.42,1187.69C2088.44,1187.69 2105.88,1172.17 2105.88,1119.83C2105.88,1075.23 2094.25,1046.16 2045.78,925.953L1923.64,613.828" style="fill:rgb(255,0,0);fill-rule:nonzero;"/>
                </g>
                <g transform="matrix(0.00359712,0,0,-0.00359712,0,10)">
                    <path d="M3372.63,825.141L3965.86,825.141C3991.06,825.141 4037.59,825.141 4037.59,871.672C4037.59,920.141 3993,920.141 3965.86,920.141L3372.63,920.141L3372.63,1515.33C3372.63,1540.53 3372.63,1587.06 3326.09,1587.06C3277.63,1587.06 3277.63,1542.47 3277.63,1515.33L3277.63,920.141L2682.44,920.141C2657.23,920.141 2610.7,920.141 2610.7,873.609C2610.7,825.141 2655.3,825.141 2682.44,825.141L3277.63,825.141L3277.63,229.969C3277.63,204.766 3277.63,158.234 3324.16,158.234C3372.63,158.234 3372.63,202.828 3372.63,229.969L3372.63,825.141" style="fill:rgb(255,0,0);fill-rule:nonzero;"/>
                </g>
                <g transform="matrix(0.00359712,0,0,-0.00359712,0,10)">
                    <path d="M4824.47,1620.02C4824.47,1672.36 4820.59,1674.3 4766.3,1674.3C4642.23,1552.16 4465.81,1550.22 4386.31,1550.22L4386.31,1480.42C4432.84,1480.42 4560.8,1480.42 4667.44,1534.7L4667.44,545.969C4667.44,482 4667.44,456.797 4473.56,456.797L4399.89,456.797L4399.89,387C4434.78,388.938 4673.25,394.75 4744.98,394.75C4805.08,394.75 5049.36,388.938 5092,387L5092,456.797L5018.33,456.797C4824.47,456.797 4824.47,482 4824.47,545.969L4824.47,1620.02" style="fill:rgb(255,0,0);fill-rule:nonzero;"/>
                </g>
            </g>
        </g>
    </g>
    <g transform="matrix(0.96,0,0,0.96,880.907,99.0057)">
        <g transform="matrix(1,0,0,1,-47.9167,-20.8333)">
            <g transform="matrix(4.16667,0,0,4.16667,0,0)">
                <g transform="matrix(0.00359712,0,0,-0.00359712,0,10)">
                    <path d="M1251.58,2658.03C1251.58,2663.56 1259.88,2694.03 1259.88,2696.81C1259.88,2699.58 1259.88,2724.52 1226.64,2724.52C1198.94,2724.52 1196.17,2716.2 1185.09,2669.11L1024.42,2029.19C583.953,2015.34 176.734,1646.91 176.734,1270.16C176.734,1007 370.656,788.156 708.609,768.75C686.453,682.875 667.063,594.234 644.906,508.359C611.656,378.156 583.953,272.891 583.953,264.578C583.953,236.875 603.344,234.109 617.203,234.109C631.047,234.109 636.594,236.875 644.906,245.188C650.438,250.734 667.063,317.219 675.375,356L780.641,768.75C1226.64,782.609 1628.31,1156.58 1628.31,1527.8C1628.31,1746.64 1481.5,2001.48 1096.44,2029.19L1251.58,2658.03ZM722.469,829.703C556.25,838.016 356.797,934.969 356.797,1211.98C356.797,1544.41 595.031,1932.23 1007.8,1968.25L722.469,829.703ZM1079.83,1968.25C1290.36,1957.17 1448.25,1829.73 1448.25,1585.97C1448.25,1259.08 1210.02,862.938 794.484,829.703L1079.83,1968.25" style="fill:rgb(255,0,0);fill-rule:nonzero;"/>
                </g>
                <g transform="matrix(0.00359712,0,0,-0.00359712,0,10)">
                    <path d="M3307.88,1499.81C3327.27,1573.48 3358.28,1637.47 3513.38,1641.34C3523.08,1641.34 3552.16,1643.28 3552.16,1683.98C3552.16,1695.63 3542.45,1711.13 3523.08,1711.13C3459.09,1711.13 3387.36,1703.38 3321.45,1703.38C3274.92,1703.38 3162.47,1711.13 3115.94,1711.13C3106.25,1711.13 3077.17,1711.13 3077.17,1668.48C3077.17,1643.28 3102.38,1641.34 3119.83,1641.34C3210.94,1639.41 3243.91,1610.31 3243.91,1561.86C3243.91,1546.34 3241.95,1536.66 3236.14,1515.33L3024.83,670.047L2532.39,1678.17C2516.89,1711.13 2513.02,1711.13 2466.48,1711.13L2200.88,1711.13C2164.05,1711.13 2138.84,1711.13 2138.84,1668.48C2138.84,1641.34 2162.11,1641.34 2202.81,1641.34C2243.53,1641.34 2286.19,1639.41 2326.89,1631.64L2067.11,594.438C2049.66,520.766 2016.7,462.609 1865.48,456.797C1851.91,456.797 1824.77,454.859 1824.77,416.078C1824.77,394.75 1840.28,387 1853.84,387C1917.83,387 1989.56,394.75 2055.47,394.75C2102,394.75 2214.45,387 2260.98,387C2280.36,387 2299.75,396.688 2299.75,427.719C2299.75,454.859 2276.48,456.797 2255.16,456.797C2133.03,460.672 2133.03,511.078 2133.03,538.219C2133.03,545.969 2133.03,555.672 2140.78,586.688L2388.94,1579.3L2955.03,419.953C2970.55,388.938 2978.3,387 2997.69,387C3028.7,387 3028.7,392.813 3038.39,427.719L3307.88,1499.81" style="fill:rgb(255,0,0);fill-rule:nonzero;"/>
                </g>
                <g transform="matrix(0.00359712,0,0,-0.00359712,0,10)">
                    <path d="M5095.39,825.141C5126.41,825.141 5172.94,825.141 5172.94,871.672C5172.94,920.141 5128.34,920.141 5095.39,920.141L3939.92,920.141C3908.91,920.141 3862.38,920.141 3862.38,873.609C3862.38,825.141 3906.97,825.141 3939.92,825.141L5095.39,825.141" style="fill:rgb(255,0,0);fill-rule:nonzero;"/>
                </g>
                <g transform="matrix(0.00359712,0,0,-0.00359712,0,10)">
                    <path d="M6034.47,1620.02C6034.47,1672.36 6030.59,1674.3 5976.3,1674.3C5852.23,1552.16 5675.81,1550.22 5596.31,1550.22L5596.31,1480.42C5642.84,1480.42 5770.8,1480.42 5877.44,1534.7L5877.44,545.969C5877.44,482 5877.44,456.797 5683.56,456.797L5609.89,456.797L5609.89,387C5644.78,388.938 5883.25,394.75 5954.98,394.75C6015.08,394.75 6259.36,388.938 6302,387L6302,456.797L6228.33,456.797C6034.47,456.797 6034.47,482 6034.47,545.969L6034.47,1620.02" style="fill:rgb(255,0,0);fill-rule:nonzero;"/>
                </g>
            </g>
        </g>
    </g>
    <g transform="matrix(1.2,0,0,1.2,145.734,262.5)">
        <g transform="matrix(1,0,0,1,-20.8333,-14.5833)">
            <g transform="matrix(4.16667,0,0,4.16667,0,0)">
                <g transform="matrix(0.00359712,0,0,-0.00359712,0,7)">
                    <path d="M966.922,1361.22C983.563,1433.3 1047.31,1688.33 1241.38,1688.33C1255.23,1688.33 1321.77,1688.33 1379.98,1652.3C1302.36,1638.44 1246.92,1569.13 1246.92,1502.59C1246.92,1458.23 1277.41,1405.56 1352.27,1405.56C1413.25,1405.56 1501.97,1455.47 1501.97,1566.36C1501.97,1710.52 1338.41,1749.33 1244.14,1749.33C1083.36,1749.33 986.328,1602.39 953.063,1538.64C883.75,1721.59 734.063,1749.33 653.656,1749.33C365.344,1749.33 207.328,1391.7 207.328,1322.41C207.328,1294.67 235.063,1294.67 240.594,1294.67C262.781,1294.67 271.094,1300.22 276.641,1325.17C370.891,1619.03 553.859,1688.33 648.109,1688.33C700.797,1688.33 797.813,1663.39 797.813,1502.59C797.813,1416.66 750.688,1230.92 648.109,842.813C603.766,670.922 506.734,554.5 384.75,554.5C368.125,554.5 304.359,554.5 246.141,590.531C315.453,604.391 376.438,662.609 376.438,740.234C376.438,815.078 315.453,837.266 273.859,837.266C190.703,837.266 121.391,765.188 121.391,676.469C121.391,548.953 260,493.5 381.984,493.5C564.953,493.5 664.75,687.563 673.063,704.188C706.328,601.625 806.141,493.5 972.469,493.5C1258,493.5 1416.02,851.125 1416.02,920.422C1416.02,948.156 1391.08,948.156 1382.75,948.156C1357.81,948.156 1352.27,937.063 1346.72,917.656C1255.23,621.031 1066.72,554.5 978.016,554.5C869.891,554.5 825.547,643.203 825.547,737.469C825.547,798.453 842.172,859.438 872.672,981.422L966.922,1361.22" style="fill-rule:nonzero;"/>
                </g>
                <g transform="matrix(0.00359712,0,0,-0.00359712,0,7)">
                    <path d="M2624.23,727.359C2624.23,940.594 2599.03,1093.72 2509.86,1229.41C2449.77,1318.58 2329.59,1396.13 2174.52,1396.13C1724.8,1396.13 1724.8,866.922 1724.8,727.359C1724.8,587.797 1724.8,70.234 2174.52,70.234C2624.23,70.234 2624.23,587.797 2624.23,727.359ZM2174.52,124.5C2085.34,124.5 1967.11,176.844 1928.33,335.797C1901.2,450.172 1901.2,609.109 1901.2,752.563C1901.2,894.063 1901.2,1041.39 1930.27,1148C1970.98,1301.14 2095.05,1341.84 2174.52,1341.84C2279.19,1341.84 2379.98,1277.88 2414.88,1165.45C2445.89,1060.77 2447.83,921.203 2447.83,752.563C2447.83,609.109 2447.83,465.672 2422.64,343.547C2383.86,167.156 2252.05,124.5 2174.52,124.5" style="fill-rule:nonzero;"/>
                </g>
            </g>
        </g>
    </g>
    <g transform="matrix(1.2,0,0,1.2,881.581,262.5)">
        <g transform="matrix(1,0,0,1,-47.9167,-14.5833)">
            <g transform="matrix(4.16667,0,0,4.16667,0,0)">
                <g transform="matrix(0.00359712,0,0,-0.00359712,0,7)">
                    <path d="M966.922,1361.22C983.563,1433.3 1047.31,1688.33 1241.38,1688.33C1255.23,1688.33 1321.77,1688.33 1379.98,1652.3C1302.36,1638.44 1246.92,1569.13 1246.92,1502.59C1246.92,1458.23 1277.41,1405.56 1352.27,1405.56C1413.25,1405.56 1501.97,1455.47 1501.97,1566.36C1501.97,1710.52 1338.41,1749.33 1244.14,1749.33C1083.36,1749.33 986.328,1602.39 953.063,1538.64C883.75,1721.59 734.063,1749.33 653.656,1749.33C365.344,1749.33 207.328,1391.7 207.328,1322.41C207.328,1294.67 235.063,1294.67 240.594,1294.67C262.781,1294.67 271.094,1300.22 276.641,1325.17C370.891,1619.03 553.859,1688.33 648.109,1688.33C700.797,1688.33 797.813,1663.39 797.813,1502.59C797.813,1416.66 750.688,1230.92 648.109,842.813C603.766,670.922 506.734,554.5 384.75,554.5C368.125,554.5 304.359,554.5 246.141,590.531C315.453,604.391 376.438,662.609 376.438,740.234C376.438,815.078 315.453,837.266 273.859,837.266C190.703,837.266 121.391,765.188 121.391,676.469C121.391,548.953 260,493.5 381.984,493.5C564.953,493.5 664.75,687.563 673.063,704.188C706.328,601.625 806.141,493.5 972.469,493.5C1258,493.5 1416.02,851.125 1416.02,920.422C1416.02,948.156 1391.08,948.156 1382.75,948.156C1357.81,948.156 1352.27,937.063 1346.72,917.656C1255.23,621.031 1066.72,554.5 978.016,554.5C869.891,554.5 825.547,643.203 825.547,737.469C825.547,798.453 842.172,859.438 872.672,981.422L966.922,1361.22" style="fill-rule:nonzero;"/>
                </g>
                <g transform="matrix(0.00359712,0,0,-0.00359712,0,7)">
                    <path d="M3240.66,1221.66C3260.03,1295.33 3291.05,1359.28 3446.13,1363.17C3455.81,1363.17 3484.89,1365.11 3484.89,1405.81C3484.89,1417.44 3475.2,1432.95 3455.81,1432.95C3391.84,1432.95 3320.13,1425.2 3254.22,1425.2C3207.7,1425.2 3095.27,1432.95 3048.75,1432.95C3039.06,1432.95 3009.98,1432.95 3009.98,1390.3C3009.98,1365.11 3035.17,1363.17 3052.63,1363.17C3143.73,1361.23 3176.69,1332.16 3176.69,1283.69C3176.69,1268.19 3174.75,1258.48 3168.94,1237.17L2957.64,392.016L2465.28,1400C2449.77,1432.95 2445.89,1432.95 2399.38,1432.95L2133.81,1432.95C2096.98,1432.95 2071.78,1432.95 2071.78,1390.3C2071.78,1363.17 2095.05,1363.17 2135.75,1363.17C2176.45,1363.17 2219.09,1361.23 2259.81,1353.47L2000.06,316.406C1982.61,242.75 1949.66,184.594 1798.45,178.781C1784.89,178.781 1757.75,176.844 1757.75,138.078C1757.75,116.75 1773.27,109 1786.83,109C1850.8,109 1922.52,116.75 1988.42,116.75C2034.95,116.75 2147.38,109 2193.91,109C2213.28,109 2232.67,118.688 2232.67,149.703C2232.67,176.844 2209.41,178.781 2188.08,178.781C2065.97,182.656 2065.97,233.063 2065.97,260.203C2065.97,267.953 2065.97,277.641 2073.72,308.656L2321.83,1301.14L2887.86,141.953C2903.36,110.938 2911.13,109 2930.5,109C2961.52,109 2961.52,114.813 2971.2,149.703L3240.66,1221.66" style="fill-rule:nonzero;"/>
                </g>
                <g transform="matrix(0.00359712,0,0,-0.00359712,0,7)">
                    <path d="M5028.19,547.078C5059.2,547.078 5105.73,547.078 5105.73,593.609C5105.73,642.063 5061.14,642.063 5028.19,642.063L3872.89,642.063C3841.88,642.063 3795.34,642.063 3795.34,595.547C3795.34,547.078 3839.94,547.078 3872.89,547.078L5028.19,547.078" style="fill-rule:nonzero;"/>
                </g>
                <g transform="matrix(0.00359712,0,0,-0.00359712,0,7)">
                    <path d="M5966.38,1341.84C5966.38,1394.19 5962.5,1396.13 5908.22,1396.13C5784.16,1274 5607.77,1272.06 5528.3,1272.06L5528.3,1202.28C5574.81,1202.28 5702.75,1202.28 5809.36,1256.55L5809.36,267.953C5809.36,203.984 5809.36,178.781 5615.52,178.781L5541.86,178.781L5541.86,109C5576.75,110.938 5815.17,116.75 5886.91,116.75C5946.98,116.75 6191.23,110.938 6233.88,109L6233.88,178.781L6160.22,178.781C5966.38,178.781 5966.38,203.984 5966.38,267.953L5966.38,1341.84" style="fill-rule:nonzero;"/>
                </g>
            </g>
        </g>
    </g>
</svg>
