<?xml version="1.0" encoding="UTF-8" standalone="no"?>
<!DOCTYPE svg PUBLIC "-//W3C//DTD SVG 1.1//EN" "http://www.w3.org/Graphics/SVG/1.1/DTD/svg11.dtd">
<svg width="100%" height="100%" viewBox="0 0 1024 300" version="1.1" xmlns="http://www.w3.org/2000/svg" xmlns:xlink="http://www.w3.org/1999/xlink" xml:space="preserve" xmlns:serif="http://www.serif.com/" style="fill-rule:evenodd;clip-rule:evenodd;stroke-linecap:round;stroke-miterlimit:10;">
    <g transform="matrix(1,0,0,1,-33.2964,222.304)">
        <g transform="matrix(1,-0,-0,1,33.2964,-222.304)">
            <path d="M145.471,213.889L145.476,230.556" style="fill:none;stroke:black;stroke-width:4.17px;"/>
            <path d="M880.373,213.669L880.378,230.336" style="fill:none;stroke:black;stroke-width:4.17px;"/>
            <path d="M145.473,222.223C187.091,222.21 838.758,222.015 880.376,222.002" style="fill:none;stroke:black;stroke-width:4.17px;stroke-linejoin:round;stroke-miterlimit:1.5;"/>
        </g>
    </g>
    <g transform="matrix(1.2,0,0,1.2,145.29,265)">
        <g transform="matrix(1,0,0,1,-52.0833,-12.5)">
            <g transform="matrix(4.16667,0,0,4.16667,0,0)">
                <g transform="matrix(0.00359712,0,0,-0.00359712,0,6)">
                    <path d="M966.25,1082.59C982.859,1154.63 1046.58,1409.48 1240.48,1409.48C1254.34,1409.48 1320.83,1409.48 1379,1373.47C1301.44,1359.61 1246.03,1290.36 1246.03,1223.88C1246.03,1179.55 1276.5,1126.92 1351.3,1126.92C1412.25,1126.92 1500.89,1176.78 1500.89,1287.59C1500.89,1431.64 1337.45,1470.42 1243.27,1470.42C1082.59,1470.42 985.641,1323.61 952.391,1259.89C883.141,1442.72 733.547,1470.42 653.219,1470.42C365.109,1470.42 207.219,1113.06 207.219,1043.81C207.219,1016.11 234.906,1016.11 240.453,1016.11C262.609,1016.11 270.922,1021.66 276.469,1046.58C370.656,1340.22 553.484,1409.48 647.672,1409.48C700.313,1409.48 797.266,1384.55 797.266,1223.88C797.266,1138 750.172,952.391 647.672,564.578C603.344,392.813 506.391,276.469 384.5,276.469C367.875,276.469 304.172,276.469 246,312.484C315.25,326.328 376.188,384.516 376.188,462.078C376.188,536.875 315.25,559.031 273.703,559.031C190.594,559.031 121.328,487 121.328,398.359C121.328,270.938 259.844,215.531 381.734,215.531C564.563,215.531 664.297,409.438 672.609,426.063C705.844,323.563 805.578,215.531 971.781,215.531C1257.11,215.531 1415.02,572.875 1415.02,642.141C1415.02,669.844 1390.08,669.844 1381.77,669.844C1356.84,669.844 1351.3,658.766 1345.77,639.359C1254.34,342.953 1065.97,276.469 977.328,276.469C869.281,276.469 824.969,365.125 824.969,459.297C824.969,520.25 841.578,581.188 872.063,703.078L966.25,1082.59" style="fill-rule:nonzero;"/>
                </g>
                <g transform="matrix(0.00359712,0,0,-0.00359712,0,6)">
                    <path d="M4296.13,1151.84C4337.67,1151.84 4390.31,1151.84 4390.31,1207.25C4390.31,1262.66 4337.67,1262.66 4298.89,1262.66L2639.55,1262.66C2600.77,1262.66 2548.13,1262.66 2548.13,1207.25C2548.13,1151.84 2600.77,1151.84 2642.31,1151.84L4296.13,1151.84ZM4298.89,614.438C4337.67,614.438 4390.31,614.438 4390.31,669.844C4390.31,725.25 4337.67,725.25 4296.13,725.25L2642.31,725.25C2600.77,725.25 2548.13,725.25 2548.13,669.844C2548.13,614.438 2600.77,614.438 2639.55,614.438L4298.89,614.438" style="fill-rule:nonzero;"/>
                </g>
                <g transform="matrix(0.00359712,0,0,-0.00359712,0,6)">
                    <path d="M6350.28,1293.13C6300.42,1395.63 6220.08,1470.42 6095.42,1470.42C5771.31,1470.42 5427.81,1063.2 5427.81,658.766C5427.81,398.359 5580.17,215.531 5796.25,215.531C5851.64,215.531 5990.16,226.609 6156.36,423.297C6178.53,306.938 6275.48,215.531 6408.45,215.531C6505.41,215.531 6569.13,279.25 6613.45,367.891C6660.55,467.609 6696.55,636.594 6696.55,642.141C6696.55,669.844 6671.63,669.844 6663.31,669.844C6635.61,669.844 6632.84,658.766 6624.53,619.969C6577.44,439.906 6527.58,276.469 6414,276.469C6339.2,276.469 6330.89,348.5 6330.89,403.906C6330.89,464.844 6336.42,487 6366.91,608.891C6397.38,725.25 6402.91,752.938 6427.84,858.219L6527.58,1246.03C6546.97,1323.61 6546.97,1329.14 6546.97,1340.22C6546.97,1387.31 6513.72,1415.02 6466.63,1415.02C6400.14,1415.02 6358.59,1354.08 6350.28,1293.13ZM6170.22,575.656C6156.36,525.781 6156.36,520.25 6114.81,473.156C5992.92,320.797 5879.34,276.469 5801.78,276.469C5663.28,276.469 5624.48,428.828 5624.48,536.875C5624.48,675.375 5713.14,1016.11 5776.84,1143.55C5862.73,1306.98 5987.39,1409.48 6098.19,1409.48C6278.25,1409.48 6317.03,1182.33 6317.03,1165.7C6317.03,1149.08 6311.5,1132.45 6308.73,1118.61L6170.22,575.656" style="fill-rule:nonzero;"/>
                </g>
            </g>
        </g>
    </g>
    <g transform="matrix(1.25,0,0,1.25,880.793,265)">
        <g transform="matrix(1,0,0,1,-50,-16.6667)">
            <g transform="matrix(4.16667,0,0,4.16667,0,0)">
                <g transform="matrix(0.00359712,0,0,-0.00359712,0,8)">
                    <path d="M966.25,1082.59C982.859,1154.63 1046.58,1409.48 1240.48,1409.48C1254.34,1409.48 1320.83,1409.48 1379,1373.47C1301.44,1359.61 1246.03,1290.36 1246.03,1223.88C1246.03,1179.55 1276.5,1126.92 1351.3,1126.92C1412.25,1126.92 1500.89,1176.78 1500.89,1287.59C1500.89,1431.64 1337.45,1470.42 1243.27,1470.42C1082.59,1470.42 985.641,1323.61 952.391,1259.89C883.141,1442.72 733.547,1470.42 653.219,1470.42C365.109,1470.42 207.219,1113.06 207.219,1043.81C207.219,1016.11 234.906,1016.11 240.453,1016.11C262.609,1016.11 270.922,1021.66 276.469,1046.58C370.656,1340.22 553.484,1409.48 647.672,1409.48C700.313,1409.48 797.266,1384.55 797.266,1223.88C797.266,1138 750.172,952.391 647.672,564.578C603.344,392.813 506.391,276.469 384.5,276.469C367.875,276.469 304.172,276.469 246,312.484C315.25,326.328 376.188,384.516 376.188,462.078C376.188,536.875 315.25,559.031 273.703,559.031C190.594,559.031 121.328,487 121.328,398.359C121.328,270.938 259.844,215.531 381.734,215.531C564.563,215.531 664.297,409.438 672.609,426.063C705.844,323.563 805.578,215.531 971.781,215.531C1257.11,215.531 1415.02,572.875 1415.02,642.141C1415.02,669.844 1390.08,669.844 1381.77,669.844C1356.84,669.844 1351.3,658.766 1345.77,639.359C1254.34,342.953 1065.97,276.469 977.328,276.469C869.281,276.469 824.969,365.125 824.969,459.297C824.969,520.25 841.578,581.188 872.063,703.078L966.25,1082.59" style="fill-rule:nonzero;"/>
                </g>
                <g transform="matrix(0.00359712,0,0,-0.00359712,0,8)">
                    <path d="M4296.13,1151.84C4337.67,1151.84 4390.31,1151.84 4390.31,1207.25C4390.31,1262.66 4337.67,1262.66 4298.89,1262.66L2639.55,1262.66C2600.77,1262.66 2548.13,1262.66 2548.13,1207.25C2548.13,1151.84 2600.77,1151.84 2642.31,1151.84L4296.13,1151.84ZM4298.89,614.438C4337.67,614.438 4390.31,614.438 4390.31,669.844C4390.31,725.25 4337.67,725.25 4296.13,725.25L2642.31,725.25C2600.77,725.25 2548.13,725.25 2548.13,669.844C2548.13,614.438 2600.77,614.438 2639.55,614.438L4298.89,614.438" style="fill-rule:nonzero;"/>
                </g>
                <g transform="matrix(0.00359712,0,0,-0.00359712,0,8)">
                    <path d="M5979.08,2138.03C5979.08,2140.81 5979.08,2168.52 5943.06,2168.52C5879.34,2168.52 5677.13,2146.34 5605.09,2140.81C5582.94,2138.03 5552.47,2135.27 5552.47,2085.41C5552.47,2052.16 5577.39,2052.16 5618.95,2052.16C5751.92,2052.16 5757.45,2032.77 5757.45,2005.06C5757.45,1985.67 5732.53,1891.48 5718.67,1833.31L5491.52,930.234C5458.28,791.734 5447.2,747.406 5447.2,650.453C5447.2,387.281 5594.02,215.531 5799.02,215.531C6125.89,215.531 6466.63,628.281 6466.63,1027.19C6466.63,1279.28 6319.81,1470.42 6098.19,1470.42C5970.77,1470.42 5857.19,1390.09 5774.08,1304.22L5979.08,2138.03ZM5718.67,1090.91C5735.3,1151.84 5735.3,1157.39 5760.23,1187.86C5895.97,1367.92 6020.63,1409.48 6092.66,1409.48C6192.38,1409.48 6267.17,1326.38 6267.17,1149.08C6267.17,985.641 6175.77,667.063 6125.89,561.797C6034.48,376.203 5907.05,276.469 5799.02,276.469C5704.83,276.469 5613.41,351.266 5613.41,556.266C5613.41,608.891 5613.41,661.531 5657.73,836.047L5718.67,1090.91" style="fill-rule:nonzero;"/>
                </g>
            </g>
        </g>
    </g>
    <g transform="matrix(1.09091,0,0,1.09091,259.862,89.1232)">
        <g transform="matrix(1,0,0,1,-56.25,-22.9167)">
            <g transform="matrix(4.16667,0,0,4.16667,0,0)">
                <g transform="matrix(0.00359712,0,0,-0.00359712,0,11)">
                    <path d="M1251.58,2658.03C1251.58,2663.56 1259.88,2694.03 1259.88,2696.81C1259.88,2699.58 1259.88,2724.52 1226.64,2724.52C1198.94,2724.52 1196.17,2716.2 1185.09,2669.11L1024.42,2029.19C583.953,2015.34 176.734,1646.91 176.734,1270.16C176.734,1007 370.656,788.156 708.609,768.75C686.453,682.875 667.063,594.234 644.906,508.359C611.656,378.156 583.953,272.891 583.953,264.578C583.953,236.875 603.344,234.109 617.203,234.109C631.047,234.109 636.594,236.875 644.906,245.188C650.438,250.734 667.063,317.219 675.375,356L780.641,768.75C1226.64,782.609 1628.31,1156.58 1628.31,1527.8C1628.31,1746.64 1481.5,2001.48 1096.44,2029.19L1251.58,2658.03ZM722.469,829.703C556.25,838.016 356.797,934.969 356.797,1211.98C356.797,1544.41 595.031,1932.23 1007.8,1968.25L722.469,829.703ZM1079.83,1968.25C1290.36,1957.17 1448.25,1829.73 1448.25,1585.97C1448.25,1259.08 1210.02,862.938 794.484,829.703L1079.83,1968.25" style="fill:rgb(255,0,0);fill-rule:nonzero;"/>
                </g>
                <g transform="matrix(0.00359712,0,0,-0.00359712,0,11)">
                    <path d="M2607.94,137.156C2607.94,145.469 2607.94,151 2560.84,198.094C2214.56,547.141 2125.92,1070.7 2125.92,1494.55C2125.92,1976.56 2231.19,2458.58 2571.92,2804.84C2607.94,2838.09 2607.94,2843.63 2607.94,2851.94C2607.94,2871.33 2596.84,2879.64 2580.23,2879.64C2552.53,2879.64 2303.22,2691.27 2139.77,2339.45C1998.48,2034.73 1965.25,1727.25 1965.25,1494.55C1965.25,1278.47 1995.72,943.281 2148.08,630.25C2314.3,289.516 2552.53,109.453 2580.23,109.453C2596.84,109.453 2607.94,117.766 2607.94,137.156" style="fill:rgb(255,0,0);fill-rule:nonzero;"/>
                </g>
                <g transform="matrix(0.00359712,0,0,-0.00359712,0,11)">
                    <path d="M3694.25,1638.59C3710.86,1710.63 3774.58,1965.48 3968.48,1965.48C3982.34,1965.48 4048.83,1965.48 4107,1929.47C4029.44,1915.61 3974.03,1846.36 3974.03,1779.88C3974.03,1735.55 4004.5,1682.92 4079.3,1682.92C4140.25,1682.92 4228.89,1732.78 4228.89,1843.59C4228.89,1987.64 4065.45,2026.42 3971.27,2026.42C3810.59,2026.42 3713.64,1879.61 3680.39,1815.89C3611.14,1998.72 3461.55,2026.42 3381.22,2026.42C3093.11,2026.42 2935.22,1669.06 2935.22,1599.81C2935.22,1572.11 2962.91,1572.11 2968.45,1572.11C2990.61,1572.11 2998.92,1577.66 3004.47,1602.58C3098.66,1896.22 3281.48,1965.48 3375.67,1965.48C3428.31,1965.48 3525.27,1940.55 3525.27,1779.88C3525.27,1694 3478.17,1508.39 3375.67,1120.58C3331.34,948.813 3234.39,832.469 3112.5,832.469C3095.88,832.469 3032.17,832.469 2974,868.484C3043.25,882.328 3104.19,940.516 3104.19,1018.08C3104.19,1092.88 3043.25,1115.03 3001.7,1115.03C2918.59,1115.03 2849.33,1043 2849.33,954.359C2849.33,826.938 2987.84,771.531 3109.73,771.531C3292.56,771.531 3392.3,965.438 3400.61,982.063C3433.84,879.563 3533.58,771.531 3699.78,771.531C3985.11,771.531 4143.02,1128.88 4143.02,1198.14C4143.02,1225.84 4118.08,1225.84 4109.77,1225.84C4084.84,1225.84 4079.3,1214.77 4073.77,1195.36C3982.34,898.953 3793.97,832.469 3705.33,832.469C3597.28,832.469 3552.97,921.125 3552.97,1015.3C3552.97,1076.25 3569.58,1137.19 3600.06,1259.08L3694.25,1638.59" style="fill:rgb(255,0,0);fill-rule:nonzero;"/>
                </g>
                <g transform="matrix(0.00359712,0,0,-0.00359712,0,11)">
                    <path d="M4912.34,804.766C4912.34,987.609 4843.09,1095.64 4735.06,1095.64C4643.64,1095.64 4588.23,1026.39 4588.23,948.813C4588.23,874.031 4643.64,802 4735.06,802C4768.3,802 4804.31,813.078 4832.02,838.016C4840.33,843.547 4843.09,846.328 4845.86,846.328C4848.64,846.328 4851.41,843.547 4851.41,804.766C4851.41,599.781 4754.45,433.563 4663.03,342.156C4632.56,311.672 4632.56,306.141 4632.56,297.828C4632.56,278.438 4646.41,267.359 4660.27,267.359C4690.73,267.359 4912.34,480.656 4912.34,804.766" style="fill:rgb(255,0,0);fill-rule:nonzero;"/>
                </g>
                <g transform="matrix(0.00359712,0,0,-0.00359712,0,11)">
                    <path d="M6147.66,1910.08L6408.06,1910.08C6463.45,1910.08 6491.16,1910.08 6491.16,1965.48C6491.16,1995.95 6463.45,1995.95 6413.59,1995.95L6169.81,1995.95C6269.55,2389.31 6283.39,2444.72 6283.39,2461.34C6283.39,2508.44 6250.16,2536.14 6203.06,2536.14C6194.75,2536.14 6117.19,2533.38 6092.25,2436.41L5984.22,1995.95L5723.81,1995.95C5668.42,1995.95 5640.72,1995.95 5640.72,1943.31C5640.72,1910.08 5662.88,1910.08 5718.28,1910.08L5962.06,1910.08C5762.61,1123.34 5751.52,1076.25 5751.52,1026.39C5751.52,876.797 5856.78,771.531 6006.38,771.531C6288.94,771.531 6446.84,1175.97 6446.84,1198.14C6446.84,1225.84 6424.67,1225.84 6413.59,1225.84C6388.67,1225.84 6385.89,1217.53 6372.05,1187.06C6252.92,898.953 6106.11,832.469 6011.92,832.469C5953.75,832.469 5926.05,868.484 5926.05,959.906C5926.05,1026.39 5931.58,1045.78 5942.67,1092.88L6147.66,1910.08" style="fill:rgb(255,0,0);fill-rule:nonzero;"/>
                </g>
                <g transform="matrix(0.00359712,0,0,-0.00359712,0,11)">
                    <path d="M7382.58,1494.55C7382.58,1710.63 7352.11,2045.81 7199.75,2358.84C7033.55,2699.58 6795.3,2879.64 6767.61,2879.64C6750.98,2879.64 6739.91,2868.56 6739.91,2851.94C6739.91,2843.63 6739.91,2838.09 6792.53,2788.22C7064.02,2513.97 7221.91,2073.52 7221.91,1494.55C7221.91,1020.84 7119.42,533.297 6775.91,184.25C6739.91,151 6739.91,145.469 6739.91,137.156C6739.91,120.531 6750.98,109.453 6767.61,109.453C6795.3,109.453 7044.63,297.828 7208.06,649.641C7349.34,954.359 7382.58,1261.84 7382.58,1494.55" style="fill:rgb(255,0,0);fill-rule:nonzero;"/>
                </g>
            </g>
        </g>
    </g>
    <g transform="matrix(1,0,0,1,-23.0713,0)">
        <path d="M168.74,159.725C168.74,159.725 512.709,88.279 619.43,88.279C686.98,88.279 761.853,152.687 809.067,159.725C841.41,164.546 902.716,130.506 902.716,130.506" style="fill:none;stroke:rgb(242,13,13);stroke-opacity:0.5;stroke-width:4.17px;stroke-linejoin:round;stroke-miterlimit:1.5;"/>
    </g>
    <g transform="matrix(0.999917,-0.00840386,0.012852,0.653839,-26.3457,78.699)">
        <path d="M169.166,221.719L170.398,125.863" style="fill:none;stroke:black;stroke-width:2.45px;stroke-linejoin:round;stroke-miterlimit:1.5;stroke-dasharray:4.91,4.91,0,0,0,0;"/>
    </g>
    <g transform="matrix(0.999917,-0.0124524,0.012852,0.96882,708.532,9.31786)">
        <path d="M169.166,221.719L170.398,125.863" style="fill:none;stroke:black;stroke-width:2.12px;stroke-linejoin:round;stroke-miterlimit:1.5;stroke-dasharray:4.23,4.23,0,0,0,0;"/>
    </g>
    <g transform="matrix(1,0,0,1,9.93247,83.2009)">
        <text x="484.751px" y="51.703px" style="font-family:'YuKyo-Bold', 'YuKyokasho';font-weight:700;font-size:83.333px;fill:white;stroke:rgb(242,13,13);stroke-width:4.17px;stroke-linecap:butt;stroke-linejoin:round;stroke-miterlimit:2;">?</text>
    </g>
</svg>
