<?xml version="1.0" encoding="UTF-8" standalone="no"?>
<!DOCTYPE svg PUBLIC "-//W3C//DTD SVG 1.1//EN" "http://www.w3.org/Graphics/SVG/1.1/DTD/svg11.dtd">
<svg width="100%" height="100%" viewBox="0 0 1024 300" version="1.1" xmlns="http://www.w3.org/2000/svg" xmlns:xlink="http://www.w3.org/1999/xlink" xml:space="preserve" xmlns:serif="http://www.serif.com/" style="fill-rule:evenodd;clip-rule:evenodd;stroke-linecap:round;stroke-miterlimit:10;">
    <g transform="matrix(0.500629,0,0,0.500629,238.546,232.118)">
        <g transform="matrix(1.99749,-0,-0,1.99749,-476.492,-463.652)">
            <path d="M329.081,223.744L329.086,240.41" style="fill:none;stroke:black;stroke-width:4.17px;"/>
            <path d="M694.914,223.634L694.919,240.301" style="fill:none;stroke:black;stroke-width:4.17px;"/>
            <path d="M329.083,232.077C357.456,232.068 666.544,231.976 694.917,231.967" style="fill:none;stroke:black;stroke-width:4.17px;stroke-linejoin:round;stroke-miterlimit:1.5;"/>
        </g>
    </g>
    <g transform="matrix(0.253467,7.42918e-05,7.42918e-05,0.501252,282.101,232.105)">
        <g transform="matrix(3.94528,-0.000584741,-0.000584741,1.99501,-1112.83,-462.886)">
            <path d="M328.966,223.744L328.971,240.41" style="fill:none;stroke:black;stroke-width:4.17px;"/>
            <path d="M512.129,223.689L512.134,240.355" style="fill:none;stroke:black;stroke-width:4.17px;"/>
            <path d="M328.968,232.077C348.101,232.071 492.999,232.028 512.132,232.022" style="fill:none;stroke:black;stroke-width:4.17px;stroke-linejoin:round;stroke-miterlimit:1.5;"/>
        </g>
    </g>
    <g transform="matrix(1.00126,0,0,1.00126,-34.9085,232.214)">
        <g transform="matrix(0.998743,-0,-0,0.998743,34.8646,-231.922)">
            <path d="M144.081,223.799L144.086,240.466" style="fill:none;stroke:black;stroke-width:4.17px;"/>
            <path d="M879.914,223.578L879.919,240.245" style="fill:none;stroke:black;stroke-width:4.17px;"/>
            <path d="M144.083,232.132C185.73,232.12 838.27,231.924 879.917,231.912" style="fill:none;stroke:black;stroke-width:4.17px;stroke-linejoin:round;stroke-miterlimit:1.5;"/>
        </g>
    </g>
    <g transform="matrix(1,0,0,1,-23.0713,22)">
        <path d="M223.207,128.324C223.207,128.324 515.875,103.392 619.43,88.279C695.535,77.172 844.539,37.645 844.539,37.645" style="fill:none;stroke:rgb(242,13,13);stroke-opacity:0.5;stroke-width:4.17px;stroke-linejoin:round;stroke-miterlimit:1.5;"/>
    </g>
    <g transform="matrix(0.999917,-0.0124336,0.012852,0.96736,157.241,19.1218)">
        <path d="M169.166,221.719L170.398,125.863" style="fill:none;stroke:black;stroke-width:0.85px;stroke-linejoin:round;stroke-miterlimit:1.5;stroke-dasharray:1.69,1.69,0,0,0,0;"/>
    </g>
    <g transform="matrix(0.999917,-0.0148591,0.012852,1.15607,339.757,-21.9611)">
        <path d="M169.166,221.719L170.398,125.863" style="fill:none;stroke:black;stroke-width:0.77px;stroke-linejoin:round;stroke-miterlimit:1.5;stroke-dasharray:1.54,1.54,0,0,0,0;"/>
    </g>
    <g transform="matrix(0.999917,-0.0188639,0.012852,1.46765,522.73,-90.3311)">
        <path d="M169.166,221.719L170.398,125.863" style="fill:none;stroke:black;stroke-width:0.67px;stroke-linejoin:round;stroke-miterlimit:1.5;stroke-dasharray:1.33,1.33,0,0,0,0;"/>
    </g>
    <g transform="matrix(0.786358,0,0,0.844122,580.593,-45.1614)">
        <ellipse cx="145.165" cy="160.75" rx="6.358" ry="5.923" style="fill:rgb(242,13,13);"/>
    </g>
    <g transform="matrix(0.786358,0,0,0.844122,397.905,-15.3297)">
        <ellipse cx="145.165" cy="160.75" rx="6.358" ry="5.923" style="fill:rgb(242,13,13);"/>
    </g>
    <g transform="matrix(0.786358,0,0,0.844122,214.769,2.84351)">
        <ellipse cx="145.165" cy="160.75" rx="6.358" ry="5.923" style="fill:rgb(242,13,13);"/>
    </g>
    <g transform="matrix(1,0,0,1,329.143,270)">
        <g transform="matrix(1,0,0,1,-39.5833,-14.5833)">
            <g transform="matrix(4.16667,0,0,4.16667,0,0)">
                <g transform="matrix(0.00359712,0,0,-0.00359712,0,7)">
                    <path d="M966.922,1361.22C983.563,1433.3 1047.31,1688.33 1241.38,1688.33C1255.23,1688.33 1321.77,1688.33 1379.98,1652.3C1302.36,1638.44 1246.92,1569.13 1246.92,1502.59C1246.92,1458.23 1277.41,1405.56 1352.27,1405.56C1413.25,1405.56 1501.97,1455.47 1501.97,1566.36C1501.97,1710.52 1338.41,1749.33 1244.14,1749.33C1083.36,1749.33 986.328,1602.39 953.063,1538.64C883.75,1721.59 734.063,1749.33 653.656,1749.33C365.344,1749.33 207.328,1391.7 207.328,1322.41C207.328,1294.67 235.063,1294.67 240.594,1294.67C262.781,1294.67 271.094,1300.22 276.641,1325.17C370.891,1619.03 553.859,1688.33 648.109,1688.33C700.797,1688.33 797.813,1663.39 797.813,1502.59C797.813,1416.66 750.688,1230.92 648.109,842.813C603.766,670.922 506.734,554.5 384.75,554.5C368.125,554.5 304.359,554.5 246.141,590.531C315.453,604.391 376.438,662.609 376.438,740.234C376.438,815.078 315.453,837.266 273.859,837.266C190.703,837.266 121.391,765.188 121.391,676.469C121.391,548.953 260,493.5 381.984,493.5C564.953,493.5 664.75,687.563 673.063,704.188C706.328,601.625 806.141,493.5 972.469,493.5C1258,493.5 1416.02,851.125 1416.02,920.422C1416.02,948.156 1391.08,948.156 1382.75,948.156C1357.81,948.156 1352.27,937.063 1346.72,917.656C1255.23,621.031 1066.72,554.5 978.016,554.5C869.891,554.5 825.547,643.203 825.547,737.469C825.547,798.453 842.172,859.438 872.672,981.422L966.922,1361.22" style="fill-rule:nonzero;"/>
                </g>
                <g transform="matrix(0.00359712,0,0,-0.00359712,0,7)">
                    <path d="M2252.05,1320.52C2252.05,1351.53 2228.8,1394.19 2174.52,1394.19C2122.17,1394.19 2065.97,1343.78 2065.97,1287.56C2065.97,1254.61 2091.16,1213.91 2143.5,1213.91C2199.72,1213.91 2252.05,1268.19 2252.05,1320.52ZM1856.61,335.797C1848.86,310.594 1839.17,287.328 1839.17,254.375C1839.17,163.281 1916.7,89.609 2023.31,89.609C2217.16,89.609 2302.45,357.125 2302.45,386.203C2302.45,411.391 2277.25,411.391 2271.44,411.391C2244.3,411.391 2242.36,399.766 2234.61,378.438C2190.02,223.375 2104.73,143.891 2029.13,143.891C1990.36,143.891 1980.67,169.094 1980.67,211.734C1980.67,256.328 1994.23,293.156 2011.69,335.797C2031.08,388.141 2052.39,440.469 2073.72,490.875C2091.16,537.391 2160.95,713.797 2168.7,737.047C2174.52,756.438 2180.33,779.703 2180.33,799.078C2180.33,890.188 2102.8,963.844 1996.17,963.844C1804.28,963.844 1715.11,700.219 1715.11,667.266C1715.11,642.063 1742.25,642.063 1748.06,642.063C1775.2,642.063 1777.14,651.766 1782.95,673.078C1833.34,839.781 1918.64,909.578 1990.36,909.578C2021.38,909.578 2038.83,894.063 2038.83,841.734C2038.83,797.141 2027.19,768.063 1978.73,647.891L1856.61,335.797" style="fill-rule:nonzero;"/>
                </g>
                <g transform="matrix(0.00359712,0,0,-0.00359712,0,7)">
                    <path d="M3850.19,547.078C3881.2,547.078 3927.73,547.078 3927.73,593.609C3927.73,642.063 3883.14,642.063 3850.19,642.063L2694.89,642.063C2663.88,642.063 2617.34,642.063 2617.34,595.547C2617.34,547.078 2661.94,547.078 2694.89,547.078L3850.19,547.078" style="fill-rule:nonzero;"/>
                </g>
                <g transform="matrix(0.00359712,0,0,-0.00359712,0,7)">
                    <path d="M4788.38,1341.84C4788.38,1394.19 4784.5,1396.13 4730.22,1396.13C4606.16,1274 4429.77,1272.06 4350.3,1272.06L4350.3,1202.28C4396.81,1202.28 4524.75,1202.28 4631.36,1256.55L4631.36,267.953C4631.36,203.984 4631.36,178.781 4437.52,178.781L4363.86,178.781L4363.86,109C4398.75,110.938 4637.17,116.75 4708.91,116.75C4768.98,116.75 5013.23,110.938 5055.88,109L5055.88,178.781L4982.22,178.781C4788.38,178.781 4788.38,203.984 4788.38,267.953L4788.38,1341.84" style="fill-rule:nonzero;"/>
                </g>
            </g>
        </g>
    </g>
    <g transform="matrix(1,0,0,1,694.669,270)">
        <g transform="matrix(1,0,0,1,-39.5833,-16.6667)">
            <g transform="matrix(4.16667,0,0,4.16667,0,0)">
                <g transform="matrix(0.00359712,0,0,-0.00359712,0,8)">
                    <path d="M966.922,1639.22C983.563,1711.3 1047.31,1966.33 1241.38,1966.33C1255.23,1966.33 1321.77,1966.33 1379.98,1930.3C1302.36,1916.44 1246.92,1847.13 1246.92,1780.59C1246.92,1736.23 1277.41,1683.56 1352.27,1683.56C1413.25,1683.56 1501.97,1733.47 1501.97,1844.36C1501.97,1988.52 1338.41,2027.33 1244.14,2027.33C1083.36,2027.33 986.328,1880.39 953.063,1816.64C883.75,1999.59 734.063,2027.33 653.656,2027.33C365.344,2027.33 207.328,1669.7 207.328,1600.41C207.328,1572.67 235.063,1572.67 240.594,1572.67C262.781,1572.67 271.094,1578.22 276.641,1603.17C370.891,1897.03 553.859,1966.33 648.109,1966.33C700.797,1966.33 797.813,1941.39 797.813,1780.59C797.813,1694.66 750.688,1508.92 648.109,1120.81C603.766,948.922 506.734,832.5 384.75,832.5C368.125,832.5 304.359,832.5 246.141,868.531C315.453,882.391 376.438,940.609 376.438,1018.23C376.438,1093.08 315.453,1115.27 273.859,1115.27C190.703,1115.27 121.391,1043.19 121.391,954.469C121.391,826.953 260,771.5 381.984,771.5C564.953,771.5 664.75,965.563 673.063,982.188C706.328,879.625 806.141,771.5 972.469,771.5C1258,771.5 1416.02,1129.13 1416.02,1198.42C1416.02,1226.16 1391.08,1226.16 1382.75,1226.16C1357.81,1226.16 1352.27,1215.06 1346.72,1195.66C1255.23,899.031 1066.72,832.5 978.016,832.5C869.891,832.5 825.547,921.203 825.547,1015.47C825.547,1076.45 842.172,1137.44 872.672,1259.42L966.922,1639.22" style="fill-rule:nonzero;"/>
                </g>
                <g transform="matrix(0.00359712,0,0,-0.00359712,0,8)">
                    <path d="M2252.05,1598.52C2252.05,1629.53 2228.8,1672.19 2174.52,1672.19C2122.17,1672.19 2065.97,1621.78 2065.97,1565.56C2065.97,1532.61 2091.16,1491.91 2143.5,1491.91C2199.72,1491.91 2252.05,1546.19 2252.05,1598.52ZM1856.61,613.797C1848.86,588.594 1839.17,565.328 1839.17,532.375C1839.17,441.281 1916.7,367.609 2023.31,367.609C2217.16,367.609 2302.45,635.125 2302.45,664.203C2302.45,689.391 2277.25,689.391 2271.44,689.391C2244.3,689.391 2242.36,677.766 2234.61,656.438C2190.02,501.375 2104.73,421.891 2029.13,421.891C1990.36,421.891 1980.67,447.094 1980.67,489.734C1980.67,534.328 1994.23,571.156 2011.69,613.797C2031.08,666.141 2052.39,718.469 2073.72,768.875C2091.16,815.391 2160.95,991.797 2168.7,1015.05C2174.52,1034.44 2180.33,1057.7 2180.33,1077.08C2180.33,1168.19 2102.8,1241.84 1996.17,1241.84C1804.28,1241.84 1715.11,978.219 1715.11,945.266C1715.11,920.063 1742.25,920.063 1748.06,920.063C1775.2,920.063 1777.14,929.766 1782.95,951.078C1833.34,1117.78 1918.64,1187.58 1990.36,1187.58C2021.38,1187.58 2038.83,1172.06 2038.83,1119.73C2038.83,1075.14 2027.19,1046.06 1978.73,925.891L1856.61,613.797" style="fill-rule:nonzero;"/>
                </g>
                <g transform="matrix(0.00359712,0,0,-0.00359712,0,8)">
                    <path d="M3305.5,825.078L3898.66,825.078C3923.86,825.078 3970.38,825.078 3970.38,871.609C3970.38,920.063 3925.8,920.063 3898.66,920.063L3305.5,920.063L3305.5,1515.17C3305.5,1540.38 3305.5,1586.89 3258.97,1586.89C3210.52,1586.89 3210.52,1542.31 3210.52,1515.17L3210.52,920.063L2615.41,920.063C2590.22,920.063 2543.69,920.063 2543.69,873.547C2543.69,825.078 2588.28,825.078 2615.41,825.078L3210.52,825.078L3210.52,229.984C3210.52,204.781 3210.52,158.266 3257.03,158.266C3305.5,158.266 3305.5,202.844 3305.5,229.984L3305.5,825.078" style="fill-rule:nonzero;"/>
                </g>
                <g transform="matrix(0.00359712,0,0,-0.00359712,0,8)">
                    <path d="M4757.38,1619.84C4757.38,1672.19 4753.5,1674.13 4699.22,1674.13C4575.16,1552 4398.77,1550.06 4319.3,1550.06L4319.3,1480.28C4365.81,1480.28 4493.75,1480.28 4600.36,1534.55L4600.36,545.953C4600.36,481.984 4600.36,456.781 4406.52,456.781L4332.86,456.781L4332.86,387C4367.75,388.938 4606.17,394.75 4677.91,394.75C4737.98,394.75 4982.23,388.938 5024.88,387L5024.88,456.781L4951.22,456.781C4757.38,456.781 4757.38,481.984 4757.38,545.953L4757.38,1619.84" style="fill-rule:nonzero;"/>
                </g>
            </g>
        </g>
    </g>
    <g transform="matrix(1,0,0,1,510.49,270)">
        <g transform="matrix(1,0,0,1,-18.75,-14.5833)">
            <g transform="matrix(4.16667,0,0,4.16667,0,0)">
                <g transform="matrix(0.00359712,0,0,-0.00359712,0,7)">
                    <path d="M966.922,1361.22C983.563,1433.3 1047.31,1688.33 1241.38,1688.33C1255.23,1688.33 1321.77,1688.33 1379.98,1652.3C1302.36,1638.44 1246.92,1569.13 1246.92,1502.59C1246.92,1458.23 1277.41,1405.56 1352.27,1405.56C1413.25,1405.56 1501.97,1455.47 1501.97,1566.36C1501.97,1710.52 1338.41,1749.33 1244.14,1749.33C1083.36,1749.33 986.328,1602.39 953.063,1538.64C883.75,1721.59 734.063,1749.33 653.656,1749.33C365.344,1749.33 207.328,1391.7 207.328,1322.41C207.328,1294.67 235.063,1294.67 240.594,1294.67C262.781,1294.67 271.094,1300.22 276.641,1325.17C370.891,1619.03 553.859,1688.33 648.109,1688.33C700.797,1688.33 797.813,1663.39 797.813,1502.59C797.813,1416.66 750.688,1230.92 648.109,842.813C603.766,670.922 506.734,554.5 384.75,554.5C368.125,554.5 304.359,554.5 246.141,590.531C315.453,604.391 376.438,662.609 376.438,740.234C376.438,815.078 315.453,837.266 273.859,837.266C190.703,837.266 121.391,765.188 121.391,676.469C121.391,548.953 260,493.5 381.984,493.5C564.953,493.5 664.75,687.563 673.063,704.188C706.328,601.625 806.141,493.5 972.469,493.5C1258,493.5 1416.02,851.125 1416.02,920.422C1416.02,948.156 1391.08,948.156 1382.75,948.156C1357.81,948.156 1352.27,937.063 1346.72,917.656C1255.23,621.031 1066.72,554.5 978.016,554.5C869.891,554.5 825.547,643.203 825.547,737.469C825.547,798.453 842.172,859.438 872.672,981.422L966.922,1361.22" style="fill-rule:nonzero;"/>
                </g>
                <g transform="matrix(0.00359712,0,0,-0.00359712,0,7)">
                    <path d="M2252.05,1320.52C2252.05,1351.53 2228.8,1394.19 2174.52,1394.19C2122.17,1394.19 2065.97,1343.78 2065.97,1287.56C2065.97,1254.61 2091.16,1213.91 2143.5,1213.91C2199.72,1213.91 2252.05,1268.19 2252.05,1320.52ZM1856.61,335.797C1848.86,310.594 1839.17,287.328 1839.17,254.375C1839.17,163.281 1916.7,89.609 2023.31,89.609C2217.16,89.609 2302.45,357.125 2302.45,386.203C2302.45,411.391 2277.25,411.391 2271.44,411.391C2244.3,411.391 2242.36,399.766 2234.61,378.438C2190.02,223.375 2104.73,143.891 2029.13,143.891C1990.36,143.891 1980.67,169.094 1980.67,211.734C1980.67,256.328 1994.23,293.156 2011.69,335.797C2031.08,388.141 2052.39,440.469 2073.72,490.875C2091.16,537.391 2160.95,713.797 2168.7,737.047C2174.52,756.438 2180.33,779.703 2180.33,799.078C2180.33,890.188 2102.8,963.844 1996.17,963.844C1804.28,963.844 1715.11,700.219 1715.11,667.266C1715.11,642.063 1742.25,642.063 1748.06,642.063C1775.2,642.063 1777.14,651.766 1782.95,673.078C1833.34,839.781 1918.64,909.578 1990.36,909.578C2021.38,909.578 2038.83,894.063 2038.83,841.734C2038.83,797.141 2027.19,768.063 1978.73,647.891L1856.61,335.797" style="fill-rule:nonzero;"/>
                </g>
            </g>
        </g>
    </g>
    <g transform="matrix(0.986673,0.0133228,-0.0131566,0.999137,11.7635,-2.33894)">
        <path d="M510.227,200.714L695.371,198.246" style="fill:none;"/>
        <g transform="matrix(1.01333,-0.013512,0.0133435,1.00069,-11.889,2.4995)">
            <path d="M521.085,200.938L514.992,205L521.085,209.062" style="fill:none;stroke:rgb(13,40,242);stroke-width:2.71px;"/>
            <path d="M686.724,200.938L692.818,205L686.724,209.062" style="fill:none;stroke:rgb(13,40,242);stroke-width:2.71px;"/>
            <path d="M514.992,205L692.818,205" style="fill:none;stroke:rgb(13,40,242);stroke-width:2.71px;stroke-linejoin:round;stroke-miterlimit:1.5;"/>
        </g>
    </g>
    <g transform="matrix(0.978629,0.0133228,-0.0130494,0.999137,-166.934,-2.33894)">
        <path d="M510.227,200.714L695.371,198.246" style="fill:none;"/>
        <g transform="matrix(1.02166,-0.0136231,0.0133435,1.00069,170.581,0.0663801)">
            <path d="M338.305,200.938L332.211,205L338.305,209.062" style="fill:none;stroke:rgb(13,40,242);stroke-width:2.71px;"/>
            <path d="M502.453,200.938L508.547,205L502.453,209.062" style="fill:none;stroke:rgb(13,40,242);stroke-width:2.71px;"/>
            <path d="M332.211,205L508.547,205" style="fill:none;stroke:rgb(13,40,242);stroke-width:2.71px;stroke-linejoin:round;stroke-miterlimit:1.5;"/>
        </g>
    </g>
    <g transform="matrix(1,0,0,1,419.911,175)">
        <g transform="matrix(1,0,0,1,-29.1667,-16.6667)">
            <clipPath id="_clip1">
                <rect x="0" y="0" width="58.333" height="33.333"/>
            </clipPath>
            <g clip-path="url(#_clip1)">
                <g transform="matrix(4.16667,0,0,4.16667,0,0)">
                    <g transform="matrix(0.00359712,0,0,-0.00359712,0,8)">
                        <path d="M1266.33,2181.02C1246.92,2217.05 1241.38,2230.91 1194.25,2230.91C1147.13,2230.91 1141.58,2217.05 1122.17,2181.02L185.156,301.438C171.297,276.5 171.297,270.953 171.297,268.172C171.297,246 187.922,246 232.281,246L2156.2,246C2200.56,246 2217.2,246 2217.2,268.172C2217.2,270.953 2217.2,276.5 2203.33,301.438L1266.33,2181.02ZM1105.53,1953.69L1851.27,456.688L357.031,456.688L1105.53,1953.69Z" style="fill:rgb(0,0,255);fill-rule:nonzero;"/>
                    </g>
                    <g transform="matrix(0.00359712,0,0,-0.00359712,0,8)">
                        <path d="M3274.92,1083.22C3291.56,1155.3 3355.31,1410.33 3549.38,1410.33C3563.23,1410.33 3629.77,1410.33 3687.98,1374.3C3610.36,1360.44 3554.92,1291.13 3554.92,1224.59C3554.92,1180.23 3585.41,1127.56 3660.27,1127.56C3721.25,1127.56 3809.97,1177.47 3809.97,1288.36C3809.97,1432.52 3646.41,1471.33 3552.14,1471.33C3391.36,1471.33 3294.33,1324.39 3261.06,1260.64C3191.75,1443.59 3042.06,1471.33 2961.66,1471.33C2673.34,1471.33 2515.33,1113.7 2515.33,1044.41C2515.33,1016.67 2543.06,1016.67 2548.59,1016.67C2570.78,1016.67 2579.09,1022.22 2584.64,1047.17C2678.89,1341.03 2861.86,1410.33 2956.11,1410.33C3008.8,1410.33 3105.81,1385.39 3105.81,1224.59C3105.81,1138.66 3058.69,952.922 2956.11,564.813C2911.77,392.922 2814.73,276.5 2692.75,276.5C2676.13,276.5 2612.36,276.5 2554.14,312.531C2623.45,326.391 2684.44,384.609 2684.44,462.234C2684.44,537.078 2623.45,559.266 2581.86,559.266C2498.7,559.266 2429.39,487.188 2429.39,398.469C2429.39,270.953 2568,215.5 2689.98,215.5C2872.95,215.5 2972.75,409.563 2981.06,426.188C3014.33,323.625 3114.14,215.5 3280.47,215.5C3566,215.5 3724.02,573.125 3724.02,642.422C3724.02,670.156 3699.08,670.156 3690.75,670.156C3665.81,670.156 3660.27,659.063 3654.72,639.656C3563.23,343.031 3374.72,276.5 3286.02,276.5C3177.89,276.5 3133.55,365.203 3133.55,459.469C3133.55,520.453 3150.17,581.438 3180.67,703.422L3274.92,1083.22" style="fill:rgb(0,0,255);fill-rule:nonzero;"/>
                    </g>
                </g>
            </g>
        </g>
    </g>
    <g transform="matrix(1,0,0,1,606.536,175)">
        <g transform="matrix(1,0,0,1,-29.1667,-16.6667)">
            <clipPath id="_clip2">
                <rect x="0" y="0" width="58.333" height="33.333"/>
            </clipPath>
            <g clip-path="url(#_clip2)">
                <g transform="matrix(4.16667,0,0,4.16667,0,0)">
                    <g transform="matrix(0.00359712,0,0,-0.00359712,0,8)">
                        <path d="M1266.33,2181.02C1246.92,2217.05 1241.38,2230.91 1194.25,2230.91C1147.13,2230.91 1141.58,2217.05 1122.17,2181.02L185.156,301.438C171.297,276.5 171.297,270.953 171.297,268.172C171.297,246 187.922,246 232.281,246L2156.2,246C2200.56,246 2217.2,246 2217.2,268.172C2217.2,270.953 2217.2,276.5 2203.33,301.438L1266.33,2181.02ZM1105.53,1953.69L1851.27,456.688L357.031,456.688L1105.53,1953.69Z" style="fill:rgb(0,0,255);fill-rule:nonzero;"/>
                    </g>
                    <g transform="matrix(0.00359712,0,0,-0.00359712,0,8)">
                        <path d="M3274.92,1083.22C3291.56,1155.3 3355.31,1410.33 3549.38,1410.33C3563.23,1410.33 3629.77,1410.33 3687.98,1374.3C3610.36,1360.44 3554.92,1291.13 3554.92,1224.59C3554.92,1180.23 3585.41,1127.56 3660.27,1127.56C3721.25,1127.56 3809.97,1177.47 3809.97,1288.36C3809.97,1432.52 3646.41,1471.33 3552.14,1471.33C3391.36,1471.33 3294.33,1324.39 3261.06,1260.64C3191.75,1443.59 3042.06,1471.33 2961.66,1471.33C2673.34,1471.33 2515.33,1113.7 2515.33,1044.41C2515.33,1016.67 2543.06,1016.67 2548.59,1016.67C2570.78,1016.67 2579.09,1022.22 2584.64,1047.17C2678.89,1341.03 2861.86,1410.33 2956.11,1410.33C3008.8,1410.33 3105.81,1385.39 3105.81,1224.59C3105.81,1138.66 3058.69,952.922 2956.11,564.813C2911.77,392.922 2814.73,276.5 2692.75,276.5C2676.13,276.5 2612.36,276.5 2554.14,312.531C2623.45,326.391 2684.44,384.609 2684.44,462.234C2684.44,537.078 2623.45,559.266 2581.86,559.266C2498.7,559.266 2429.39,487.188 2429.39,398.469C2429.39,270.953 2568,215.5 2689.98,215.5C2872.95,215.5 2972.75,409.563 2981.06,426.188C3014.33,323.625 3114.14,215.5 3280.47,215.5C3566,215.5 3724.02,573.125 3724.02,642.422C3724.02,670.156 3699.08,670.156 3690.75,670.156C3665.81,670.156 3660.27,659.063 3654.72,639.656C3563.23,343.031 3374.72,276.5 3286.02,276.5C3177.89,276.5 3133.55,365.203 3133.55,459.469C3133.55,520.453 3150.17,581.438 3180.67,703.422L3274.92,1083.22" style="fill:rgb(0,0,255);fill-rule:nonzero;"/>
                    </g>
                </g>
            </g>
        </g>
    </g>
    <g transform="matrix(1,0,0,1,695.548,42.0261)">
        <g transform="matrix(1,0,0,1,-66.6667,-22.9167)">
            <g transform="matrix(4.16667,0,0,4.16667,0,0)">
                <g transform="matrix(0.00359712,0,0,-0.00359712,0,11)">
                    <path d="M1252.47,2659.39C1252.47,2664.94 1260.78,2695.42 1260.78,2698.2C1260.78,2700.97 1260.78,2725.92 1227.52,2725.92C1199.8,2725.92 1197.02,2717.61 1185.92,2670.48L1025.14,2030.09C584.359,2016.23 176.844,1647.53 176.844,1270.5C176.844,1007.14 370.891,788.141 709.109,768.734C686.922,682.797 667.516,594.078 645.344,508.141C612.078,377.844 584.359,272.5 584.359,264.188C584.359,236.469 603.766,233.688 617.625,233.688C631.484,233.688 637.031,236.469 645.344,244.781C650.891,250.328 667.516,316.859 675.844,355.672L781.188,768.734C1227.52,782.594 1629.48,1156.84 1629.48,1528.33C1629.48,1747.33 1482.56,2002.38 1097.22,2030.09L1252.47,2659.39ZM722.969,829.719C556.641,838.031 357.031,935.063 357.031,1212.3C357.031,1544.95 595.438,1933.06 1008.5,1969.11L722.969,829.719ZM1080.58,1969.11C1291.27,1958.02 1449.3,1830.5 1449.3,1586.55C1449.3,1259.42 1210.88,862.984 795.047,829.719L1080.58,1969.11" style="fill:rgb(255,0,0);fill-rule:nonzero;"/>
                </g>
                <g transform="matrix(0.00359712,0,0,-0.00359712,0,11)">
                    <path d="M2608.61,136.672C2608.61,144.984 2608.61,150.531 2561.48,197.656C2214.95,546.953 2126.23,1070.91 2126.23,1495.06C2126.23,1977.42 2231.58,2459.8 2572.56,2806.31C2608.61,2839.58 2608.61,2845.13 2608.61,2853.45C2608.61,2872.84 2597.52,2881.17 2580.89,2881.17C2553.16,2881.17 2303.66,2692.66 2140.09,2340.58C1998.72,2035.64 1965.45,1727.92 1965.45,1495.06C1965.45,1278.83 1995.94,943.391 2148.42,630.125C2314.75,289.141 2553.16,108.938 2580.89,108.938C2597.52,108.938 2608.61,117.266 2608.61,136.672" style="fill:rgb(255,0,0);fill-rule:nonzero;"/>
                </g>
                <g transform="matrix(0.00359712,0,0,-0.00359712,0,11)">
                    <path d="M3694.92,1639.22C3711.56,1711.3 3775.31,1966.33 3969.38,1966.33C3983.23,1966.33 4049.77,1966.33 4107.98,1930.3C4030.36,1916.44 3974.92,1847.13 3974.92,1780.59C3974.92,1736.23 4005.41,1683.56 4080.27,1683.56C4141.25,1683.56 4229.97,1733.47 4229.97,1844.36C4229.97,1988.52 4066.41,2027.33 3972.14,2027.33C3811.36,2027.33 3714.33,1880.39 3681.06,1816.64C3611.75,1999.59 3462.06,2027.33 3381.66,2027.33C3093.34,2027.33 2935.33,1669.7 2935.33,1600.41C2935.33,1572.67 2963.06,1572.67 2968.59,1572.67C2990.78,1572.67 2999.09,1578.22 3004.64,1603.17C3098.89,1897.03 3281.86,1966.33 3376.11,1966.33C3428.8,1966.33 3525.81,1941.39 3525.81,1780.59C3525.81,1694.66 3478.69,1508.92 3376.11,1120.81C3331.77,948.922 3234.73,832.5 3112.75,832.5C3096.13,832.5 3032.36,832.5 2974.14,868.531C3043.45,882.391 3104.44,940.609 3104.44,1018.23C3104.44,1093.08 3043.45,1115.27 3001.86,1115.27C2918.7,1115.27 2849.39,1043.19 2849.39,954.469C2849.39,826.953 2988,771.5 3109.98,771.5C3292.95,771.5 3392.75,965.563 3401.06,982.188C3434.33,879.625 3534.14,771.5 3700.47,771.5C3986,771.5 4144.02,1129.13 4144.02,1198.42C4144.02,1226.16 4119.08,1226.16 4110.75,1226.16C4085.81,1226.16 4080.27,1215.06 4074.72,1195.66C3983.23,899.031 3794.72,832.5 3706.02,832.5C3597.89,832.5 3553.55,921.203 3553.55,1015.47C3553.55,1076.45 3570.17,1137.44 3600.67,1259.42L3694.92,1639.22" style="fill:rgb(255,0,0);fill-rule:nonzero;"/>
                </g>
                <g transform="matrix(0.00359712,0,0,-0.00359712,0,11)">
                    <path d="M4980.05,1598.52C4980.05,1629.53 4956.8,1672.19 4902.52,1672.19C4850.17,1672.19 4793.97,1621.78 4793.97,1565.56C4793.97,1532.61 4819.16,1491.91 4871.5,1491.91C4927.72,1491.91 4980.05,1546.19 4980.05,1598.52ZM4584.61,613.797C4576.86,588.594 4567.17,565.328 4567.17,532.375C4567.17,441.281 4644.7,367.609 4751.31,367.609C4945.16,367.609 5030.45,635.125 5030.45,664.203C5030.45,689.391 5005.25,689.391 4999.44,689.391C4972.3,689.391 4970.36,677.766 4962.61,656.438C4918.02,501.375 4832.73,421.891 4757.13,421.891C4718.36,421.891 4708.67,447.094 4708.67,489.734C4708.67,534.328 4722.23,571.156 4739.69,613.797C4759.08,666.141 4780.39,718.469 4801.72,768.875C4819.16,815.391 4888.95,991.797 4896.7,1015.05C4902.52,1034.44 4908.33,1057.7 4908.33,1077.08C4908.33,1168.19 4830.8,1241.84 4724.17,1241.84C4532.28,1241.84 4443.11,978.219 4443.11,945.266C4443.11,920.063 4470.25,920.063 4476.06,920.063C4503.2,920.063 4505.14,929.766 4510.95,951.078C4561.34,1117.78 4646.64,1187.58 4718.36,1187.58C4749.38,1187.58 4766.83,1172.06 4766.83,1119.73C4766.83,1075.14 4755.19,1046.06 4706.73,925.891L4584.61,613.797" style="fill:rgb(255,0,0);fill-rule:nonzero;"/>
                </g>
                <g transform="matrix(0.00359712,0,0,-0.00359712,0,11)">
                    <path d="M6032.5,825.078L6625.66,825.078C6650.86,825.078 6697.38,825.078 6697.38,871.609C6697.38,920.063 6652.8,920.063 6625.66,920.063L6032.5,920.063L6032.5,1515.17C6032.5,1540.38 6032.5,1586.89 5985.97,1586.89C5937.52,1586.89 5937.52,1542.31 5937.52,1515.17L5937.52,920.063L5342.41,920.063C5317.22,920.063 5270.69,920.063 5270.69,873.547C5270.69,825.078 5315.28,825.078 5342.41,825.078L5937.52,825.078L5937.52,229.984C5937.52,204.781 5937.52,158.266 5984.03,158.266C6032.5,158.266 6032.5,202.844 6032.5,229.984L6032.5,825.078" style="fill:rgb(255,0,0);fill-rule:nonzero;"/>
                </g>
                <g transform="matrix(0.00359712,0,0,-0.00359712,0,11)">
                    <path d="M7484.38,1619.84C7484.38,1672.19 7480.5,1674.13 7426.22,1674.13C7302.16,1552 7125.77,1550.06 7046.3,1550.06L7046.3,1480.28C7092.81,1480.28 7220.75,1480.28 7327.36,1534.55L7327.36,545.953C7327.36,481.984 7327.36,456.781 7133.52,456.781L7059.86,456.781L7059.86,387C7094.75,388.938 7333.17,394.75 7404.91,394.75C7464.98,394.75 7709.23,388.938 7751.88,387L7751.88,456.781L7678.22,456.781C7484.38,456.781 7484.38,481.984 7484.38,545.953L7484.38,1619.84" style="fill:rgb(255,0,0);fill-rule:nonzero;"/>
                </g>
                <g transform="matrix(0.00359712,0,0,-0.00359712,0,11)">
                    <path d="M8879.17,1495.06C8879.17,1711.3 8848.67,2046.73 8696.2,2359.98C8529.88,2700.97 8291.47,2881.17 8263.73,2881.17C8247.11,2881.17 8236.02,2870.08 8236.02,2853.45C8236.02,2845.13 8236.02,2839.58 8288.69,2789.69C8560.36,2515.23 8718.39,2074.45 8718.39,1495.06C8718.39,1021 8615.81,533.094 8272.06,183.797C8236.02,150.531 8236.02,144.984 8236.02,136.672C8236.02,120.031 8247.11,108.938 8263.73,108.938C8291.47,108.938 8540.97,297.453 8704.52,649.531C8845.91,954.469 8879.17,1262.19 8879.17,1495.06" style="fill:rgb(255,0,0);fill-rule:nonzero;"/>
                </g>
            </g>
        </g>
    </g>
    <g transform="matrix(1,0,0,1,329.809,95.6748)">
        <g transform="matrix(1,0,0,1,-68.75,-22.9167)">
            <g transform="matrix(4.16667,0,0,4.16667,0,0)">
                <g transform="matrix(0.00359712,0,0,-0.00359712,0,11)">
                    <path d="M1252.47,2659.39C1252.47,2664.94 1260.78,2695.42 1260.78,2698.2C1260.78,2700.97 1260.78,2725.92 1227.52,2725.92C1199.8,2725.92 1197.02,2717.61 1185.92,2670.48L1025.14,2030.09C584.359,2016.23 176.844,1647.53 176.844,1270.5C176.844,1007.14 370.891,788.141 709.109,768.734C686.922,682.797 667.516,594.078 645.344,508.141C612.078,377.844 584.359,272.5 584.359,264.188C584.359,236.469 603.766,233.688 617.625,233.688C631.484,233.688 637.031,236.469 645.344,244.781C650.891,250.328 667.516,316.859 675.844,355.672L781.188,768.734C1227.52,782.594 1629.48,1156.84 1629.48,1528.33C1629.48,1747.33 1482.56,2002.38 1097.22,2030.09L1252.47,2659.39ZM722.969,829.719C556.641,838.031 357.031,935.063 357.031,1212.3C357.031,1544.95 595.438,1933.06 1008.5,1969.11L722.969,829.719ZM1080.58,1969.11C1291.27,1958.02 1449.3,1830.5 1449.3,1586.55C1449.3,1259.42 1210.88,862.984 795.047,829.719L1080.58,1969.11" style="fill:rgb(255,0,0);fill-rule:nonzero;"/>
                </g>
                <g transform="matrix(0.00359712,0,0,-0.00359712,0,11)">
                    <path d="M2608.61,136.672C2608.61,144.984 2608.61,150.531 2561.48,197.656C2214.95,546.953 2126.23,1070.91 2126.23,1495.06C2126.23,1977.42 2231.58,2459.8 2572.56,2806.31C2608.61,2839.58 2608.61,2845.13 2608.61,2853.45C2608.61,2872.84 2597.52,2881.17 2580.89,2881.17C2553.16,2881.17 2303.66,2692.66 2140.09,2340.58C1998.72,2035.64 1965.45,1727.92 1965.45,1495.06C1965.45,1278.83 1995.94,943.391 2148.42,630.125C2314.75,289.141 2553.16,108.938 2580.89,108.938C2597.52,108.938 2608.61,117.266 2608.61,136.672" style="fill:rgb(255,0,0);fill-rule:nonzero;"/>
                </g>
                <g transform="matrix(0.00359712,0,0,-0.00359712,0,11)">
                    <path d="M3694.92,1639.22C3711.56,1711.3 3775.31,1966.33 3969.38,1966.33C3983.23,1966.33 4049.77,1966.33 4107.98,1930.3C4030.36,1916.44 3974.92,1847.13 3974.92,1780.59C3974.92,1736.23 4005.41,1683.56 4080.27,1683.56C4141.25,1683.56 4229.97,1733.47 4229.97,1844.36C4229.97,1988.52 4066.41,2027.33 3972.14,2027.33C3811.36,2027.33 3714.33,1880.39 3681.06,1816.64C3611.75,1999.59 3462.06,2027.33 3381.66,2027.33C3093.34,2027.33 2935.33,1669.7 2935.33,1600.41C2935.33,1572.67 2963.06,1572.67 2968.59,1572.67C2990.78,1572.67 2999.09,1578.22 3004.64,1603.17C3098.89,1897.03 3281.86,1966.33 3376.11,1966.33C3428.8,1966.33 3525.81,1941.39 3525.81,1780.59C3525.81,1694.66 3478.69,1508.92 3376.11,1120.81C3331.77,948.922 3234.73,832.5 3112.75,832.5C3096.13,832.5 3032.36,832.5 2974.14,868.531C3043.45,882.391 3104.44,940.609 3104.44,1018.23C3104.44,1093.08 3043.45,1115.27 3001.86,1115.27C2918.7,1115.27 2849.39,1043.19 2849.39,954.469C2849.39,826.953 2988,771.5 3109.98,771.5C3292.95,771.5 3392.75,965.563 3401.06,982.188C3434.33,879.625 3534.14,771.5 3700.47,771.5C3986,771.5 4144.02,1129.13 4144.02,1198.42C4144.02,1226.16 4119.08,1226.16 4110.75,1226.16C4085.81,1226.16 4080.27,1215.06 4074.72,1195.66C3983.23,899.031 3794.72,832.5 3706.02,832.5C3597.89,832.5 3553.55,921.203 3553.55,1015.47C3553.55,1076.45 3570.17,1137.44 3600.67,1259.42L3694.92,1639.22" style="fill:rgb(255,0,0);fill-rule:nonzero;"/>
                </g>
                <g transform="matrix(0.00359712,0,0,-0.00359712,0,11)">
                    <path d="M4980.05,1598.52C4980.05,1629.53 4956.8,1672.19 4902.52,1672.19C4850.17,1672.19 4793.97,1621.78 4793.97,1565.56C4793.97,1532.61 4819.16,1491.91 4871.5,1491.91C4927.72,1491.91 4980.05,1546.19 4980.05,1598.52ZM4584.61,613.797C4576.86,588.594 4567.17,565.328 4567.17,532.375C4567.17,441.281 4644.7,367.609 4751.31,367.609C4945.16,367.609 5030.45,635.125 5030.45,664.203C5030.45,689.391 5005.25,689.391 4999.44,689.391C4972.3,689.391 4970.36,677.766 4962.61,656.438C4918.02,501.375 4832.73,421.891 4757.13,421.891C4718.36,421.891 4708.67,447.094 4708.67,489.734C4708.67,534.328 4722.23,571.156 4739.69,613.797C4759.08,666.141 4780.39,718.469 4801.72,768.875C4819.16,815.391 4888.95,991.797 4896.7,1015.05C4902.52,1034.44 4908.33,1057.7 4908.33,1077.08C4908.33,1168.19 4830.8,1241.84 4724.17,1241.84C4532.28,1241.84 4443.11,978.219 4443.11,945.266C4443.11,920.063 4470.25,920.063 4476.06,920.063C4503.2,920.063 4505.14,929.766 4510.95,951.078C4561.34,1117.78 4646.64,1187.58 4718.36,1187.58C4749.38,1187.58 4766.83,1172.06 4766.83,1119.73C4766.83,1075.14 4755.19,1046.06 4706.73,925.891L4584.61,613.797" style="fill:rgb(255,0,0);fill-rule:nonzero;"/>
                </g>
                <g transform="matrix(0.00359712,0,0,-0.00359712,0,11)">
                    <path d="M6577.19,825.078C6608.2,825.078 6654.73,825.078 6654.73,871.609C6654.73,920.063 6610.14,920.063 6577.19,920.063L5421.89,920.063C5390.88,920.063 5344.34,920.063 5344.34,873.547C5344.34,825.078 5388.94,825.078 5421.89,825.078L6577.19,825.078" style="fill:rgb(255,0,0);fill-rule:nonzero;"/>
                </g>
                <g transform="matrix(0.00359712,0,0,-0.00359712,0,11)">
                    <path d="M7515.38,1619.84C7515.38,1672.19 7511.5,1674.13 7457.22,1674.13C7333.16,1552 7156.77,1550.06 7077.3,1550.06L7077.3,1480.28C7123.81,1480.28 7251.75,1480.28 7358.36,1534.55L7358.36,545.953C7358.36,481.984 7358.36,456.781 7164.52,456.781L7090.86,456.781L7090.86,387C7125.75,388.938 7364.17,394.75 7435.91,394.75C7495.98,394.75 7740.23,388.938 7782.88,387L7782.88,456.781L7709.22,456.781C7515.38,456.781 7515.38,481.984 7515.38,545.953L7515.38,1619.84" style="fill:rgb(255,0,0);fill-rule:nonzero;"/>
                </g>
                <g transform="matrix(0.00359712,0,0,-0.00359712,0,11)">
                    <path d="M8909.17,1495.06C8909.17,1711.3 8878.67,2046.73 8726.2,2359.98C8559.88,2700.97 8321.47,2881.17 8293.73,2881.17C8277.11,2881.17 8266.02,2870.08 8266.02,2853.45C8266.02,2845.13 8266.02,2839.58 8318.69,2789.69C8590.36,2515.23 8748.39,2074.45 8748.39,1495.06C8748.39,1021 8645.81,533.094 8302.06,183.797C8266.02,150.531 8266.02,144.984 8266.02,136.672C8266.02,120.031 8277.11,108.938 8293.73,108.938C8321.47,108.938 8570.97,297.453 8734.52,649.531C8875.91,954.469 8909.17,1262.19 8909.17,1495.06" style="fill:rgb(255,0,0);fill-rule:nonzero;"/>
                </g>
            </g>
        </g>
    </g>
    <g transform="matrix(1,0,0,1,512.631,76.1011)">
        <g transform="matrix(1,0,0,1,-45.8333,-22.9167)">
            <g transform="matrix(4.16667,0,0,4.16667,0,0)">
                <g transform="matrix(0.00359712,0,0,-0.00359712,0,11)">
                    <path d="M1252.47,2659.39C1252.47,2664.94 1260.78,2695.42 1260.78,2698.2C1260.78,2700.97 1260.78,2725.92 1227.52,2725.92C1199.8,2725.92 1197.02,2717.61 1185.92,2670.48L1025.14,2030.09C584.359,2016.23 176.844,1647.53 176.844,1270.5C176.844,1007.14 370.891,788.141 709.109,768.734C686.922,682.797 667.516,594.078 645.344,508.141C612.078,377.844 584.359,272.5 584.359,264.188C584.359,236.469 603.766,233.688 617.625,233.688C631.484,233.688 637.031,236.469 645.344,244.781C650.891,250.328 667.516,316.859 675.844,355.672L781.188,768.734C1227.52,782.594 1629.48,1156.84 1629.48,1528.33C1629.48,1747.33 1482.56,2002.38 1097.22,2030.09L1252.47,2659.39ZM722.969,829.719C556.641,838.031 357.031,935.063 357.031,1212.3C357.031,1544.95 595.438,1933.06 1008.5,1969.11L722.969,829.719ZM1080.58,1969.11C1291.27,1958.02 1449.3,1830.5 1449.3,1586.55C1449.3,1259.42 1210.88,862.984 795.047,829.719L1080.58,1969.11" style="fill:rgb(255,0,0);fill-rule:nonzero;"/>
                </g>
                <g transform="matrix(0.00359712,0,0,-0.00359712,0,11)">
                    <path d="M2608.61,136.672C2608.61,144.984 2608.61,150.531 2561.48,197.656C2214.95,546.953 2126.23,1070.91 2126.23,1495.06C2126.23,1977.42 2231.58,2459.8 2572.56,2806.31C2608.61,2839.58 2608.61,2845.13 2608.61,2853.45C2608.61,2872.84 2597.52,2881.17 2580.89,2881.17C2553.16,2881.17 2303.66,2692.66 2140.09,2340.58C1998.72,2035.64 1965.45,1727.92 1965.45,1495.06C1965.45,1278.83 1995.94,943.391 2148.42,630.125C2314.75,289.141 2553.16,108.938 2580.89,108.938C2597.52,108.938 2608.61,117.266 2608.61,136.672" style="fill:rgb(255,0,0);fill-rule:nonzero;"/>
                </g>
                <g transform="matrix(0.00359712,0,0,-0.00359712,0,11)">
                    <path d="M3694.92,1639.22C3711.56,1711.3 3775.31,1966.33 3969.38,1966.33C3983.23,1966.33 4049.77,1966.33 4107.98,1930.3C4030.36,1916.44 3974.92,1847.13 3974.92,1780.59C3974.92,1736.23 4005.41,1683.56 4080.27,1683.56C4141.25,1683.56 4229.97,1733.47 4229.97,1844.36C4229.97,1988.52 4066.41,2027.33 3972.14,2027.33C3811.36,2027.33 3714.33,1880.39 3681.06,1816.64C3611.75,1999.59 3462.06,2027.33 3381.66,2027.33C3093.34,2027.33 2935.33,1669.7 2935.33,1600.41C2935.33,1572.67 2963.06,1572.67 2968.59,1572.67C2990.78,1572.67 2999.09,1578.22 3004.64,1603.17C3098.89,1897.03 3281.86,1966.33 3376.11,1966.33C3428.8,1966.33 3525.81,1941.39 3525.81,1780.59C3525.81,1694.66 3478.69,1508.92 3376.11,1120.81C3331.77,948.922 3234.73,832.5 3112.75,832.5C3096.13,832.5 3032.36,832.5 2974.14,868.531C3043.45,882.391 3104.44,940.609 3104.44,1018.23C3104.44,1093.08 3043.45,1115.27 3001.86,1115.27C2918.7,1115.27 2849.39,1043.19 2849.39,954.469C2849.39,826.953 2988,771.5 3109.98,771.5C3292.95,771.5 3392.75,965.563 3401.06,982.188C3434.33,879.625 3534.14,771.5 3700.47,771.5C3986,771.5 4144.02,1129.13 4144.02,1198.42C4144.02,1226.16 4119.08,1226.16 4110.75,1226.16C4085.81,1226.16 4080.27,1215.06 4074.72,1195.66C3983.23,899.031 3794.72,832.5 3706.02,832.5C3597.89,832.5 3553.55,921.203 3553.55,1015.47C3553.55,1076.45 3570.17,1137.44 3600.67,1259.42L3694.92,1639.22" style="fill:rgb(255,0,0);fill-rule:nonzero;"/>
                </g>
                <g transform="matrix(0.00359712,0,0,-0.00359712,0,11)">
                    <path d="M4980.05,1598.52C4980.05,1629.53 4956.8,1672.19 4902.52,1672.19C4850.17,1672.19 4793.97,1621.78 4793.97,1565.56C4793.97,1532.61 4819.16,1491.91 4871.5,1491.91C4927.72,1491.91 4980.05,1546.19 4980.05,1598.52ZM4584.61,613.797C4576.86,588.594 4567.17,565.328 4567.17,532.375C4567.17,441.281 4644.7,367.609 4751.31,367.609C4945.16,367.609 5030.45,635.125 5030.45,664.203C5030.45,689.391 5005.25,689.391 4999.44,689.391C4972.3,689.391 4970.36,677.766 4962.61,656.438C4918.02,501.375 4832.73,421.891 4757.13,421.891C4718.36,421.891 4708.67,447.094 4708.67,489.734C4708.67,534.328 4722.23,571.156 4739.69,613.797C4759.08,666.141 4780.39,718.469 4801.72,768.875C4819.16,815.391 4888.95,991.797 4896.7,1015.05C4902.52,1034.44 4908.33,1057.7 4908.33,1077.08C4908.33,1168.19 4830.8,1241.84 4724.17,1241.84C4532.28,1241.84 4443.11,978.219 4443.11,945.266C4443.11,920.063 4470.25,920.063 4476.06,920.063C4503.2,920.063 4505.14,929.766 4510.95,951.078C4561.34,1117.78 4646.64,1187.58 4718.36,1187.58C4749.38,1187.58 4766.83,1172.06 4766.83,1119.73C4766.83,1075.14 4755.19,1046.06 4706.73,925.891L4584.61,613.797" style="fill:rgb(255,0,0);fill-rule:nonzero;"/>
                </g>
                <g transform="matrix(0.00359712,0,0,-0.00359712,0,11)">
                    <path d="M6074.17,1495.06C6074.17,1711.3 6043.67,2046.73 5891.2,2359.98C5724.88,2700.97 5486.47,2881.17 5458.73,2881.17C5442.11,2881.17 5431.02,2870.08 5431.02,2853.45C5431.02,2845.13 5431.02,2839.58 5483.69,2789.69C5755.36,2515.23 5913.39,2074.45 5913.39,1495.06C5913.39,1021 5810.81,533.094 5467.06,183.797C5431.02,150.531 5431.02,144.984 5431.02,136.672C5431.02,120.031 5442.11,108.938 5458.73,108.938C5486.47,108.938 5735.97,297.453 5899.52,649.531C6040.91,954.469 6074.17,1262.19 6074.17,1495.06" style="fill:rgb(255,0,0);fill-rule:nonzero;"/>
                </g>
            </g>
        </g>
    </g>
</svg>
