<?xml version="1.0" encoding="UTF-8" standalone="no"?>
<!DOCTYPE svg PUBLIC "-//W3C//DTD SVG 1.1//EN" "http://www.w3.org/Graphics/SVG/1.1/DTD/svg11.dtd">
<svg width="100%" height="100%" viewBox="0 0 250 150" version="1.1" xmlns="http://www.w3.org/2000/svg" xmlns:xlink="http://www.w3.org/1999/xlink" xml:space="preserve" xmlns:serif="http://www.serif.com/" style="fill-rule:evenodd;clip-rule:evenodd;stroke-linecap:round;stroke-linejoin:round;stroke-miterlimit:1.5;">
    <g transform="matrix(1.0139,0.024891,-0.0252448,0.99969,36.2051,4.96088)">
        <path d="M39.983,69.065L158.264,66.12" style="fill:none;stroke:black;stroke-width:1.99px;"/>
    </g>
    <g transform="matrix(0.024891,-1.0139,0.99969,0.0252448,64.9609,173.795)">
        <path d="M39.983,69.065L158.264,66.12" style="fill:none;stroke:black;stroke-width:1.99px;"/>
    </g>
    <g transform="matrix(1.17954,0,0,1.26618,-36.1147,-67.7393)">
        <ellipse cx="145.165" cy="160.75" rx="6.358" ry="5.923" style="fill:rgb(242,13,13);"/>
    </g>
    <g transform="matrix(1.17954,0,0,1.26618,23.7111,-128.531)">
        <ellipse cx="145.165" cy="160.75" rx="6.358" ry="5.923" style="fill:rgb(242,13,13);"/>
    </g>
    <g transform="matrix(1.17954,0,0,1.26618,-36.2601,-128.391)">
        <ellipse cx="145.165" cy="160.75" rx="6.358" ry="5.923" style="fill:rgb(242,13,13);"/>
    </g>
    <g transform="matrix(1.17954,0,0,1.26618,-36.1645,-189.111)">
        <ellipse cx="145.165" cy="160.75" rx="6.358" ry="5.923" style="fill:rgb(242,13,13);"/>
    </g>
    <g transform="matrix(1.17954,0,0,1.26618,-96.5043,-128.457)">
        <ellipse cx="145.165" cy="160.75" rx="6.358" ry="5.923" style="fill:rgb(242,13,13);"/>
    </g>
    <g transform="matrix(2.22222,0,0,2.22222,152.494,63.463)">
        <g transform="matrix(1,0,0,1,-6.5,-4.5)">
            <g>
                <g transform="matrix(0.00359712,0,0,-0.00359712,0,9)">
                    <path d="M1138,2132.67C1093.67,2132.67 1054.89,2132.67 1016.11,2093.89C971.781,2052.33 966.25,2005.25 966.25,1985.84C966.25,1919.36 1016.11,1888.89 1068.73,1888.89C1149.08,1888.89 1223.88,1955.38 1223.88,2066.19C1223.88,2201.92 1093.67,2304.42 896.984,2304.42C523.016,2304.42 154.578,1908.28 154.578,1517.69C154.578,1268.38 315.25,1049.53 603.344,1049.53C999.484,1049.53 1232.19,1343.17 1232.19,1376.41C1232.19,1393.03 1215.56,1412.42 1198.94,1412.42C1185.09,1412.42 1179.55,1406.88 1162.92,1384.72C944.078,1110.47 642.125,1110.47 608.891,1110.47C434.359,1110.47 359.578,1246.22 359.578,1412.42C359.578,1526 414.969,1794.7 509.156,1966.45C595.031,2124.36 747.391,2243.48 899.766,2243.48C993.938,2243.48 1099.22,2207.47 1138,2132.67" style="fill:rgb(255,0,0);fill-rule:nonzero;"/>
                </g>
                <g transform="matrix(0.00359712,0,0,-0.00359712,0,9)">
                    <path d="M1868.14,1876.69C1868.14,1907.7 1844.88,1950.36 1790.59,1950.36C1738.25,1950.36 1682.03,1899.95 1682.03,1843.73C1682.03,1810.77 1707.23,1770.06 1759.58,1770.06C1815.8,1770.06 1868.14,1824.34 1868.14,1876.69ZM1472.64,891.828C1464.89,866.625 1455.2,843.359 1455.2,810.406C1455.2,719.281 1532.75,645.609 1639.38,645.609C1833.25,645.609 1918.55,913.156 1918.55,942.234C1918.55,967.438 1893.34,967.438 1887.53,967.438C1860.39,967.438 1858.45,955.813 1850.69,934.484C1806.09,779.391 1720.8,699.891 1645.19,699.891C1606.42,699.891 1596.72,725.094 1596.72,767.75C1596.72,812.344 1610.3,849.172 1627.73,891.828C1647.13,944.172 1668.45,996.516 1689.78,1046.92C1707.23,1093.45 1777.02,1269.88 1784.78,1293.14C1790.59,1312.53 1796.41,1335.8 1796.41,1355.17C1796.41,1446.3 1718.86,1519.97 1612.23,1519.97C1420.3,1519.97 1331.13,1256.3 1331.13,1223.34C1331.13,1198.14 1358.27,1198.14 1364.08,1198.14C1391.22,1198.14 1393.16,1207.84 1398.97,1229.16C1449.38,1395.89 1534.69,1465.69 1606.42,1465.69C1637.44,1465.69 1654.88,1450.17 1654.88,1397.83C1654.88,1353.23 1643.25,1324.16 1594.78,1203.95L1472.64,891.828" style="fill:rgb(255,0,0);fill-rule:nonzero;"/>
                </g>
                <g transform="matrix(0.00359712,0,0,-0.00359712,0,9)">
                    <path d="M2432.06,696.016C2432.06,589.391 2412.67,465.313 2280.84,341.234C2273.09,333.484 2267.28,327.672 2267.28,317.969C2267.28,304.406 2282.78,290.828 2294.42,290.828C2321.56,290.828 2486.34,445.922 2486.34,676.625C2486.34,796.828 2439.83,887.953 2350.64,887.953C2286.66,887.953 2240.14,837.547 2240.14,777.438C2240.14,715.406 2284.72,665 2352.58,665C2399.11,665 2430.13,696.016 2432.06,696.016" style="fill:rgb(255,0,0);fill-rule:nonzero;"/>
                </g>
                <g transform="matrix(0.00359712,0,0,-0.00359712,0,9)">
                    <path d="M3531.09,1876.69C3531.09,1909.64 3505.89,1950.36 3453.55,1950.36C3397.31,1950.36 3344.97,1896.08 3344.97,1843.73C3344.97,1812.7 3368.23,1770.06 3422.52,1770.06C3474.88,1770.06 3531.09,1820.47 3531.09,1876.69ZM3120.08,570C3087.13,436.234 2984.38,323.781 2870,323.781C2844.8,323.781 2821.53,327.672 2800.2,335.422C2850.61,358.688 2866.11,405.219 2866.11,434.297C2866.11,480.828 2829.28,506.031 2790.5,506.031C2730.41,506.031 2680,453.688 2680,391.641C2680,317.969 2755.61,269.5 2871.94,269.5C2988.25,269.5 3215.08,339.297 3275.19,575.813L3449.67,1269.88C3455.48,1291.2 3459.36,1308.66 3459.36,1337.73C3459.36,1444.36 3368.23,1519.97 3251.92,1519.97C3036.72,1519.97 2912.64,1250.48 2912.64,1223.34C2912.64,1198.14 2939.78,1198.14 2945.61,1198.14C2968.86,1198.14 2970.81,1203.95 2984.38,1233.05C3032.84,1345.48 3133.66,1465.69 3246.09,1465.69C3294.56,1465.69 3312.02,1432.72 3312.02,1370.69C3312.02,1349.36 3308.14,1322.22 3306.2,1312.53L3120.08,570" style="fill:rgb(255,0,0);fill-rule:nonzero;"/>
                </g>
            </g>
        </g>
    </g>
    <g transform="matrix(2.22222,0,0,2.22222,171.223,135.777)">
        <g transform="matrix(1,0,0,1,-11.5,-4.5)">
            <g>
                <g transform="matrix(0.00359712,0,0,-0.00359712,0,9)">
                    <path d="M1138,2132.67C1093.67,2132.67 1054.89,2132.67 1016.11,2093.89C971.781,2052.33 966.25,2005.25 966.25,1985.84C966.25,1919.36 1016.11,1888.89 1068.73,1888.89C1149.08,1888.89 1223.88,1955.38 1223.88,2066.19C1223.88,2201.92 1093.67,2304.42 896.984,2304.42C523.016,2304.42 154.578,1908.28 154.578,1517.69C154.578,1268.38 315.25,1049.53 603.344,1049.53C999.484,1049.53 1232.19,1343.17 1232.19,1376.41C1232.19,1393.03 1215.56,1412.42 1198.94,1412.42C1185.09,1412.42 1179.55,1406.88 1162.92,1384.72C944.078,1110.47 642.125,1110.47 608.891,1110.47C434.359,1110.47 359.578,1246.22 359.578,1412.42C359.578,1526 414.969,1794.7 509.156,1966.45C595.031,2124.36 747.391,2243.48 899.766,2243.48C993.938,2243.48 1099.22,2207.47 1138,2132.67" style="fill:rgb(255,0,0);fill-rule:nonzero;"/>
                </g>
                <g transform="matrix(0.00359712,0,0,-0.00359712,0,9)">
                    <path d="M1868.14,1876.69C1868.14,1907.7 1844.88,1950.36 1790.59,1950.36C1738.25,1950.36 1682.03,1899.95 1682.03,1843.73C1682.03,1810.77 1707.23,1770.06 1759.58,1770.06C1815.8,1770.06 1868.14,1824.34 1868.14,1876.69ZM1472.64,891.828C1464.89,866.625 1455.2,843.359 1455.2,810.406C1455.2,719.281 1532.75,645.609 1639.38,645.609C1833.25,645.609 1918.55,913.156 1918.55,942.234C1918.55,967.438 1893.34,967.438 1887.53,967.438C1860.39,967.438 1858.45,955.813 1850.69,934.484C1806.09,779.391 1720.8,699.891 1645.19,699.891C1606.42,699.891 1596.72,725.094 1596.72,767.75C1596.72,812.344 1610.3,849.172 1627.73,891.828C1647.13,944.172 1668.45,996.516 1689.78,1046.92C1707.23,1093.45 1777.02,1269.88 1784.78,1293.14C1790.59,1312.53 1796.41,1335.8 1796.41,1355.17C1796.41,1446.3 1718.86,1519.97 1612.23,1519.97C1420.3,1519.97 1331.13,1256.3 1331.13,1223.34C1331.13,1198.14 1358.27,1198.14 1364.08,1198.14C1391.22,1198.14 1393.16,1207.84 1398.97,1229.16C1449.38,1395.89 1534.69,1465.69 1606.42,1465.69C1637.44,1465.69 1654.88,1450.17 1654.88,1397.83C1654.88,1353.23 1643.25,1324.16 1594.78,1203.95L1472.64,891.828" style="fill:rgb(255,0,0);fill-rule:nonzero;"/>
                </g>
                <g transform="matrix(0.00359712,0,0,-0.00359712,0,9)">
                    <path d="M2432.06,696.016C2432.06,589.391 2412.67,465.313 2280.84,341.234C2273.09,333.484 2267.28,327.672 2267.28,317.969C2267.28,304.406 2282.78,290.828 2294.42,290.828C2321.56,290.828 2486.34,445.922 2486.34,676.625C2486.34,796.828 2439.83,887.953 2350.64,887.953C2286.66,887.953 2240.14,837.547 2240.14,777.438C2240.14,715.406 2284.72,665 2352.58,665C2399.11,665 2430.13,696.016 2432.06,696.016" style="fill:rgb(255,0,0);fill-rule:nonzero;"/>
                </g>
                <g transform="matrix(0.00359712,0,0,-0.00359712,0,9)">
                    <path d="M3531.09,1876.69C3531.09,1909.64 3505.89,1950.36 3453.55,1950.36C3397.31,1950.36 3344.97,1896.08 3344.97,1843.73C3344.97,1812.7 3368.23,1770.06 3422.52,1770.06C3474.88,1770.06 3531.09,1820.47 3531.09,1876.69ZM3120.08,570C3087.13,436.234 2984.38,323.781 2870,323.781C2844.8,323.781 2821.53,327.672 2800.2,335.422C2850.61,358.688 2866.11,405.219 2866.11,434.297C2866.11,480.828 2829.28,506.031 2790.5,506.031C2730.41,506.031 2680,453.688 2680,391.641C2680,317.969 2755.61,269.5 2871.94,269.5C2988.25,269.5 3215.08,339.297 3275.19,575.813L3449.67,1269.88C3455.48,1291.2 3459.36,1308.66 3459.36,1337.73C3459.36,1444.36 3368.23,1519.97 3251.92,1519.97C3036.72,1519.97 2912.64,1250.48 2912.64,1223.34C2912.64,1198.14 2939.78,1198.14 2945.61,1198.14C2968.86,1198.14 2970.81,1203.95 2984.38,1233.05C3032.84,1345.48 3133.66,1465.69 3246.09,1465.69C3294.56,1465.69 3312.02,1432.72 3312.02,1370.69C3312.02,1349.36 3308.14,1322.22 3306.2,1312.53L3120.08,570" style="fill:rgb(255,0,0);fill-rule:nonzero;"/>
                </g>
                <g transform="matrix(0.00359712,0,0,-0.00359712,0,9)">
                    <path d="M5152.39,1103.14C5183.41,1103.14 5229.94,1103.14 5229.94,1149.67C5229.94,1198.14 5185.34,1198.14 5152.39,1198.14L3996.92,1198.14C3965.91,1198.14 3919.38,1198.14 3919.38,1151.61C3919.38,1103.14 3963.97,1103.14 3996.92,1103.14L5152.39,1103.14" style="fill:rgb(255,0,0);fill-rule:nonzero;"/>
                </g>
                <g transform="matrix(0.00359712,0,0,-0.00359712,0,9)">
                    <path d="M6090.47,1898.02C6090.47,1950.36 6086.59,1952.3 6032.3,1952.3C5908.23,1830.16 5731.81,1828.22 5652.31,1828.22L5652.31,1758.42C5698.84,1758.42 5826.8,1758.42 5933.44,1812.7L5933.44,823.969C5933.44,760 5933.44,734.797 5739.56,734.797L5665.89,734.797L5665.89,665C5700.78,666.938 5939.25,672.75 6010.98,672.75C6071.08,672.75 6315.36,666.938 6358,665L6358,734.797L6284.33,734.797C6090.47,734.797 6090.47,760 6090.47,823.969L6090.47,1898.02" style="fill:rgb(255,0,0);fill-rule:nonzero;"/>
                </g>
            </g>
        </g>
    </g>
    <g transform="matrix(2.22222,0,0,2.22222,171.683,14.6445)">
        <g transform="matrix(1,0,0,1,-11.5,-4.5)">
            <g>
                <g transform="matrix(0.00359712,0,0,-0.00359712,0,9)">
                    <path d="M1138,2132.67C1093.67,2132.67 1054.89,2132.67 1016.11,2093.89C971.781,2052.33 966.25,2005.25 966.25,1985.84C966.25,1919.36 1016.11,1888.89 1068.73,1888.89C1149.08,1888.89 1223.88,1955.38 1223.88,2066.19C1223.88,2201.92 1093.67,2304.42 896.984,2304.42C523.016,2304.42 154.578,1908.28 154.578,1517.69C154.578,1268.38 315.25,1049.53 603.344,1049.53C999.484,1049.53 1232.19,1343.17 1232.19,1376.41C1232.19,1393.03 1215.56,1412.42 1198.94,1412.42C1185.09,1412.42 1179.55,1406.88 1162.92,1384.72C944.078,1110.47 642.125,1110.47 608.891,1110.47C434.359,1110.47 359.578,1246.22 359.578,1412.42C359.578,1526 414.969,1794.7 509.156,1966.45C595.031,2124.36 747.391,2243.48 899.766,2243.48C993.938,2243.48 1099.22,2207.47 1138,2132.67" style="fill:rgb(255,0,0);fill-rule:nonzero;"/>
                </g>
                <g transform="matrix(0.00359712,0,0,-0.00359712,0,9)">
                    <path d="M1868.14,1876.69C1868.14,1907.7 1844.88,1950.36 1790.59,1950.36C1738.25,1950.36 1682.03,1899.95 1682.03,1843.73C1682.03,1810.77 1707.23,1770.06 1759.58,1770.06C1815.8,1770.06 1868.14,1824.34 1868.14,1876.69ZM1472.64,891.828C1464.89,866.625 1455.2,843.359 1455.2,810.406C1455.2,719.281 1532.75,645.609 1639.38,645.609C1833.25,645.609 1918.55,913.156 1918.55,942.234C1918.55,967.438 1893.34,967.438 1887.53,967.438C1860.39,967.438 1858.45,955.813 1850.69,934.484C1806.09,779.391 1720.8,699.891 1645.19,699.891C1606.42,699.891 1596.72,725.094 1596.72,767.75C1596.72,812.344 1610.3,849.172 1627.73,891.828C1647.13,944.172 1668.45,996.516 1689.78,1046.92C1707.23,1093.45 1777.02,1269.88 1784.78,1293.14C1790.59,1312.53 1796.41,1335.8 1796.41,1355.17C1796.41,1446.3 1718.86,1519.97 1612.23,1519.97C1420.3,1519.97 1331.13,1256.3 1331.13,1223.34C1331.13,1198.14 1358.27,1198.14 1364.08,1198.14C1391.22,1198.14 1393.16,1207.84 1398.97,1229.16C1449.38,1395.89 1534.69,1465.69 1606.42,1465.69C1637.44,1465.69 1654.88,1450.17 1654.88,1397.83C1654.88,1353.23 1643.25,1324.16 1594.78,1203.95L1472.64,891.828" style="fill:rgb(255,0,0);fill-rule:nonzero;"/>
                </g>
                <g transform="matrix(0.00359712,0,0,-0.00359712,0,9)">
                    <path d="M2432.06,696.016C2432.06,589.391 2412.67,465.313 2280.84,341.234C2273.09,333.484 2267.28,327.672 2267.28,317.969C2267.28,304.406 2282.78,290.828 2294.42,290.828C2321.56,290.828 2486.34,445.922 2486.34,676.625C2486.34,796.828 2439.83,887.953 2350.64,887.953C2286.66,887.953 2240.14,837.547 2240.14,777.438C2240.14,715.406 2284.72,665 2352.58,665C2399.11,665 2430.13,696.016 2432.06,696.016" style="fill:rgb(255,0,0);fill-rule:nonzero;"/>
                </g>
                <g transform="matrix(0.00359712,0,0,-0.00359712,0,9)">
                    <path d="M3531.09,1876.69C3531.09,1909.64 3505.89,1950.36 3453.55,1950.36C3397.31,1950.36 3344.97,1896.08 3344.97,1843.73C3344.97,1812.7 3368.23,1770.06 3422.52,1770.06C3474.88,1770.06 3531.09,1820.47 3531.09,1876.69ZM3120.08,570C3087.13,436.234 2984.38,323.781 2870,323.781C2844.8,323.781 2821.53,327.672 2800.2,335.422C2850.61,358.688 2866.11,405.219 2866.11,434.297C2866.11,480.828 2829.28,506.031 2790.5,506.031C2730.41,506.031 2680,453.688 2680,391.641C2680,317.969 2755.61,269.5 2871.94,269.5C2988.25,269.5 3215.08,339.297 3275.19,575.813L3449.67,1269.88C3455.48,1291.2 3459.36,1308.66 3459.36,1337.73C3459.36,1444.36 3368.23,1519.97 3251.92,1519.97C3036.72,1519.97 2912.64,1250.48 2912.64,1223.34C2912.64,1198.14 2939.78,1198.14 2945.61,1198.14C2968.86,1198.14 2970.81,1203.95 2984.38,1233.05C3032.84,1345.48 3133.66,1465.69 3246.09,1465.69C3294.56,1465.69 3312.02,1432.72 3312.02,1370.69C3312.02,1349.36 3308.14,1322.22 3306.2,1312.53L3120.08,570" style="fill:rgb(255,0,0);fill-rule:nonzero;"/>
                </g>
                <g transform="matrix(0.00359712,0,0,-0.00359712,0,9)">
                    <path d="M4607.63,1103.14L5200.86,1103.14C5226.06,1103.14 5272.59,1103.14 5272.59,1149.67C5272.59,1198.14 5228,1198.14 5200.86,1198.14L4607.63,1198.14L4607.63,1793.33C4607.63,1818.53 4607.63,1865.06 4561.09,1865.06C4512.63,1865.06 4512.63,1820.47 4512.63,1793.33L4512.63,1198.14L3917.44,1198.14C3892.23,1198.14 3845.7,1198.14 3845.7,1151.61C3845.7,1103.14 3890.3,1103.14 3917.44,1103.14L4512.63,1103.14L4512.63,507.969C4512.63,482.766 4512.63,436.234 4559.16,436.234C4607.63,436.234 4607.63,480.828 4607.63,507.969L4607.63,1103.14" style="fill:rgb(255,0,0);fill-rule:nonzero;"/>
                </g>
                <g transform="matrix(0.00359712,0,0,-0.00359712,0,9)">
                    <path d="M6059.47,1898.02C6059.47,1950.36 6055.59,1952.3 6001.3,1952.3C5877.23,1830.16 5700.81,1828.22 5621.31,1828.22L5621.31,1758.42C5667.84,1758.42 5795.8,1758.42 5902.44,1812.7L5902.44,823.969C5902.44,760 5902.44,734.797 5708.56,734.797L5634.89,734.797L5634.89,665C5669.78,666.938 5908.25,672.75 5979.98,672.75C6040.08,672.75 6284.36,666.938 6327,665L6327,734.797L6253.33,734.797C6059.47,734.797 6059.47,760 6059.47,823.969L6059.47,1898.02" style="fill:rgb(255,0,0);fill-rule:nonzero;"/>
                </g>
            </g>
        </g>
    </g>
    <g transform="matrix(2.22222,0,0,2.22222,75.4716,94.8044)">
        <g transform="matrix(1,0,0,1,-11.5,-4.5)">
            <g>
                <g transform="matrix(0.00359712,0,0,-0.00359712,0,9)">
                    <path d="M1138,2132.67C1093.67,2132.67 1054.89,2132.67 1016.11,2093.89C971.781,2052.33 966.25,2005.25 966.25,1985.84C966.25,1919.36 1016.11,1888.89 1068.73,1888.89C1149.08,1888.89 1223.88,1955.38 1223.88,2066.19C1223.88,2201.92 1093.67,2304.42 896.984,2304.42C523.016,2304.42 154.578,1908.28 154.578,1517.69C154.578,1268.38 315.25,1049.53 603.344,1049.53C999.484,1049.53 1232.19,1343.17 1232.19,1376.41C1232.19,1393.03 1215.56,1412.42 1198.94,1412.42C1185.09,1412.42 1179.55,1406.88 1162.92,1384.72C944.078,1110.47 642.125,1110.47 608.891,1110.47C434.359,1110.47 359.578,1246.22 359.578,1412.42C359.578,1526 414.969,1794.7 509.156,1966.45C595.031,2124.36 747.391,2243.48 899.766,2243.48C993.938,2243.48 1099.22,2207.47 1138,2132.67" style="fill:rgb(255,0,0);fill-rule:nonzero;"/>
                </g>
                <g transform="matrix(0.00359712,0,0,-0.00359712,0,9)">
                    <path d="M1868.14,1876.69C1868.14,1907.7 1844.88,1950.36 1790.59,1950.36C1738.25,1950.36 1682.03,1899.95 1682.03,1843.73C1682.03,1810.77 1707.23,1770.06 1759.58,1770.06C1815.8,1770.06 1868.14,1824.34 1868.14,1876.69ZM1472.64,891.828C1464.89,866.625 1455.2,843.359 1455.2,810.406C1455.2,719.281 1532.75,645.609 1639.38,645.609C1833.25,645.609 1918.55,913.156 1918.55,942.234C1918.55,967.438 1893.34,967.438 1887.53,967.438C1860.39,967.438 1858.45,955.813 1850.69,934.484C1806.09,779.391 1720.8,699.891 1645.19,699.891C1606.42,699.891 1596.72,725.094 1596.72,767.75C1596.72,812.344 1610.3,849.172 1627.73,891.828C1647.13,944.172 1668.45,996.516 1689.78,1046.92C1707.23,1093.45 1777.02,1269.88 1784.78,1293.14C1790.59,1312.53 1796.41,1335.8 1796.41,1355.17C1796.41,1446.3 1718.86,1519.97 1612.23,1519.97C1420.3,1519.97 1331.13,1256.3 1331.13,1223.34C1331.13,1198.14 1358.27,1198.14 1364.08,1198.14C1391.22,1198.14 1393.16,1207.84 1398.97,1229.16C1449.38,1395.89 1534.69,1465.69 1606.42,1465.69C1637.44,1465.69 1654.88,1450.17 1654.88,1397.83C1654.88,1353.23 1643.25,1324.16 1594.78,1203.95L1472.64,891.828" style="fill:rgb(255,0,0);fill-rule:nonzero;"/>
                </g>
                <g transform="matrix(0.00359712,0,0,-0.00359712,0,9)">
                    <path d="M3465.39,1103.14C3496.41,1103.14 3542.94,1103.14 3542.94,1149.67C3542.94,1198.14 3498.34,1198.14 3465.39,1198.14L2309.92,1198.14C2278.91,1198.14 2232.38,1198.14 2232.38,1151.61C2232.38,1103.14 2276.97,1103.14 2309.92,1103.14L3465.39,1103.14" style="fill:rgb(255,0,0);fill-rule:nonzero;"/>
                </g>
                <g transform="matrix(0.00359712,0,0,-0.00359712,0,9)">
                    <path d="M4403.47,1898.02C4403.47,1950.36 4399.59,1952.3 4345.3,1952.3C4221.23,1830.16 4044.81,1828.22 3965.31,1828.22L3965.31,1758.42C4011.84,1758.42 4139.8,1758.42 4246.44,1812.7L4246.44,823.969C4246.44,760 4246.44,734.797 4052.56,734.797L3978.89,734.797L3978.89,665C4013.78,666.938 4252.25,672.75 4323.98,672.75C4384.08,672.75 4628.36,666.938 4671,665L4671,734.797L4597.33,734.797C4403.47,734.797 4403.47,760 4403.47,823.969L4403.47,1898.02" style="fill:rgb(255,0,0);fill-rule:nonzero;"/>
                </g>
                <g transform="matrix(0.00359712,0,0,-0.00359712,0,9)">
                    <path d="M5267.06,696.016C5267.06,589.391 5247.67,465.313 5115.84,341.234C5108.09,333.484 5102.28,327.672 5102.28,317.969C5102.28,304.406 5117.78,290.828 5129.42,290.828C5156.56,290.828 5321.34,445.922 5321.34,676.625C5321.34,796.828 5274.83,887.953 5185.64,887.953C5121.66,887.953 5075.14,837.547 5075.14,777.438C5075.14,715.406 5119.72,665 5187.58,665C5234.11,665 5265.13,696.016 5267.06,696.016" style="fill:rgb(255,0,0);fill-rule:nonzero;"/>
                </g>
                <g transform="matrix(0.00359712,0,0,-0.00359712,0,9)">
                    <path d="M6367.09,1876.69C6367.09,1909.64 6341.89,1950.36 6289.55,1950.36C6233.31,1950.36 6180.97,1896.08 6180.97,1843.73C6180.97,1812.7 6204.23,1770.06 6258.52,1770.06C6310.88,1770.06 6367.09,1820.47 6367.09,1876.69ZM5956.08,570C5923.13,436.234 5820.38,323.781 5706,323.781C5680.8,323.781 5657.53,327.672 5636.2,335.422C5686.61,358.688 5702.11,405.219 5702.11,434.297C5702.11,480.828 5665.28,506.031 5626.5,506.031C5566.41,506.031 5516,453.688 5516,391.641C5516,317.969 5591.61,269.5 5707.94,269.5C5824.25,269.5 6051.08,339.297 6111.19,575.813L6285.67,1269.88C6291.48,1291.2 6295.36,1308.66 6295.36,1337.73C6295.36,1444.36 6204.23,1519.97 6087.92,1519.97C5872.72,1519.97 5748.64,1250.48 5748.64,1223.34C5748.64,1198.14 5775.78,1198.14 5781.61,1198.14C5804.86,1198.14 5806.81,1203.95 5820.38,1233.05C5868.84,1345.48 5969.66,1465.69 6082.09,1465.69C6130.56,1465.69 6148.02,1432.72 6148.02,1370.69C6148.02,1349.36 6144.14,1322.22 6142.2,1312.53L5956.08,570" style="fill:rgb(255,0,0);fill-rule:nonzero;"/>
                </g>
            </g>
        </g>
    </g>
    <g transform="matrix(2.22222,0,0,2.22222,195.597,95.8597)">
        <g transform="matrix(1,0,0,1,-11.5,-4.5)">
            <g>
                <g transform="matrix(0.00359712,0,0,-0.00359712,0,9)">
                    <path d="M1138,2132.67C1093.67,2132.67 1054.89,2132.67 1016.11,2093.89C971.781,2052.33 966.25,2005.25 966.25,1985.84C966.25,1919.36 1016.11,1888.89 1068.73,1888.89C1149.08,1888.89 1223.88,1955.38 1223.88,2066.19C1223.88,2201.92 1093.67,2304.42 896.984,2304.42C523.016,2304.42 154.578,1908.28 154.578,1517.69C154.578,1268.38 315.25,1049.53 603.344,1049.53C999.484,1049.53 1232.19,1343.17 1232.19,1376.41C1232.19,1393.03 1215.56,1412.42 1198.94,1412.42C1185.09,1412.42 1179.55,1406.88 1162.92,1384.72C944.078,1110.47 642.125,1110.47 608.891,1110.47C434.359,1110.47 359.578,1246.22 359.578,1412.42C359.578,1526 414.969,1794.7 509.156,1966.45C595.031,2124.36 747.391,2243.48 899.766,2243.48C993.938,2243.48 1099.22,2207.47 1138,2132.67" style="fill:rgb(255,0,0);fill-rule:nonzero;"/>
                </g>
                <g transform="matrix(0.00359712,0,0,-0.00359712,0,9)">
                    <path d="M1868.14,1876.69C1868.14,1907.7 1844.88,1950.36 1790.59,1950.36C1738.25,1950.36 1682.03,1899.95 1682.03,1843.73C1682.03,1810.77 1707.23,1770.06 1759.58,1770.06C1815.8,1770.06 1868.14,1824.34 1868.14,1876.69ZM1472.64,891.828C1464.89,866.625 1455.2,843.359 1455.2,810.406C1455.2,719.281 1532.75,645.609 1639.38,645.609C1833.25,645.609 1918.55,913.156 1918.55,942.234C1918.55,967.438 1893.34,967.438 1887.53,967.438C1860.39,967.438 1858.45,955.813 1850.69,934.484C1806.09,779.391 1720.8,699.891 1645.19,699.891C1606.42,699.891 1596.72,725.094 1596.72,767.75C1596.72,812.344 1610.3,849.172 1627.73,891.828C1647.13,944.172 1668.45,996.516 1689.78,1046.92C1707.23,1093.45 1777.02,1269.88 1784.78,1293.14C1790.59,1312.53 1796.41,1335.8 1796.41,1355.17C1796.41,1446.3 1718.86,1519.97 1612.23,1519.97C1420.3,1519.97 1331.13,1256.3 1331.13,1223.34C1331.13,1198.14 1358.27,1198.14 1364.08,1198.14C1391.22,1198.14 1393.16,1207.84 1398.97,1229.16C1449.38,1395.89 1534.69,1465.69 1606.42,1465.69C1637.44,1465.69 1654.88,1450.17 1654.88,1397.83C1654.88,1353.23 1643.25,1324.16 1594.78,1203.95L1472.64,891.828" style="fill:rgb(255,0,0);fill-rule:nonzero;"/>
                </g>
                <g transform="matrix(0.00359712,0,0,-0.00359712,0,9)">
                    <path d="M2920.63,1103.14L3513.86,1103.14C3539.06,1103.14 3585.59,1103.14 3585.59,1149.67C3585.59,1198.14 3541,1198.14 3513.86,1198.14L2920.63,1198.14L2920.63,1793.33C2920.63,1818.53 2920.63,1865.06 2874.09,1865.06C2825.63,1865.06 2825.63,1820.47 2825.63,1793.33L2825.63,1198.14L2230.44,1198.14C2205.23,1198.14 2158.7,1198.14 2158.7,1151.61C2158.7,1103.14 2203.3,1103.14 2230.44,1103.14L2825.63,1103.14L2825.63,507.969C2825.63,482.766 2825.63,436.234 2872.16,436.234C2920.63,436.234 2920.63,480.828 2920.63,507.969L2920.63,1103.14" style="fill:rgb(255,0,0);fill-rule:nonzero;"/>
                </g>
                <g transform="matrix(0.00359712,0,0,-0.00359712,0,9)">
                    <path d="M4373.47,1898.02C4373.47,1950.36 4369.59,1952.3 4315.3,1952.3C4191.23,1830.16 4014.81,1828.22 3935.31,1828.22L3935.31,1758.42C3981.84,1758.42 4109.8,1758.42 4216.44,1812.7L4216.44,823.969C4216.44,760 4216.44,734.797 4022.56,734.797L3948.89,734.797L3948.89,665C3983.78,666.938 4222.25,672.75 4293.98,672.75C4354.08,672.75 4598.36,666.938 4641,665L4641,734.797L4567.33,734.797C4373.47,734.797 4373.47,760 4373.47,823.969L4373.47,1898.02" style="fill:rgb(255,0,0);fill-rule:nonzero;"/>
                </g>
                <g transform="matrix(0.00359712,0,0,-0.00359712,0,9)">
                    <path d="M5236.06,696.016C5236.06,589.391 5216.67,465.313 5084.84,341.234C5077.09,333.484 5071.28,327.672 5071.28,317.969C5071.28,304.406 5086.78,290.828 5098.42,290.828C5125.56,290.828 5290.34,445.922 5290.34,676.625C5290.34,796.828 5243.83,887.953 5154.64,887.953C5090.66,887.953 5044.14,837.547 5044.14,777.438C5044.14,715.406 5088.72,665 5156.58,665C5203.11,665 5234.13,696.016 5236.06,696.016" style="fill:rgb(255,0,0);fill-rule:nonzero;"/>
                </g>
                <g transform="matrix(0.00359712,0,0,-0.00359712,0,9)">
                    <path d="M6336.09,1876.69C6336.09,1909.64 6310.89,1950.36 6258.55,1950.36C6202.31,1950.36 6149.97,1896.08 6149.97,1843.73C6149.97,1812.7 6173.23,1770.06 6227.52,1770.06C6279.88,1770.06 6336.09,1820.47 6336.09,1876.69ZM5925.08,570C5892.13,436.234 5789.38,323.781 5675,323.781C5649.8,323.781 5626.53,327.672 5605.2,335.422C5655.61,358.688 5671.11,405.219 5671.11,434.297C5671.11,480.828 5634.28,506.031 5595.5,506.031C5535.41,506.031 5485,453.688 5485,391.641C5485,317.969 5560.61,269.5 5676.94,269.5C5793.25,269.5 6020.08,339.297 6080.19,575.813L6254.67,1269.88C6260.48,1291.2 6264.36,1308.66 6264.36,1337.73C6264.36,1444.36 6173.23,1519.97 6056.92,1519.97C5841.72,1519.97 5717.64,1250.48 5717.64,1223.34C5717.64,1198.14 5744.78,1198.14 5750.61,1198.14C5773.86,1198.14 5775.81,1203.95 5789.38,1233.05C5837.84,1345.48 5938.66,1465.69 6051.09,1465.69C6099.56,1465.69 6117.02,1432.72 6117.02,1370.69C6117.02,1349.36 6113.14,1322.22 6111.2,1312.53L5925.08,570" style="fill:rgb(255,0,0);fill-rule:nonzero;"/>
                </g>
            </g>
        </g>
    </g>
    <g transform="matrix(1,0,0,1,-23.8773,25.9469)">
        <g transform="matrix(15,0,0,15,128.851,10.8588)">
        </g>
        <text x="29.071px" y="10.859px" style="font-family:'YuKyo-Bold', 'YuKyokasho';font-weight:700;font-size:15px;">5点ステンシル</text>
    </g>
</svg>
